<svg xmlns="http://www.w3.org/2000/svg" xmlns:xlink="http://www.w3.org/1999/xlink" width="500" zoomAndPan="magnify" viewBox="0 0 375 374.999991" height="500" preserveAspectRatio="xMidYMid meet" version="1.0"><defs><clipPath id="9844902b77"><path d="M 75 0 L 300 0 C 341.421875 0 375 33.578125 375 75 L 375 300 C 375 341.421875 341.421875 375 300 375 L 75 375 C 33.578125 375 0 341.421875 0 300 L 0 75 C 0 33.578125 33.578125 0 75 0 Z M 75 0 " clip-rule="nonzero"/></clipPath><clipPath id="e44e88aaf8"><path d="M 0 0 L 375 0 L 375 375 L 0 375 Z M 0 0 " clip-rule="nonzero"/></clipPath><clipPath id="7f22ef7316"><path d="M 75 0 L 300 0 C 341.421875 0 375 33.578125 375 75 L 375 300 C 375 341.421875 341.421875 375 300 375 L 75 375 C 33.578125 375 0 341.421875 0 300 L 0 75 C 0 33.578125 33.578125 0 75 0 Z M 75 0 " clip-rule="nonzero"/></clipPath><clipPath id="f059e6ebf4"><rect x="0" width="375" y="0" height="375"/></clipPath><clipPath id="4bd0a3700f"><path d="M 9.390625 9.390625 L 367.140625 9.390625 L 367.140625 367.140625 L 9.390625 367.140625 Z M 9.390625 9.390625 " clip-rule="nonzero"/></clipPath><clipPath id="37b8e113b1"><path d="M 80.941406 9.390625 L 295.59375 9.390625 C 335.109375 9.390625 367.140625 41.425781 367.140625 80.941406 L 367.140625 295.59375 C 367.140625 335.109375 335.109375 367.140625 295.59375 367.140625 L 80.941406 367.140625 C 41.425781 367.140625 9.390625 335.109375 9.390625 295.59375 L 9.390625 80.941406 C 9.390625 41.425781 41.425781 9.390625 80.941406 9.390625 Z M 80.941406 9.390625 " clip-rule="nonzero"/></clipPath><clipPath id="32ad8ca6f7"><path d="M 80.941406 9.390625 L 295.59375 9.390625 C 335.109375 9.390625 367.140625 41.425781 367.140625 80.941406 L 367.140625 295.59375 C 367.140625 335.109375 335.109375 367.140625 295.59375 367.140625 L 80.941406 367.140625 C 41.425781 367.140625 9.390625 335.109375 9.390625 295.59375 L 9.390625 80.941406 C 9.390625 41.425781 41.425781 9.390625 80.941406 9.390625 Z M 80.941406 9.390625 " clip-rule="nonzero"/></clipPath><clipPath id="a6f9b35954"><path d="M 210.183594 103 L 238.351562 103 L 238.351562 131 L 210.183594 131 Z M 210.183594 103 " clip-rule="nonzero"/></clipPath><clipPath id="443ebcdc90"><path d="M 179.242188 120.054688 L 248.847656 120.054688 L 248.847656 200.6875 L 179.242188 200.6875 Z M 179.242188 120.054688 " clip-rule="nonzero"/></clipPath></defs><g clip-path="url(#9844902b77)"><g transform="matrix(1, 0, 0, 1, 0, 0)"><g clip-path="url(#f059e6ebf4)"><g clip-path="url(#e44e88aaf8)"><g clip-path="url(#7f22ef7316)"><rect x="-82.5" width="540" fill="#ffffff" height="539.999987" y="-82.499998" fill-opacity="1"/></g></g></g></g></g><g clip-path="url(#4bd0a3700f)"><g clip-path="url(#37b8e113b1)"><g clip-path="url(#32ad8ca6f7)"><rect x="-37.5" width="450" fill="#004000" y="-37.499999" height="449.999989" fill-opacity="1"/></g></g></g><path fill="#ffffff" d="M 99.335938 134.472656 L 99.335938 148.476562 L 86 148.476562 L 86 201.667969 L 67.363281 201.667969 L 67.363281 148.476562 L 57.863281 148.476562 L 57.863281 134.472656 L 67.363281 134.472656 L 67.363281 129.613281 C 67.363281 122.300781 69.453125 116.847656 73.640625 113.253906 C 77.828125 109.671875 83.082031 107.875 89.40625 107.875 C 92.265625 107.875 94.882812 108.09375 97.253906 108.539062 C 99.632812 108.972656 101.40625 109.359375 102.566406 109.710938 L 99.289062 123.707031 C 98.558594 123.476562 97.65625 123.261719 96.578125 123.058594 C 95.503906 122.859375 94.410156 122.757812 93.300781 122.757812 C 90.558594 122.757812 88.652344 123.390625 87.59375 124.664062 C 86.527344 125.929688 86 127.695312 86 129.964844 L 86 134.472656 Z M 99.335938 134.472656 " fill-opacity="1" fill-rule="nonzero"/><path fill="#ffffff" d="M 138.707031 202.984375 C 131.90625 202.984375 126.039062 201.535156 121.09375 198.632812 C 116.15625 195.726562 112.339844 191.671875 109.652344 186.472656 C 106.96875 181.261719 105.628906 175.21875 105.628906 168.335938 C 105.628906 161.398438 106.96875 155.324219 109.652344 150.113281 C 112.339844 144.90625 116.15625 140.855469 121.09375 137.953125 C 126.039062 135.054688 131.90625 133.601562 138.707031 133.601562 C 145.496094 133.601562 151.363281 135.054688 156.3125 137.953125 C 161.253906 140.855469 165.070312 144.90625 167.753906 150.113281 C 170.433594 155.324219 171.773438 161.398438 171.773438 168.335938 C 171.773438 175.21875 170.433594 181.261719 167.753906 186.472656 C 165.070312 191.671875 161.253906 195.726562 156.3125 198.632812 C 151.363281 201.535156 145.496094 202.984375 138.707031 202.984375 Z M 138.789062 188.539062 C 143.398438 188.539062 146.890625 186.621094 149.265625 182.773438 C 151.644531 178.921875 152.835938 174.066406 152.835938 168.207031 C 152.835938 162.339844 151.644531 157.476562 149.265625 153.613281 C 146.890625 149.75 143.398438 147.8125 138.789062 147.8125 C 134.097656 147.8125 130.558594 149.75 128.160156 153.613281 C 125.765625 157.476562 124.570312 162.339844 124.570312 168.207031 C 124.570312 174.066406 125.765625 178.921875 128.160156 182.773438 C 130.558594 186.621094 134.097656 188.539062 138.789062 188.539062 Z M 138.789062 188.539062 " fill-opacity="1" fill-rule="nonzero"/><g clip-path="url(#a6f9b35954)"><path fill="#ffffff" d="M 211.933594 130.300781 C 213.429688 130.699219 214.980469 130.902344 216.558594 130.902344 C 218.398438 130.902344 220.269531 130.632812 222.125 130.089844 C 225.621094 129.066406 228.886719 127.109375 231.566406 124.433594 C 234.246094 121.753906 236.203125 118.488281 237.222656 114.988281 C 238.226562 111.550781 238.300781 108.03125 237.4375 104.800781 C 237.296875 104.285156 236.890625 103.882812 236.378906 103.746094 C 233.148438 102.878906 229.625 102.953125 226.191406 103.953125 C 222.691406 104.980469 219.425781 106.933594 216.746094 109.609375 C 214.070312 112.292969 212.113281 115.558594 211.089844 119.058594 C 210.085938 122.492188 210.015625 126.019531 210.875 129.246094 C 211.019531 129.761719 211.421875 130.164062 211.933594 130.300781 " fill-opacity="1" fill-rule="nonzero"/></g><g clip-path="url(#443ebcdc90)"><path fill="#ffffff" d="M 247.65625 171.910156 C 244 170.683594 241.222656 167.726562 240.222656 164.007812 C 239.703125 162.0625 239.699219 160.003906 240.21875 158.070312 C 240.355469 157.554688 240.207031 157 239.832031 156.628906 C 238.410156 155.210938 237.382812 153.433594 236.863281 151.484375 C 236.019531 148.359375 236.546875 145.003906 238.304688 142.285156 C 238.53125 141.933594 238.597656 141.507812 238.492188 141.105469 C 238.390625 140.699219 238.121094 140.359375 237.757812 140.160156 C 235.359375 138.875 232.695312 138.324219 229.839844 138.527344 C 227.046875 138.726562 224.128906 139.648438 221.164062 141.265625 C 219.460938 142.191406 217.632812 142.765625 215.78125 142.988281 C 215.78125 142.96875 215.78125 142.945312 215.78125 142.917969 C 215.78125 136.816406 213.128906 131.097656 208.3125 126.832031 C 203.558594 122.617188 197.226562 120.292969 190.492188 120.292969 C 189.667969 120.292969 188.996094 120.957031 188.996094 121.785156 C 188.996094 122.609375 189.667969 123.277344 190.492188 123.277344 C 202.792969 123.277344 212.796875 132.089844 212.796875 142.917969 C 212.796875 142.960938 212.804688 143 212.808594 143.039062 C 210.789062 142.871094 208.804688 142.289062 206.972656 141.289062 C 203.871094 139.601562 200.828125 138.667969 197.941406 138.507812 C 194.984375 138.347656 192.246094 139 189.8125 140.449219 C 182.996094 144.5 179.238281 154.402344 179.238281 168.332031 C 179.238281 180.941406 184.480469 192.828125 192.289062 197.914062 C 195.054688 199.71875 198.035156 200.621094 201.125 200.621094 C 203.519531 200.621094 205.976562 200.078125 208.449219 198.984375 C 212.066406 197.390625 216.296875 197.335938 220.0625 198.84375 C 225.535156 201.027344 230.902344 200.703125 235.582031 197.902344 C 239.0625 195.820312 242.125 192.371094 244.425781 187.933594 C 246.609375 183.722656 248.074219 178.726562 248.664062 173.492188 C 248.742188 172.792969 248.320312 172.136719 247.65625 171.910156 " fill-opacity="1" fill-rule="nonzero"/></g><path fill="#ffffff" d="M 125.316406 257.632812 C 122.042969 257.632812 119.238281 256.9375 116.886719 255.539062 C 114.542969 254.144531 112.75 252.210938 111.492188 249.742188 C 110.238281 247.257812 109.605469 244.40625 109.605469 241.167969 C 109.605469 237.902344 110.242188 235.027344 111.503906 232.554688 C 112.773438 230.082031 114.578125 228.152344 116.921875 226.761719 C 119.261719 225.367188 122.050781 224.671875 125.28125 224.671875 C 128.0625 224.671875 130.5 225.179688 132.597656 226.195312 C 134.695312 227.203125 136.347656 228.621094 137.558594 230.453125 C 138.773438 232.28125 139.445312 234.429688 139.574219 236.890625 L 131.222656 236.890625 C 130.984375 235.296875 130.355469 234.007812 129.351562 233.03125 C 128.351562 232.054688 127.039062 231.566406 125.417969 231.566406 C 123.371094 231.566406 121.726562 232.394531 120.476562 234.042969 C 119.230469 235.695312 118.605469 238.027344 118.605469 241.042969 C 118.605469 244.097656 119.226562 246.457031 120.464844 248.125 C 121.707031 249.792969 123.359375 250.625 125.417969 250.625 C 126.945312 250.625 128.230469 250.164062 129.269531 249.253906 C 130.308594 248.328125 130.957031 247.015625 131.222656 245.308594 L 139.574219 245.308594 C 139.429688 247.746094 138.765625 249.890625 137.582031 251.75 C 136.402344 253.605469 134.777344 255.050781 132.699219 256.085938 C 130.621094 257.117188 128.15625 257.632812 125.316406 257.632812 Z M 125.316406 257.632812 " fill-opacity="1" fill-rule="nonzero"/><path fill="#ffffff" d="M 154.117188 238.554688 L 154.117188 257.007812 L 145.265625 257.007812 L 145.265625 214.449219 L 153.871094 214.449219 L 153.871094 230.714844 L 154.242188 230.714844 C 154.976562 228.835938 156.144531 227.359375 157.742188 226.289062 C 159.347656 225.210938 161.359375 224.671875 163.777344 224.671875 C 167.105469 224.671875 169.777344 225.738281 171.800781 227.871094 C 173.824219 230 174.824219 232.9375 174.8125 236.683594 L 174.8125 257.007812 L 165.964844 257.007812 L 165.964844 238.261719 C 165.980469 236.296875 165.480469 234.765625 164.476562 233.671875 C 163.472656 232.578125 162.070312 232.03125 160.265625 232.03125 C 158.464844 232.03125 156.992188 232.605469 155.851562 233.753906 C 154.710938 234.890625 154.132812 236.492188 154.117188 238.554688 Z M 154.117188 238.554688 " fill-opacity="1" fill-rule="nonzero"/><path fill="#ffffff" d="M 190.902344 257.609375 C 187.847656 257.609375 185.3125 256.816406 183.308594 255.226562 C 181.296875 253.632812 180.296875 251.25 180.296875 248.089844 C 180.296875 245.710938 180.859375 243.839844 181.980469 242.484375 C 183.105469 241.128906 184.578125 240.132812 186.398438 239.507812 C 188.21875 238.875 190.183594 238.457031 192.285156 238.261719 C 195.058594 237.984375 197.039062 237.691406 198.226562 237.390625 C 199.417969 237.082031 200.015625 236.414062 200.015625 235.394531 L 200.015625 235.261719 C 200.015625 233.953125 199.605469 232.9375 198.785156 232.21875 C 197.960938 231.496094 196.792969 231.136719 195.285156 231.136719 C 193.6875 231.136719 192.414062 231.484375 191.46875 232.179688 C 190.53125 232.875 189.910156 233.75 189.609375 234.8125 L 181.425781 234.148438 C 182.027344 231.242188 183.542969 228.933594 185.960938 227.230469 C 188.375 225.527344 191.496094 224.671875 195.316406 224.671875 C 197.691406 224.671875 199.90625 225.046875 201.96875 225.800781 C 204.039062 226.542969 205.703125 227.714844 206.96875 229.300781 C 208.238281 230.878906 208.875 232.9375 208.875 235.472656 L 208.875 257.007812 L 200.480469 257.007812 L 200.480469 252.578125 L 200.226562 252.578125 C 199.449219 254.0625 198.289062 255.277344 196.75 256.214844 C 195.207031 257.144531 193.253906 257.609375 190.902344 257.609375 Z M 193.4375 251.496094 C 195.371094 251.496094 196.964844 250.933594 198.214844 249.808594 C 199.460938 248.679688 200.085938 247.273438 200.085938 245.601562 L 200.085938 242.207031 C 199.738281 242.449219 199.199219 242.65625 198.472656 242.832031 C 197.742188 243.015625 196.964844 243.167969 196.144531 243.296875 C 195.320312 243.433594 194.585938 243.546875 193.933594 243.648438 C 192.378906 243.863281 191.125 244.296875 190.179688 244.949219 C 189.234375 245.601562 188.757812 246.550781 188.757812 247.800781 C 188.757812 249.023438 189.195312 249.945312 190.074219 250.5625 C 190.957031 251.1875 192.074219 251.496094 193.4375 251.496094 Z M 193.4375 251.496094 " fill-opacity="1" fill-rule="nonzero"/><path fill="#ffffff" d="M 224.597656 238.554688 L 224.597656 257.007812 L 215.75 257.007812 L 215.75 225.089844 L 224.179688 225.089844 L 224.179688 230.714844 L 224.5625 230.714844 C 225.285156 228.863281 226.46875 227.398438 228.121094 226.3125 C 229.777344 225.21875 231.789062 224.671875 234.15625 224.671875 C 237.480469 224.671875 240.144531 225.742188 242.152344 227.878906 C 244.167969 230.019531 245.175781 232.957031 245.175781 236.683594 L 245.175781 257.007812 L 236.316406 257.007812 L 236.316406 238.261719 C 236.332031 236.308594 235.832031 234.785156 234.820312 233.683594 C 233.808594 232.582031 232.414062 232.03125 230.640625 232.03125 C 228.859375 232.03125 227.410156 232.605469 226.296875 233.753906 C 225.179688 234.890625 224.613281 236.492188 224.597656 238.554688 Z M 224.597656 238.554688 " fill-opacity="1" fill-rule="nonzero"/><path fill="#ffffff" d="M 266.515625 269.4375 C 262.21875 269.4375 258.839844 268.589844 256.386719 266.902344 C 253.9375 265.210938 252.445312 263.160156 251.921875 260.75 L 260.109375 259.644531 C 260.46875 260.507812 261.175781 261.289062 262.222656 262.003906 C 263.269531 262.714844 264.769531 263.074219 266.722656 263.074219 C 268.640625 263.074219 270.230469 262.617188 271.476562 261.703125 C 272.734375 260.785156 273.359375 259.285156 273.359375 257.195312 L 273.359375 251.355469 L 272.992188 251.355469 C 272.410156 252.671875 271.378906 253.875 269.910156 254.945312 C 268.445312 256.015625 266.4375 256.554688 263.886719 256.554688 C 261.492188 256.554688 259.3125 255.988281 257.351562 254.867188 C 255.390625 253.742188 253.832031 252.035156 252.675781 249.742188 C 251.519531 247.4375 250.945312 244.519531 250.945312 240.984375 C 250.945312 237.355469 251.535156 234.339844 252.722656 231.929688 C 253.910156 229.515625 255.480469 227.707031 257.433594 226.5 C 259.390625 225.285156 261.539062 224.671875 263.871094 224.671875 C 265.65625 224.671875 267.148438 224.972656 268.351562 225.578125 C 269.558594 226.175781 270.535156 226.921875 271.28125 227.808594 C 272.03125 228.691406 272.597656 229.578125 272.992188 230.453125 L 273.328125 230.453125 L 273.328125 225.089844 L 282.117188 225.089844 L 282.117188 257.320312 C 282.117188 259.960938 281.445312 262.183594 280.105469 263.984375 C 278.769531 265.789062 276.933594 267.148438 274.59375 268.0625 C 272.25 268.976562 269.558594 269.4375 266.515625 269.4375 Z M 266.699219 249.902344 C 268.828125 249.902344 270.480469 249.109375 271.652344 247.53125 C 272.820312 245.945312 273.40625 243.753906 273.40625 240.9375 C 273.40625 238.140625 272.828125 235.902344 271.664062 234.230469 C 270.5 232.554688 268.84375 231.71875 266.699219 231.71875 C 264.503906 231.71875 262.832031 232.578125 261.6875 234.296875 C 260.546875 236.011719 259.976562 238.226562 259.976562 240.9375 C 259.976562 243.699219 260.550781 245.882812 261.699219 247.492188 C 262.855469 249.101562 264.519531 249.902344 266.699219 249.902344 Z M 266.699219 249.902344 " fill-opacity="1" fill-rule="nonzero"/><path fill="#ffffff" d="M 303.722656 257.632812 C 300.453125 257.632812 297.628906 256.964844 295.261719 255.632812 C 292.894531 254.292969 291.074219 252.398438 289.792969 249.9375 C 288.523438 247.472656 287.890625 244.5625 287.890625 241.191406 C 287.890625 237.910156 288.523438 235.023438 289.792969 232.542969 C 291.074219 230.066406 292.871094 228.132812 295.191406 226.75 C 297.515625 225.367188 300.242188 224.671875 303.378906 224.671875 C 306.179688 224.671875 308.714844 225.273438 310.980469 226.460938 C 313.25 227.648438 315.046875 229.445312 316.375 231.855469 C 317.707031 234.261719 318.371094 237.269531 318.371094 240.878906 L 318.371094 243.308594 L 296.632812 243.308594 L 296.632812 243.332031 C 296.632812 245.710938 297.285156 247.585938 298.585938 248.960938 C 299.890625 250.332031 301.648438 251.019531 303.867188 251.019531 C 305.351562 251.019531 306.632812 250.710938 307.710938 250.085938 C 308.796875 249.460938 309.558594 248.535156 310.003906 247.320312 L 318.191406 247.867188 C 317.558594 250.828125 315.980469 253.199219 313.445312 254.972656 C 310.910156 256.746094 307.671875 257.632812 303.722656 257.632812 Z M 296.632812 237.824219 L 310.035156 237.824219 C 310.023438 235.921875 309.414062 234.359375 308.214844 233.125 C 307.011719 231.890625 305.445312 231.277344 303.515625 231.277344 C 301.542969 231.277344 299.929688 231.917969 298.667969 233.195312 C 297.410156 234.464844 296.734375 236.007812 296.632812 237.824219 Z M 296.632812 237.824219 " fill-opacity="1" fill-rule="nonzero"/><path fill="#ffb300" d="M 71.398438 207.941406 L 84.816406 230.613281 L 85.328125 230.613281 L 98.816406 207.941406 L 114.699219 207.941406 L 94.398438 241.207031 L 115.152344 274.46875 L 98.980469 274.46875 L 85.328125 251.761719 L 84.816406 251.761719 L 71.167969 274.46875 L 55.050781 274.46875 L 75.875 241.207031 L 55.449219 207.941406 Z M 71.398438 207.941406 " fill-opacity="1" fill-rule="nonzero"/><path fill="#ffffff" d="M 280.53125 202.761719 C 275.429688 202.761719 270.820312 201.445312 266.703125 198.804688 C 262.59375 196.164062 259.328125 192.269531 256.902344 187.125 C 254.484375 181.976562 253.277344 175.65625 253.277344 168.160156 C 253.277344 160.464844 254.523438 154.058594 257.019531 148.941406 C 259.511719 143.816406 262.824219 139.980469 266.949219 137.429688 C 271.070312 134.878906 275.582031 133.601562 280.480469 133.601562 C 284.25 133.601562 287.390625 134.238281 289.914062 135.511719 C 292.4375 136.773438 294.480469 138.34375 296.039062 140.210938 C 297.597656 142.078125 298.785156 143.929688 299.609375 145.765625 L 300.167969 145.765625 L 300.167969 112.082031 L 318.773438 112.082031 L 318.773438 201.667969 L 300.386719 201.667969 L 300.386719 190.902344 L 299.609375 190.902344 C 298.753906 192.769531 297.527344 194.617188 295.925781 196.445312 C 294.324219 198.269531 292.265625 199.777344 289.738281 200.972656 C 287.21875 202.164062 284.148438 202.761719 280.53125 202.761719 Z M 286.4375 187.9375 C 290.921875 187.9375 294.398438 186.125 296.863281 182.496094 C 299.332031 178.863281 300.5625 174.050781 300.5625 168.066406 C 300.5625 162.0625 299.332031 157.285156 296.890625 153.742188 C 294.4375 150.199219 290.953125 148.425781 286.4375 148.425781 C 281.832031 148.425781 278.324219 150.25 275.914062 153.882812 C 273.507812 157.507812 272.308594 162.238281 272.308594 168.066406 C 272.308594 173.933594 273.515625 178.710938 275.933594 182.402344 C 278.351562 186.09375 281.855469 187.9375 286.4375 187.9375 Z M 286.4375 187.9375 " fill-opacity="1" fill-rule="nonzero"/></svg>