<svg xmlns="http://www.w3.org/2000/svg" xmlns:xlink="http://www.w3.org/1999/xlink" width="500" zoomAndPan="magnify" viewBox="0 0 375 374.999991" height="500" preserveAspectRatio="xMidYMid meet" version="1.0"><defs><g/><clipPath id="a8e7ce1b7b"><path d="M 0 0 L 375 0 L 375 375 L 0 375 Z M 0 0 " clip-rule="nonzero"/></clipPath><clipPath id="f8dfb0c185"><rect x="0" width="375" y="0" height="375"/></clipPath></defs><rect x="-37.5" width="450" fill="#ffffff" y="-37.499999" height="449.999989" fill-opacity="1"/><rect x="-37.5" width="450" fill="#ffffff" y="-37.499999" height="449.999989" fill-opacity="1"/><g transform="matrix(1, 0, 0, 1, 0, 0)"><g clip-path="url(#f8dfb0c185)"><g clip-path="url(#a8e7ce1b7b)"><rect x="-82.5" width="540" fill="#004000" height="539.999987" y="-82.499998" fill-opacity="1"/></g></g></g><g fill="#ffb300" fill-opacity="1"><g transform="translate(49.687501, 264.578361)"><g><path d="M 24.90625 0.8125 C 20.457031 0.8125 16.609375 0.128906 13.359375 -1.234375 C 10.117188 -2.609375 7.597656 -4.628906 5.796875 -7.296875 C 4.003906 -9.972656 3.070312 -13.253906 3 -17.140625 L 13.875 -17.140625 C 13.976562 -15.285156 14.503906 -13.71875 15.453125 -12.4375 C 16.398438 -11.15625 17.679688 -10.1875 19.296875 -9.53125 C 20.910156 -8.882812 22.753906 -8.5625 24.828125 -8.5625 C 26.828125 -8.5625 28.578125 -8.851562 30.078125 -9.4375 C 31.585938 -10.03125 32.753906 -10.851562 33.578125 -11.90625 C 34.410156 -12.957031 34.828125 -14.164062 34.828125 -15.53125 C 34.828125 -16.769531 34.46875 -17.816406 33.75 -18.671875 C 33.03125 -19.523438 31.96875 -20.257812 30.5625 -20.875 C 29.15625 -21.488281 27.414062 -22.023438 25.34375 -22.484375 L 19.40625 -23.953125 C 14.625 -25.078125 10.921875 -26.851562 8.296875 -29.28125 C 5.671875 -31.707031 4.359375 -34.898438 4.359375 -38.859375 C 4.359375 -42.148438 5.242188 -45.03125 7.015625 -47.5 C 8.785156 -49.96875 11.210938 -51.890625 14.296875 -53.265625 C 17.390625 -54.640625 20.9375 -55.328125 24.9375 -55.328125 C 28.988281 -55.328125 32.519531 -54.628906 35.53125 -53.234375 C 38.550781 -51.847656 40.90625 -49.910156 42.59375 -47.421875 C 44.28125 -44.929688 45.160156 -42.039062 45.234375 -38.75 L 34.453125 -38.75 C 34.265625 -41.019531 33.320312 -42.785156 31.625 -44.046875 C 29.925781 -45.316406 27.671875 -45.953125 24.859375 -45.953125 C 22.984375 -45.953125 21.359375 -45.675781 19.984375 -45.125 C 18.617188 -44.582031 17.578125 -43.828125 16.859375 -42.859375 C 16.140625 -41.898438 15.78125 -40.796875 15.78125 -39.546875 C 15.78125 -38.253906 16.164062 -37.175781 16.9375 -36.3125 C 17.707031 -35.445312 18.769531 -34.722656 20.125 -34.140625 C 21.476562 -33.566406 23 -33.085938 24.6875 -32.703125 L 29.65625 -31.5 C 32.070312 -30.957031 34.285156 -30.238281 36.296875 -29.34375 C 38.316406 -28.457031 40.054688 -27.378906 41.515625 -26.109375 C 42.984375 -24.835938 44.109375 -23.332031 44.890625 -21.59375 C 45.671875 -19.863281 46.0625 -17.890625 46.0625 -15.671875 C 46.0625 -12.328125 45.21875 -9.414062 43.53125 -6.9375 C 41.851562 -4.457031 39.4375 -2.546875 36.28125 -1.203125 C 33.132812 0.140625 29.34375 0.8125 24.90625 0.8125 Z M 24.90625 0.8125 "/></g></g><g transform="translate(98.759764, 264.578361)"><g><path d="M 22.734375 0.8125 C 18.660156 0.8125 15.128906 -0.0625 12.140625 -1.8125 C 9.148438 -3.5625 6.84375 -6.003906 5.21875 -9.140625 C 3.59375 -12.273438 2.78125 -15.914062 2.78125 -20.0625 C 2.78125 -24.269531 3.59375 -27.941406 5.21875 -31.078125 C 6.84375 -34.210938 9.148438 -36.648438 12.140625 -38.390625 C 15.128906 -40.140625 18.660156 -41.015625 22.734375 -41.015625 C 26.796875 -41.015625 30.320312 -40.140625 33.3125 -38.390625 C 36.300781 -36.648438 38.601562 -34.210938 40.21875 -31.078125 C 41.84375 -27.941406 42.65625 -24.269531 42.65625 -20.0625 C 42.65625 -15.914062 41.84375 -12.273438 40.21875 -9.140625 C 38.601562 -6.003906 36.300781 -3.5625 33.3125 -1.8125 C 30.320312 -0.0625 26.796875 0.8125 22.734375 0.8125 Z M 22.734375 -7.84375 C 24.640625 -7.84375 26.242188 -8.363281 27.546875 -9.40625 C 28.859375 -10.457031 29.851562 -11.90625 30.53125 -13.75 C 31.21875 -15.59375 31.5625 -17.710938 31.5625 -20.109375 C 31.5625 -22.523438 31.21875 -24.644531 30.53125 -26.46875 C 29.851562 -28.300781 28.859375 -29.742188 27.546875 -30.796875 C 26.242188 -31.847656 24.640625 -32.375 22.734375 -32.375 C 20.835938 -32.375 19.226562 -31.847656 17.90625 -30.796875 C 16.59375 -29.742188 15.597656 -28.300781 14.921875 -26.46875 C 14.253906 -24.644531 13.921875 -22.523438 13.921875 -20.109375 C 13.921875 -17.710938 14.253906 -15.59375 14.921875 -13.75 C 15.597656 -11.90625 16.585938 -10.457031 17.890625 -9.40625 C 19.191406 -8.363281 20.804688 -7.84375 22.734375 -7.84375 Z M 22.734375 -7.84375 "/></g></g><g transform="translate(144.206538, 264.578361)"><g><path d="M 22.671875 0.8125 C 18.617188 0.8125 15.101562 -0.0625 12.125 -1.8125 C 9.144531 -3.5625 6.84375 -6.003906 5.21875 -9.140625 C 3.59375 -12.273438 2.78125 -15.914062 2.78125 -20.0625 C 2.78125 -24.238281 3.59375 -27.898438 5.21875 -31.046875 C 6.84375 -34.203125 9.144531 -36.648438 12.125 -38.390625 C 15.101562 -40.140625 18.617188 -41.015625 22.671875 -41.015625 C 25.140625 -41.015625 27.40625 -40.691406 29.46875 -40.046875 C 31.53125 -39.398438 33.351562 -38.460938 34.9375 -37.234375 C 36.519531 -36.015625 37.816406 -34.546875 38.828125 -32.828125 C 39.847656 -31.109375 40.53125 -29.175781 40.875 -27.03125 L 30.609375 -25.5625 C 30.390625 -26.613281 30.0625 -27.550781 29.625 -28.375 C 29.1875 -29.207031 28.632812 -29.921875 27.96875 -30.515625 C 27.3125 -31.117188 26.550781 -31.578125 25.6875 -31.890625 C 24.820312 -32.210938 23.851562 -32.375 22.78125 -32.375 C 20.851562 -32.375 19.234375 -31.859375 17.921875 -30.828125 C 16.617188 -29.804688 15.625 -28.375 14.9375 -26.53125 C 14.257812 -24.6875 13.921875 -22.546875 13.921875 -20.109375 C 13.921875 -17.691406 14.257812 -15.5625 14.9375 -13.71875 C 15.625 -11.875 16.617188 -10.429688 17.921875 -9.390625 C 19.234375 -8.359375 20.851562 -7.84375 22.78125 -7.84375 C 23.851562 -7.84375 24.820312 -8.003906 25.6875 -8.328125 C 26.550781 -8.660156 27.316406 -9.128906 27.984375 -9.734375 C 28.660156 -10.347656 29.222656 -11.085938 29.671875 -11.953125 C 30.128906 -12.816406 30.457031 -13.800781 30.65625 -14.90625 L 40.90625 -13.40625 C 40.59375 -11.226562 39.925781 -9.269531 38.90625 -7.53125 C 37.894531 -5.800781 36.59375 -4.304688 35 -3.046875 C 33.414062 -1.796875 31.582031 -0.835938 29.5 -0.171875 C 27.414062 0.484375 25.140625 0.8125 22.671875 0.8125 Z M 22.671875 0.8125 "/></g></g><g transform="translate(187.785637, 264.578361)"><g><path d="M 4.5 0 L 4.5 -40.4375 L 15.421875 -40.4375 L 15.421875 0 Z M 9.953125 -45.671875 C 8.273438 -45.671875 6.84375 -46.21875 5.65625 -47.3125 C 4.46875 -48.414062 3.875 -49.757812 3.875 -51.34375 C 3.875 -52.925781 4.46875 -54.265625 5.65625 -55.359375 C 6.84375 -56.460938 8.273438 -57.015625 9.953125 -57.015625 C 11.640625 -57.015625 13.066406 -56.460938 14.234375 -55.359375 C 15.410156 -54.265625 16 -52.925781 16 -51.34375 C 16 -49.757812 15.410156 -48.414062 14.234375 -47.3125 C 13.066406 -46.21875 11.640625 -45.671875 9.953125 -45.671875 Z M 9.953125 -45.671875 "/></g></g><g transform="translate(207.707511, 264.578361)"><g><path d="M 22.8125 0.8125 C 18.6875 0.8125 15.128906 -0.0390625 12.140625 -1.75 C 9.148438 -3.46875 6.84375 -5.890625 5.21875 -9.015625 C 3.59375 -12.140625 2.78125 -15.8125 2.78125 -20.03125 C 2.78125 -24.207031 3.585938 -27.863281 5.203125 -31 C 6.816406 -34.132812 9.085938 -36.585938 12.015625 -38.359375 C 14.941406 -40.128906 18.367188 -41.015625 22.296875 -41.015625 C 25.015625 -41.015625 27.53125 -40.570312 29.84375 -39.6875 C 32.164062 -38.8125 34.195312 -37.515625 35.9375 -35.796875 C 37.6875 -34.078125 39.039062 -31.925781 40 -29.34375 C 40.96875 -26.769531 41.453125 -23.800781 41.453125 -20.4375 L 41.453125 -17.390625 L 7.140625 -17.390625 L 7.140625 -24.28125 L 36.140625 -24.28125 L 31.0625 -22.484375 C 31.0625 -24.585938 30.726562 -26.40625 30.0625 -27.9375 C 29.40625 -29.476562 28.4375 -30.671875 27.15625 -31.515625 C 25.875 -32.359375 24.289062 -32.78125 22.40625 -32.78125 C 20.53125 -32.78125 18.929688 -32.351562 17.609375 -31.5 C 16.296875 -30.644531 15.289062 -29.472656 14.59375 -27.984375 C 13.894531 -26.492188 13.546875 -24.785156 13.546875 -22.859375 L 13.546875 -18.015625 C 13.546875 -15.742188 13.9375 -13.8125 14.71875 -12.21875 C 15.5 -10.632812 16.601562 -9.429688 18.03125 -8.609375 C 19.457031 -7.796875 21.125 -7.390625 23.03125 -7.390625 C 24.320312 -7.390625 25.5 -7.578125 26.5625 -7.953125 C 27.625 -8.335938 28.523438 -8.890625 29.265625 -9.609375 C 30.015625 -10.328125 30.585938 -11.210938 30.984375 -12.265625 L 40.90625 -10.84375 C 40.269531 -8.5 39.128906 -6.453125 37.484375 -4.703125 C 35.835938 -2.960938 33.773438 -1.609375 31.296875 -0.640625 C 28.816406 0.328125 25.988281 0.8125 22.8125 0.8125 Z M 22.8125 0.8125 "/></g></g><g transform="translate(251.799305, 264.578361)"><g><path d="M 25.234375 -40.4375 L 25.234375 -32.046875 L 0.703125 -32.046875 L 0.703125 -40.4375 Z M 6.59375 -50.359375 L 17.5 -50.359375 L 17.5 -11.96875 C 17.5 -10.675781 17.785156 -9.726562 18.359375 -9.125 C 18.929688 -8.53125 19.890625 -8.234375 21.234375 -8.234375 C 21.722656 -8.234375 22.351562 -8.273438 23.125 -8.359375 C 23.894531 -8.453125 24.488281 -8.535156 24.90625 -8.609375 L 26.109375 -0.296875 C 25.015625 -0.0234375 23.867188 0.160156 22.671875 0.265625 C 21.472656 0.378906 20.3125 0.4375 19.1875 0.4375 C 15.039062 0.4375 11.90625 -0.519531 9.78125 -2.4375 C 7.65625 -4.351562 6.59375 -7.15625 6.59375 -10.84375 Z M 6.59375 -50.359375 "/></g></g></g><g fill="#ffb300" fill-opacity="1"><g transform="translate(280.986316, 264.578361)"><g><path d="M 4.46875 14.6875 L 6.453125 6.328125 L 8.5625 6.625 C 9.90625 6.914062 11.082031 6.960938 12.09375 6.765625 C 13.113281 6.578125 13.929688 6.125 14.546875 5.40625 C 15.171875 4.6875 15.582031 3.691406 15.78125 2.421875 L 16.265625 0.078125 L 0.984375 -40.4375 L 12.5625 -40.4375 L 19.375 -19.671875 C 20.207031 -17.078125 20.894531 -14.476562 21.4375 -11.875 C 21.988281 -9.28125 22.59375 -6.59375 23.25 -3.8125 L 20.625 -3.8125 C 21.28125 -6.59375 21.9375 -9.289062 22.59375 -11.90625 C 23.25 -14.519531 23.992188 -17.109375 24.828125 -19.671875 L 31.890625 -40.4375 L 43.359375 -40.4375 L 26.03125 5.09375 C 25.207031 7.257812 24.164062 9.125 22.90625 10.6875 C 21.644531 12.25 20.097656 13.445312 18.265625 14.28125 C 16.441406 15.113281 14.234375 15.53125 11.640625 15.53125 C 10.253906 15.53125 8.929688 15.445312 7.671875 15.28125 C 6.410156 15.125 5.34375 14.925781 4.46875 14.6875 Z M 4.46875 14.6875 "/></g></g></g><g fill="#ffffff" fill-opacity="1"><g transform="translate(169.356718, 306.328369)"><g><path d="M 2.109375 0 L 2.109375 -18.1875 L 4.40625 -18.1875 L 4.40625 -2.03125 L 12.90625 -2.03125 L 12.90625 0 Z M 2.109375 0 "/></g></g></g><g fill="#ffffff" fill-opacity="1"><g transform="translate(182.757909, 306.328369)"><g><path d="M 7.28125 -13.484375 L 7.28125 -11.625 L 0.234375 -11.625 L 0.234375 -13.484375 Z M 2.328125 -16.78125 L 4.5 -16.78125 L 4.5 -3.4375 C 4.5 -2.863281 4.617188 -2.441406 4.859375 -2.171875 C 5.097656 -1.910156 5.503906 -1.78125 6.078125 -1.78125 C 6.222656 -1.78125 6.40625 -1.789062 6.625 -1.8125 C 6.84375 -1.84375 7.039062 -1.867188 7.21875 -1.890625 L 7.5625 -0.0625 C 7.34375 0 7.09375 0.046875 6.8125 0.078125 C 6.53125 0.117188 6.253906 0.140625 5.984375 0.140625 C 4.816406 0.140625 3.914062 -0.15625 3.28125 -0.75 C 2.644531 -1.34375 2.328125 -2.179688 2.328125 -3.265625 Z M 2.328125 -16.78125 "/></g></g></g><g fill="#ffffff" fill-opacity="1"><g transform="translate(190.605797, 306.328369)"><g><path d="M 6.921875 0.28125 C 5.785156 0.28125 4.785156 -0.00390625 3.921875 -0.578125 C 3.066406 -1.148438 2.394531 -1.957031 1.90625 -3 C 1.425781 -4.050781 1.1875 -5.289062 1.1875 -6.71875 C 1.1875 -8.132812 1.425781 -9.363281 1.90625 -10.40625 C 2.394531 -11.445312 3.070312 -12.25 3.9375 -12.8125 C 4.800781 -13.382812 5.796875 -13.671875 6.921875 -13.671875 C 7.734375 -13.671875 8.398438 -13.535156 8.921875 -13.265625 C 9.441406 -13.003906 9.851562 -12.691406 10.15625 -12.328125 C 10.46875 -11.972656 10.71875 -11.648438 10.90625 -11.359375 L 11.03125 -11.359375 L 11.03125 -18.1875 L 13.203125 -18.1875 L 13.203125 0 L 11.109375 0 L 11.109375 -2.078125 L 10.90625 -2.078125 C 10.71875 -1.765625 10.46875 -1.425781 10.15625 -1.0625 C 9.84375 -0.695312 9.425781 -0.378906 8.90625 -0.109375 C 8.382812 0.148438 7.722656 0.28125 6.921875 0.28125 Z M 7.234375 -1.65625 C 8.054688 -1.65625 8.753906 -1.867188 9.328125 -2.296875 C 9.898438 -2.722656 10.335938 -3.316406 10.640625 -4.078125 C 10.941406 -4.835938 11.09375 -5.71875 11.09375 -6.71875 C 11.09375 -7.726562 10.941406 -8.601562 10.640625 -9.34375 C 10.347656 -10.09375 9.914062 -10.675781 9.34375 -11.09375 C 8.769531 -11.519531 8.066406 -11.734375 7.234375 -11.734375 C 6.410156 -11.734375 5.707031 -11.515625 5.125 -11.078125 C 4.550781 -10.648438 4.113281 -10.054688 3.8125 -9.296875 C 3.519531 -8.546875 3.375 -7.6875 3.375 -6.71875 C 3.375 -5.757812 3.519531 -4.894531 3.8125 -4.125 C 4.113281 -3.363281 4.550781 -2.757812 5.125 -2.3125 C 5.707031 -1.875 6.410156 -1.65625 7.234375 -1.65625 Z M 7.234375 -1.65625 "/></g></g></g><g fill="#ffffff" fill-opacity="1"><g transform="translate(63.982925, 141.870123)"><g><path d="M 1.828125 -33.140625 L 1.828125 -40.015625 L 34.484375 -40.015625 L 34.484375 -33.140625 L 22.296875 -33.140625 L 22.296875 0 L 14.078125 0 L 14.078125 -33.140625 Z M 1.828125 -33.140625 "/></g></g></g><g fill="#ffffff" fill-opacity="1"><g transform="translate(100.315797, 141.870123)"><g><path d="M 11.3125 -17.03125 L 11.3125 0 L 3.296875 0 L 3.296875 -40.015625 L 11.203125 -40.015625 L 11.203125 -22.1875 L 10.359375 -22.1875 C 11.171875 -24.6875 12.382812 -26.625 14 -28 C 15.625 -29.382812 17.707031 -30.078125 20.25 -30.078125 C 22.3125 -30.078125 24.109375 -29.628906 25.640625 -28.734375 C 27.179688 -27.835938 28.378906 -26.546875 29.234375 -24.859375 C 30.085938 -23.179688 30.515625 -21.160156 30.515625 -18.796875 L 30.515625 0 L 22.484375 0 L 22.484375 -17.375 C 22.484375 -19.257812 22.003906 -20.722656 21.046875 -21.765625 C 20.097656 -22.816406 18.773438 -23.34375 17.078125 -23.34375 C 15.953125 -23.34375 14.953125 -23.09375 14.078125 -22.59375 C 13.210938 -22.101562 12.535156 -21.390625 12.046875 -20.453125 C 11.554688 -19.523438 11.3125 -18.382812 11.3125 -17.03125 Z M 11.3125 -17.03125 "/></g></g></g><g fill="#ffffff" fill-opacity="1"><g transform="translate(134.097575, 141.870123)"><g><path d="M 16.734375 0.59375 C 13.703125 0.59375 11.085938 -0.03125 8.890625 -1.28125 C 6.703125 -2.539062 5.015625 -4.316406 3.828125 -6.609375 C 2.640625 -8.898438 2.046875 -11.59375 2.046875 -14.6875 C 2.046875 -17.75 2.632812 -20.429688 3.8125 -22.734375 C 5 -25.035156 6.664062 -26.832031 8.8125 -28.125 C 10.957031 -29.425781 13.472656 -30.078125 16.359375 -30.078125 C 18.347656 -30.078125 20.191406 -29.753906 21.890625 -29.109375 C 23.585938 -28.460938 25.078125 -27.507812 26.359375 -26.25 C 27.640625 -24.988281 28.632812 -23.410156 29.34375 -21.515625 C 30.050781 -19.628906 30.40625 -17.453125 30.40625 -14.984375 L 30.40625 -12.75 L 5.234375 -12.75 L 5.234375 -17.8125 L 26.5 -17.8125 L 22.78125 -16.484375 C 22.78125 -18.023438 22.535156 -19.359375 22.046875 -20.484375 C 21.566406 -21.617188 20.851562 -22.492188 19.90625 -23.109375 C 18.96875 -23.722656 17.8125 -24.03125 16.4375 -24.03125 C 15.0625 -24.03125 13.890625 -23.71875 12.921875 -23.09375 C 11.953125 -22.46875 11.210938 -21.609375 10.703125 -20.515625 C 10.191406 -19.421875 9.9375 -18.171875 9.9375 -16.765625 L 9.9375 -13.21875 C 9.9375 -11.550781 10.222656 -10.132812 10.796875 -8.96875 C 11.367188 -7.800781 12.175781 -6.914062 13.21875 -6.3125 C 14.269531 -5.71875 15.492188 -5.421875 16.890625 -5.421875 C 17.835938 -5.421875 18.703125 -5.554688 19.484375 -5.828125 C 20.265625 -6.109375 20.925781 -6.515625 21.46875 -7.046875 C 22.019531 -7.578125 22.4375 -8.226562 22.71875 -9 L 30 -7.953125 C 29.53125 -6.234375 28.691406 -4.734375 27.484375 -3.453125 C 26.273438 -2.171875 24.757812 -1.175781 22.9375 -0.46875 C 21.125 0.238281 19.054688 0.59375 16.734375 0.59375 Z M 16.734375 0.59375 "/></g></g></g><g fill="#ffffff" fill-opacity="1"><g transform="translate(166.429261, 141.870123)"><g/></g></g><g fill="#ffffff" fill-opacity="1"><g transform="translate(179.184707, 141.870123)"><g><path d="M 3.46875 0 L 3.46875 -40.015625 L 30.125 -40.015625 L 30.125 -33.140625 L 11.6875 -33.140625 L 11.6875 -22.265625 L 28.46875 -22.265625 L 28.46875 -15.546875 L 11.6875 -15.546875 L 11.6875 0 Z M 3.46875 0 "/></g></g></g><g fill="#ffffff" fill-opacity="1"><g transform="translate(210.093125, 141.870123)"><g><path d="M 16.671875 0.59375 C 13.679688 0.59375 11.085938 -0.046875 8.890625 -1.328125 C 6.703125 -2.609375 5.015625 -4.398438 3.828125 -6.703125 C 2.640625 -9.003906 2.046875 -11.675781 2.046875 -14.71875 C 2.046875 -17.800781 2.640625 -20.488281 3.828125 -22.78125 C 5.015625 -25.082031 6.703125 -26.875 8.890625 -28.15625 C 11.085938 -29.4375 13.679688 -30.078125 16.671875 -30.078125 C 19.648438 -30.078125 22.234375 -29.4375 24.421875 -28.15625 C 26.617188 -26.875 28.3125 -25.082031 29.5 -22.78125 C 30.6875 -20.488281 31.28125 -17.800781 31.28125 -14.71875 C 31.28125 -11.675781 30.6875 -9.003906 29.5 -6.703125 C 28.3125 -4.398438 26.617188 -2.609375 24.421875 -1.328125 C 22.234375 -0.046875 19.648438 0.59375 16.671875 0.59375 Z M 16.671875 -5.75 C 18.066406 -5.75 19.242188 -6.132812 20.203125 -6.90625 C 21.160156 -7.675781 21.890625 -8.734375 22.390625 -10.078125 C 22.898438 -11.429688 23.15625 -12.988281 23.15625 -14.75 C 23.15625 -16.519531 22.898438 -18.078125 22.390625 -19.421875 C 21.890625 -20.765625 21.160156 -21.816406 20.203125 -22.578125 C 19.242188 -23.347656 18.066406 -23.734375 16.671875 -23.734375 C 15.273438 -23.734375 14.09375 -23.347656 13.125 -22.578125 C 12.164062 -21.816406 11.4375 -20.765625 10.9375 -19.421875 C 10.445312 -18.078125 10.203125 -16.519531 10.203125 -14.75 C 10.203125 -12.988281 10.445312 -11.429688 10.9375 -10.078125 C 11.4375 -8.734375 12.164062 -7.675781 13.125 -6.90625 C 14.082031 -6.132812 15.265625 -5.75 16.671875 -5.75 Z M 16.671875 -5.75 "/></g></g></g><g fill="#ffffff" fill-opacity="1"><g transform="translate(243.418399, 141.870123)"><g><path d="M 16.671875 0.59375 C 13.679688 0.59375 11.085938 -0.046875 8.890625 -1.328125 C 6.703125 -2.609375 5.015625 -4.398438 3.828125 -6.703125 C 2.640625 -9.003906 2.046875 -11.675781 2.046875 -14.71875 C 2.046875 -17.800781 2.640625 -20.488281 3.828125 -22.78125 C 5.015625 -25.082031 6.703125 -26.875 8.890625 -28.15625 C 11.085938 -29.4375 13.679688 -30.078125 16.671875 -30.078125 C 19.648438 -30.078125 22.234375 -29.4375 24.421875 -28.15625 C 26.617188 -26.875 28.3125 -25.082031 29.5 -22.78125 C 30.6875 -20.488281 31.28125 -17.800781 31.28125 -14.71875 C 31.28125 -11.675781 30.6875 -9.003906 29.5 -6.703125 C 28.3125 -4.398438 26.617188 -2.609375 24.421875 -1.328125 C 22.234375 -0.046875 19.648438 0.59375 16.671875 0.59375 Z M 16.671875 -5.75 C 18.066406 -5.75 19.242188 -6.132812 20.203125 -6.90625 C 21.160156 -7.675781 21.890625 -8.734375 22.390625 -10.078125 C 22.898438 -11.429688 23.15625 -12.988281 23.15625 -14.75 C 23.15625 -16.519531 22.898438 -18.078125 22.390625 -19.421875 C 21.890625 -20.765625 21.160156 -21.816406 20.203125 -22.578125 C 19.242188 -23.347656 18.066406 -23.734375 16.671875 -23.734375 C 15.273438 -23.734375 14.09375 -23.347656 13.125 -22.578125 C 12.164062 -21.816406 11.4375 -20.765625 10.9375 -19.421875 C 10.445312 -18.078125 10.203125 -16.519531 10.203125 -14.75 C 10.203125 -12.988281 10.445312 -11.429688 10.9375 -10.078125 C 11.4375 -8.734375 12.164062 -7.675781 13.125 -6.90625 C 14.082031 -6.132812 15.265625 -5.75 16.671875 -5.75 Z M 16.671875 -5.75 "/></g></g></g><g fill="#ffffff" fill-opacity="1"><g transform="translate(276.743684, 141.870123)"><g><path d="M 14.28125 0.515625 C 11.9375 0.515625 9.84375 -0.0820312 8 -1.28125 C 6.15625 -2.488281 4.703125 -4.226562 3.640625 -6.5 C 2.578125 -8.769531 2.046875 -11.535156 2.046875 -14.796875 C 2.046875 -18.109375 2.585938 -20.894531 3.671875 -23.15625 C 4.765625 -25.425781 6.234375 -27.144531 8.078125 -28.3125 C 9.921875 -29.488281 11.972656 -30.078125 14.234375 -30.078125 C 15.828125 -30.078125 17.175781 -29.816406 18.28125 -29.296875 C 19.394531 -28.773438 20.3125 -28.113281 21.03125 -27.3125 C 21.757812 -26.519531 22.332031 -25.695312 22.75 -24.84375 L 22.96875 -24.84375 L 22.96875 -40.015625 L 30.96875 -40.015625 L 30.96875 0 L 23.0625 0 L 23.0625 -4.703125 L 22.78125 -4.703125 C 22.363281 -3.835938 21.78125 -3.003906 21.03125 -2.203125 C 20.289062 -1.410156 19.367188 -0.757812 18.265625 -0.25 C 17.171875 0.257812 15.84375 0.515625 14.28125 0.515625 Z M 16.65625 -5.9375 C 18.03125 -5.9375 19.203125 -6.304688 20.171875 -7.046875 C 21.140625 -7.796875 21.878906 -8.832031 22.390625 -10.15625 C 22.910156 -11.476562 23.171875 -13.035156 23.171875 -14.828125 C 23.171875 -16.617188 22.914062 -18.171875 22.40625 -19.484375 C 21.894531 -20.796875 21.148438 -21.816406 20.171875 -22.546875 C 19.203125 -23.273438 18.03125 -23.640625 16.65625 -23.640625 C 15.289062 -23.640625 14.128906 -23.269531 13.171875 -22.53125 C 12.210938 -21.800781 11.488281 -20.769531 11 -19.4375 C 10.507812 -18.113281 10.265625 -16.578125 10.265625 -14.828125 C 10.265625 -13.054688 10.507812 -11.503906 11 -10.171875 C 11.488281 -8.835938 12.210938 -7.796875 13.171875 -7.046875 C 14.128906 -6.304688 15.289062 -5.9375 16.65625 -5.9375 Z M 16.65625 -5.9375 "/></g></g></g><g fill="#ffffff" fill-opacity="1"><g transform="translate(63.799659, 195.17253)"><g><path d="M 11.6875 -40.015625 L 11.6875 0 L 3.46875 0 L 3.46875 -40.015625 Z M 11.6875 -40.015625 "/></g></g></g><g fill="#ffffff" fill-opacity="1"><g transform="translate(78.971927, 195.17253)"><g><path d="M 11.3125 -17.03125 L 11.3125 0 L 3.296875 0 L 3.296875 -29.65625 L 10.9375 -29.65625 L 11.03125 -22.1875 L 10.359375 -22.1875 C 11.171875 -24.6875 12.382812 -26.625 14 -28 C 15.625 -29.382812 17.707031 -30.078125 20.25 -30.078125 C 22.3125 -30.078125 24.109375 -29.628906 25.640625 -28.734375 C 27.179688 -27.835938 28.375 -26.546875 29.21875 -24.859375 C 30.0625 -23.179688 30.484375 -21.160156 30.484375 -18.796875 L 30.484375 0 L 22.484375 0 L 22.484375 -17.375 C 22.484375 -19.257812 22.003906 -20.722656 21.046875 -21.765625 C 20.097656 -22.816406 18.773438 -23.34375 17.078125 -23.34375 C 15.953125 -23.34375 14.953125 -23.09375 14.078125 -22.59375 C 13.210938 -22.101562 12.535156 -21.390625 12.046875 -20.453125 C 11.554688 -19.523438 11.3125 -18.382812 11.3125 -17.03125 Z M 11.3125 -17.03125 "/></g></g></g><g fill="#ffffff" fill-opacity="1"><g transform="translate(111.760094, 195.17253)"><g><path d="M 11.65625 0 L 0.71875 -29.65625 L 9.21875 -29.65625 L 14.1875 -14.421875 C 14.789062 -12.546875 15.320312 -10.648438 15.78125 -8.734375 C 16.25 -6.816406 16.71875 -4.835938 17.1875 -2.796875 L 15.4375 -2.796875 C 15.90625 -4.835938 16.367188 -6.8125 16.828125 -8.71875 C 17.285156 -10.625 17.804688 -12.523438 18.390625 -14.421875 L 23.28125 -29.65625 L 31.6875 -29.65625 L 20.765625 0 Z M 11.65625 0 "/></g></g></g><g fill="#ffffff" fill-opacity="1"><g transform="translate(143.178736, 195.17253)"><g><path d="M 16.734375 0.59375 C 13.703125 0.59375 11.085938 -0.03125 8.890625 -1.28125 C 6.703125 -2.539062 5.015625 -4.316406 3.828125 -6.609375 C 2.640625 -8.898438 2.046875 -11.59375 2.046875 -14.6875 C 2.046875 -17.75 2.632812 -20.429688 3.8125 -22.734375 C 5 -25.035156 6.664062 -26.832031 8.8125 -28.125 C 10.957031 -29.425781 13.472656 -30.078125 16.359375 -30.078125 C 18.347656 -30.078125 20.191406 -29.753906 21.890625 -29.109375 C 23.585938 -28.460938 25.078125 -27.507812 26.359375 -26.25 C 27.640625 -24.988281 28.632812 -23.410156 29.34375 -21.515625 C 30.050781 -19.628906 30.40625 -17.453125 30.40625 -14.984375 L 30.40625 -12.75 L 5.234375 -12.75 L 5.234375 -17.8125 L 26.5 -17.8125 L 22.78125 -16.484375 C 22.78125 -18.023438 22.535156 -19.359375 22.046875 -20.484375 C 21.566406 -21.617188 20.851562 -22.492188 19.90625 -23.109375 C 18.96875 -23.722656 17.8125 -24.03125 16.4375 -24.03125 C 15.0625 -24.03125 13.890625 -23.71875 12.921875 -23.09375 C 11.953125 -22.46875 11.210938 -21.609375 10.703125 -20.515625 C 10.191406 -19.421875 9.9375 -18.171875 9.9375 -16.765625 L 9.9375 -13.21875 C 9.9375 -11.550781 10.222656 -10.132812 10.796875 -8.96875 C 11.367188 -7.800781 12.175781 -6.914062 13.21875 -6.3125 C 14.269531 -5.71875 15.492188 -5.421875 16.890625 -5.421875 C 17.835938 -5.421875 18.703125 -5.554688 19.484375 -5.828125 C 20.265625 -6.109375 20.925781 -6.515625 21.46875 -7.046875 C 22.019531 -7.578125 22.4375 -8.226562 22.71875 -9 L 30 -7.953125 C 29.53125 -6.234375 28.691406 -4.734375 27.484375 -3.453125 C 26.273438 -2.171875 24.757812 -1.175781 22.9375 -0.46875 C 21.125 0.238281 19.054688 0.59375 16.734375 0.59375 Z M 16.734375 0.59375 "/></g></g></g><g fill="#ffffff" fill-opacity="1"><g transform="translate(175.510422, 195.17253)"><g><path d="M 15.171875 0.625 C 12.753906 0.625 10.609375 0.269531 8.734375 -0.4375 C 6.867188 -1.144531 5.347656 -2.171875 4.171875 -3.515625 C 3.003906 -4.859375 2.265625 -6.472656 1.953125 -8.359375 L 9.5 -9.375 C 9.84375 -8.007812 10.5 -6.976562 11.46875 -6.28125 C 12.4375 -5.582031 13.722656 -5.234375 15.328125 -5.234375 C 16.859375 -5.234375 18.0625 -5.523438 18.9375 -6.109375 C 19.8125 -6.691406 20.25 -7.429688 20.25 -8.328125 C 20.25 -9.097656 19.929688 -9.726562 19.296875 -10.21875 C 18.660156 -10.707031 17.707031 -11.085938 16.4375 -11.359375 L 11.3125 -12.375 C 8.445312 -12.96875 6.296875 -13.972656 4.859375 -15.390625 C 3.429688 -16.804688 2.71875 -18.628906 2.71875 -20.859375 C 2.71875 -22.742188 3.226562 -24.375 4.25 -25.75 C 5.28125 -27.132812 6.726562 -28.203125 8.59375 -28.953125 C 10.46875 -29.703125 12.660156 -30.078125 15.171875 -30.078125 C 17.566406 -30.078125 19.640625 -29.734375 21.390625 -29.046875 C 23.148438 -28.367188 24.5625 -27.40625 25.625 -26.15625 C 26.695312 -24.90625 27.375 -23.425781 27.65625 -21.71875 L 20.484375 -20.734375 C 20.234375 -21.785156 19.675781 -22.644531 18.8125 -23.3125 C 17.945312 -23.988281 16.785156 -24.328125 15.328125 -24.328125 C 13.992188 -24.328125 12.890625 -24.046875 12.015625 -23.484375 C 11.148438 -22.921875 10.71875 -22.191406 10.71875 -21.296875 C 10.71875 -20.546875 11.007812 -19.914062 11.59375 -19.40625 C 12.1875 -18.894531 13.15625 -18.503906 14.5 -18.234375 L 19.875 -17.15625 C 22.769531 -16.582031 24.921875 -15.632812 26.328125 -14.3125 C 27.734375 -12.988281 28.4375 -11.257812 28.4375 -9.125 C 28.4375 -7.175781 27.875 -5.472656 26.75 -4.015625 C 25.625 -2.554688 24.0625 -1.414062 22.0625 -0.59375 C 20.0625 0.21875 17.765625 0.625 15.171875 0.625 Z M 15.171875 0.625 "/></g></g></g><g fill="#ffffff" fill-opacity="1"><g transform="translate(205.935511, 195.17253)"><g><path d="M 18.5 -29.65625 L 18.5 -23.5 L 0.515625 -23.5 L 0.515625 -29.65625 Z M 4.828125 -36.921875 L 12.84375 -36.921875 L 12.84375 -8.78125 C 12.84375 -7.832031 13.050781 -7.140625 13.46875 -6.703125 C 13.882812 -6.265625 14.585938 -6.046875 15.578125 -6.046875 C 15.929688 -6.046875 16.390625 -6.078125 16.953125 -6.140625 C 17.523438 -6.203125 17.960938 -6.257812 18.265625 -6.3125 L 19.140625 -0.21875 C 18.335938 -0.0195312 17.5 0.117188 16.625 0.203125 C 15.75 0.285156 14.898438 0.328125 14.078125 0.328125 C 11.023438 0.328125 8.71875 -0.375 7.15625 -1.78125 C 5.601562 -3.1875 4.828125 -5.242188 4.828125 -7.953125 Z M 4.828125 -36.921875 "/></g></g></g><g fill="#ffffff" fill-opacity="1"><g transform="translate(225.592305, 195.17253)"><g><path d="M 16.671875 0.59375 C 13.679688 0.59375 11.085938 -0.046875 8.890625 -1.328125 C 6.703125 -2.609375 5.015625 -4.398438 3.828125 -6.703125 C 2.640625 -9.003906 2.046875 -11.675781 2.046875 -14.71875 C 2.046875 -17.800781 2.640625 -20.488281 3.828125 -22.78125 C 5.015625 -25.082031 6.703125 -26.875 8.890625 -28.15625 C 11.085938 -29.4375 13.679688 -30.078125 16.671875 -30.078125 C 19.648438 -30.078125 22.234375 -29.4375 24.421875 -28.15625 C 26.617188 -26.875 28.3125 -25.082031 29.5 -22.78125 C 30.6875 -20.488281 31.28125 -17.800781 31.28125 -14.71875 C 31.28125 -11.675781 30.6875 -9.003906 29.5 -6.703125 C 28.3125 -4.398438 26.617188 -2.609375 24.421875 -1.328125 C 22.234375 -0.046875 19.648438 0.59375 16.671875 0.59375 Z M 16.671875 -5.75 C 18.066406 -5.75 19.242188 -6.132812 20.203125 -6.90625 C 21.160156 -7.675781 21.890625 -8.734375 22.390625 -10.078125 C 22.898438 -11.429688 23.15625 -12.988281 23.15625 -14.75 C 23.15625 -16.519531 22.898438 -18.078125 22.390625 -19.421875 C 21.890625 -20.765625 21.160156 -21.816406 20.203125 -22.578125 C 19.242188 -23.347656 18.066406 -23.734375 16.671875 -23.734375 C 15.273438 -23.734375 14.09375 -23.347656 13.125 -22.578125 C 12.164062 -21.816406 11.4375 -20.765625 10.9375 -19.421875 C 10.445312 -18.078125 10.203125 -16.519531 10.203125 -14.75 C 10.203125 -12.988281 10.445312 -11.429688 10.9375 -10.078125 C 11.4375 -8.734375 12.164062 -7.675781 13.125 -6.90625 C 14.082031 -6.132812 15.265625 -5.75 16.671875 -5.75 Z M 16.671875 -5.75 "/></g></g></g><g fill="#ffffff" fill-opacity="1"><g transform="translate(258.917567, 195.17253)"><g><path d="M 3.296875 0 L 3.296875 -29.65625 L 11.0625 -29.65625 L 11.0625 -24.515625 L 11.328125 -24.515625 C 11.867188 -26.328125 12.765625 -27.691406 14.015625 -28.609375 C 15.273438 -29.535156 16.765625 -30 18.484375 -30 C 18.910156 -30 19.351562 -29.976562 19.8125 -29.9375 C 20.28125 -29.90625 20.6875 -29.851562 21.03125 -29.78125 L 21.03125 -22.6875 C 20.6875 -22.800781 20.175781 -22.890625 19.5 -22.953125 C 18.832031 -23.015625 18.1875 -23.046875 17.5625 -23.046875 C 16.382812 -23.046875 15.316406 -22.785156 14.359375 -22.265625 C 13.398438 -21.742188 12.648438 -21.007812 12.109375 -20.0625 C 11.578125 -19.113281 11.3125 -17.992188 11.3125 -16.703125 L 11.3125 0 Z M 3.296875 0 "/></g></g></g><g fill="#ffffff" fill-opacity="1"><g transform="translate(280.910638, 195.17253)"><g><path d="M 15.171875 0.625 C 12.753906 0.625 10.609375 0.269531 8.734375 -0.4375 C 6.867188 -1.144531 5.347656 -2.171875 4.171875 -3.515625 C 3.003906 -4.859375 2.265625 -6.472656 1.953125 -8.359375 L 9.5 -9.375 C 9.84375 -8.007812 10.5 -6.976562 11.46875 -6.28125 C 12.4375 -5.582031 13.722656 -5.234375 15.328125 -5.234375 C 16.859375 -5.234375 18.0625 -5.523438 18.9375 -6.109375 C 19.8125 -6.691406 20.25 -7.429688 20.25 -8.328125 C 20.25 -9.097656 19.929688 -9.726562 19.296875 -10.21875 C 18.660156 -10.707031 17.707031 -11.085938 16.4375 -11.359375 L 11.3125 -12.375 C 8.445312 -12.96875 6.296875 -13.972656 4.859375 -15.390625 C 3.429688 -16.804688 2.71875 -18.628906 2.71875 -20.859375 C 2.71875 -22.742188 3.226562 -24.375 4.25 -25.75 C 5.28125 -27.132812 6.726562 -28.203125 8.59375 -28.953125 C 10.46875 -29.703125 12.660156 -30.078125 15.171875 -30.078125 C 17.566406 -30.078125 19.640625 -29.734375 21.390625 -29.046875 C 23.148438 -28.367188 24.5625 -27.40625 25.625 -26.15625 C 26.695312 -24.90625 27.375 -23.425781 27.65625 -21.71875 L 20.484375 -20.734375 C 20.234375 -21.785156 19.675781 -22.644531 18.8125 -23.3125 C 17.945312 -23.988281 16.785156 -24.328125 15.328125 -24.328125 C 13.992188 -24.328125 12.890625 -24.046875 12.015625 -23.484375 C 11.148438 -22.921875 10.71875 -22.191406 10.71875 -21.296875 C 10.71875 -20.546875 11.007812 -19.914062 11.59375 -19.40625 C 12.1875 -18.894531 13.15625 -18.503906 14.5 -18.234375 L 19.875 -17.15625 C 22.769531 -16.582031 24.921875 -15.632812 26.328125 -14.3125 C 27.734375 -12.988281 28.4375 -11.257812 28.4375 -9.125 C 28.4375 -7.175781 27.875 -5.472656 26.75 -4.015625 C 25.625 -2.554688 24.0625 -1.414062 22.0625 -0.59375 C 20.0625 0.21875 17.765625 0.625 15.171875 0.625 Z M 15.171875 0.625 "/></g></g></g></svg>