<svg xmlns="http://www.w3.org/2000/svg" xmlns:xlink="http://www.w3.org/1999/xlink" width="500" zoomAndPan="magnify" viewBox="0 0 375 374.999991" height="500" preserveAspectRatio="xMidYMid meet" version="1.0"><defs><g/><clipPath id="bfda4661a0"><path d="M 33.75 0 L 341.25 0 C 359.890625 0 375 15.109375 375 33.75 L 375 341.25 C 375 359.890625 359.890625 375 341.25 375 L 33.75 375 C 15.109375 375 0 359.890625 0 341.25 L 0 33.75 C 0 15.109375 15.109375 0 33.75 0 Z M 33.75 0 " clip-rule="nonzero"/></clipPath><clipPath id="fa63e6387b"><path d="M 0 0 L 375 0 L 375 375 L 0 375 Z M 0 0 " clip-rule="nonzero"/></clipPath><clipPath id="0ef03d01b8"><path d="M 33.75 0 L 341.25 0 C 359.890625 0 375 15.109375 375 33.75 L 375 341.25 C 375 359.890625 359.890625 375 341.25 375 L 33.75 375 C 15.109375 375 0 359.890625 0 341.25 L 0 33.75 C 0 15.109375 15.109375 0 33.75 0 Z M 33.75 0 " clip-rule="nonzero"/></clipPath><clipPath id="90af7b6d2a"><rect x="0" width="375" y="0" height="375"/></clipPath><clipPath id="f2719b2443"><rect x="0" width="336" y="0" height="375"/></clipPath></defs><g clip-path="url(#bfda4661a0)"><g transform="matrix(1, 0, 0, 1, 0, 0)"><g clip-path="url(#90af7b6d2a)"><g clip-path="url(#fa63e6387b)"><g clip-path="url(#0ef03d01b8)"><rect x="-82.5" width="540" fill="#73ff00" height="539.999987" y="-82.499998" fill-opacity="1"/></g></g></g></g></g><g transform="matrix(1, 0, 0, 1, 28, 0)"><g clip-path="url(#f2719b2443)"><g fill="#000000" fill-opacity="1"><g transform="translate(1.028441, 338.054342)"><g><path d="M 22.796875 0 L 22.796875 -204.609375 L 78.03125 -204.609375 L 78.03125 0 Z M 50.40625 -231.109375 C 41.875 -231.109375 34.613281 -233.890625 28.625 -239.453125 C 22.632812 -245.015625 19.640625 -251.8125 19.640625 -259.84375 C 19.640625 -267.875 22.632812 -274.664062 28.625 -280.21875 C 34.613281 -285.78125 41.875 -288.5625 50.40625 -288.5625 C 58.925781 -288.5625 66.148438 -285.78125 72.078125 -280.21875 C 78.015625 -274.664062 80.984375 -267.875 80.984375 -259.84375 C 80.984375 -251.8125 78.015625 -245.015625 72.078125 -239.453125 C 66.148438 -233.890625 58.925781 -231.109375 50.40625 -231.109375 Z M 50.40625 -231.109375 "/></g></g></g><g fill="#000000" fill-opacity="1"><g transform="translate(101.851275, 338.054342)"><g><path d="M 78.03125 -117.5 L 78.03125 0 L 22.796875 0 L 22.796875 -204.609375 L 75.4375 -204.609375 L 76.171875 -153.078125 L 71.53125 -153.078125 C 77.09375 -170.378906 85.460938 -183.785156 96.640625 -193.296875 C 107.828125 -202.816406 122.191406 -207.578125 139.734375 -207.578125 C 153.941406 -207.578125 166.359375 -204.488281 176.984375 -198.3125 C 187.617188 -192.132812 195.835938 -183.238281 201.640625 -171.625 C 207.453125 -160.007812 210.359375 -146.046875 210.359375 -129.734375 L 210.359375 0 L 155.125 0 L 155.125 -119.90625 C 155.125 -132.882812 151.847656 -142.984375 145.296875 -150.203125 C 138.753906 -157.429688 129.613281 -161.046875 117.875 -161.046875 C 110.09375 -161.046875 103.203125 -159.347656 97.203125 -155.953125 C 91.210938 -152.554688 86.519531 -147.644531 83.125 -141.21875 C 79.726562 -134.800781 78.03125 -126.894531 78.03125 -117.5 Z M 78.03125 -117.5 "/></g></g></g></g></g></svg>