<svg xmlns="http://www.w3.org/2000/svg" xmlns:xlink="http://www.w3.org/1999/xlink" width="500" zoomAndPan="magnify" viewBox="0 0 375 374.999991" height="500" preserveAspectRatio="xMidYMid meet" version="1.0"><defs><clipPath id="db1275ba67"><path d="M 33.75 0 L 341.25 0 C 359.890625 0 375 15.109375 375 33.75 L 375 341.25 C 375 359.890625 359.890625 375 341.25 375 L 33.75 375 C 15.109375 375 0 359.890625 0 341.25 L 0 33.75 C 0 15.109375 15.109375 0 33.75 0 Z M 33.75 0 " clip-rule="nonzero"/></clipPath><clipPath id="236f522158"><path d="M 33.75 0 L 341.25 0 C 359.890625 0 375 15.109375 375 33.75 L 375 341.25 C 375 359.890625 359.890625 375 341.25 375 L 33.75 375 C 15.109375 375 0 359.890625 0 341.25 L 0 33.75 C 0 15.109375 15.109375 0 33.75 0 Z M 33.75 0 " clip-rule="nonzero"/></clipPath></defs><g clip-path="url(#db1275ba67)"><g clip-path="url(#236f522158)"><rect x="-37.5" width="450" fill="#ffb300" y="-37.499999" height="449.999989" fill-opacity="1"/></g></g><path fill="#000000" d="M 51.824219 338.054688 L 51.824219 133.445312 L 107.058594 133.445312 L 107.058594 338.054688 Z M 79.433594 106.945312 C 70.902344 106.945312 63.640625 104.164062 57.652344 98.601562 C 51.660156 93.039062 48.667969 86.242188 48.667969 78.210938 C 48.667969 70.179688 51.660156 63.390625 57.652344 57.835938 C 63.640625 52.273438 70.902344 49.492188 79.433594 49.492188 C 87.953125 49.492188 95.175781 52.273438 101.105469 57.835938 C 107.042969 63.390625 110.011719 70.179688 110.011719 78.210938 C 110.011719 86.242188 107.042969 93.039062 101.105469 98.601562 C 95.175781 104.164062 87.953125 106.945312 79.433594 106.945312 Z M 79.433594 106.945312 " fill-opacity="1" fill-rule="nonzero"/><path fill="#000000" d="M 207.882812 220.554688 L 207.882812 338.054688 L 152.648438 338.054688 L 152.648438 133.445312 L 205.289062 133.445312 L 206.023438 184.976562 L 201.382812 184.976562 C 206.945312 167.675781 215.3125 154.269531 226.492188 144.757812 C 237.679688 135.238281 252.042969 130.476562 269.585938 130.476562 C 283.792969 130.476562 296.210938 133.566406 306.835938 139.742188 C 317.46875 145.921875 325.6875 154.816406 331.492188 166.429688 C 337.304688 178.046875 340.210938 192.007812 340.210938 208.320312 L 340.210938 338.054688 L 284.976562 338.054688 L 284.976562 218.148438 C 284.976562 205.171875 281.699219 195.070312 275.148438 187.851562 C 268.605469 180.625 259.464844 177.007812 247.726562 177.007812 C 239.945312 177.007812 233.054688 178.707031 227.054688 182.101562 C 221.0625 185.5 216.371094 190.410156 212.976562 196.835938 C 209.578125 203.253906 207.882812 211.160156 207.882812 220.554688 Z M 207.882812 220.554688 " fill-opacity="1" fill-rule="nonzero"/></svg>