<svg xmlns="http://www.w3.org/2000/svg" xmlns:xlink="http://www.w3.org/1999/xlink" width="500" zoomAndPan="magnify" viewBox="0 0 375 374.999991" height="500" preserveAspectRatio="xMidYMid meet" version="1.0"><defs><clipPath id="0c5b2fe5e3"><path d="M 187.5 0 C 83.945312 0 0 83.945312 0 187.5 C 0 291.054688 83.945312 375 187.5 375 C 291.054688 375 375 291.054688 375 187.5 C 375 83.945312 291.054688 0 187.5 0 Z M 187.5 0 " clip-rule="nonzero"/></clipPath><clipPath id="abeca5a19c"><path d="M 0 0 L 375 0 L 375 375 L 0 375 Z M 0 0 " clip-rule="nonzero"/></clipPath><clipPath id="61c9aa00dd"><path d="M 187.5 0 C 83.945312 0 0 83.945312 0 187.5 C 0 291.054688 83.945312 375 187.5 375 C 291.054688 375 375 291.054688 375 187.5 C 375 83.945312 291.054688 0 187.5 0 Z M 187.5 0 " clip-rule="nonzero"/></clipPath><clipPath id="7efef1aba1"><rect x="0" width="375" y="0" height="375"/></clipPath><clipPath id="c01c17891d"><path d="M 5.914062 5.914062 L 369.664062 5.914062 L 369.664062 369.664062 L 5.914062 369.664062 Z M 5.914062 5.914062 " clip-rule="nonzero"/></clipPath></defs><g clip-path="url(#0c5b2fe5e3)"><g transform="matrix(1, 0, 0, 1, 0, 0)"><g clip-path="url(#7efef1aba1)"><g clip-path="url(#abeca5a19c)"><g clip-path="url(#61c9aa00dd)"><rect x="-82.5" width="540" fill="#fe2c55" height="539.999987" y="-82.499998" fill-opacity="1"/></g></g></g></g></g><g clip-path="url(#c01c17891d)"><path fill="#000000" d="M 369.726562 187.820312 C 369.726562 190.796875 369.65625 193.773438 369.507812 196.746094 C 369.363281 199.71875 369.144531 202.6875 368.851562 205.652344 C 368.5625 208.613281 368.195312 211.566406 367.757812 214.511719 C 367.324219 217.457031 366.8125 220.390625 366.234375 223.308594 C 365.652344 226.230469 365 229.132812 364.277344 232.019531 C 363.554688 234.910156 362.757812 237.777344 361.894531 240.625 C 361.03125 243.476562 360.097656 246.300781 359.09375 249.105469 C 358.09375 251.90625 357.019531 254.683594 355.882812 257.433594 C 354.742188 260.183594 353.535156 262.90625 352.261719 265.597656 C 350.992188 268.289062 349.652344 270.945312 348.25 273.570312 C 346.84375 276.195312 345.378906 278.785156 343.847656 281.339844 C 342.316406 283.894531 340.726562 286.40625 339.070312 288.882812 C 337.417969 291.359375 335.703125 293.792969 333.929688 296.183594 C 332.15625 298.574219 330.324219 300.921875 328.4375 303.222656 C 326.546875 305.523438 324.605469 307.777344 322.605469 309.984375 C 320.605469 312.1875 318.554688 314.34375 316.449219 316.449219 C 314.34375 318.554688 312.1875 320.605469 309.984375 322.605469 C 307.777344 324.605469 305.523438 326.546875 303.222656 328.4375 C 300.921875 330.324219 298.574219 332.15625 296.183594 333.929688 C 293.792969 335.703125 291.359375 337.417969 288.882812 339.070312 C 286.40625 340.726562 283.894531 342.316406 281.339844 343.847656 C 278.785156 345.378906 276.195312 346.84375 273.570312 348.25 C 270.945312 349.652344 268.289062 350.992188 265.597656 352.261719 C 262.90625 353.535156 260.183594 354.742188 257.433594 355.882812 C 254.683594 357.019531 251.90625 358.089844 249.105469 359.09375 C 246.300781 360.097656 243.476562 361.03125 240.625 361.894531 C 237.777344 362.757812 234.910156 363.554688 232.019531 364.277344 C 229.132812 365 226.230469 365.652344 223.308594 366.234375 C 220.390625 366.8125 217.457031 367.324219 214.511719 367.757812 C 211.566406 368.195312 208.613281 368.5625 205.652344 368.851562 C 202.6875 369.144531 199.71875 369.363281 196.746094 369.507812 C 193.773438 369.65625 190.796875 369.726562 187.820312 369.726562 C 184.84375 369.726562 181.867188 369.65625 178.894531 369.507812 C 175.921875 369.363281 172.953125 369.144531 169.992188 368.851562 C 167.027344 368.5625 164.074219 368.195312 161.128906 367.757812 C 158.183594 367.324219 155.253906 366.8125 152.332031 366.234375 C 149.414062 365.652344 146.507812 365 143.621094 364.277344 C 140.734375 363.554688 137.863281 362.757812 135.015625 361.894531 C 132.167969 361.03125 129.339844 360.097656 126.539062 359.09375 C 123.734375 358.089844 120.957031 357.019531 118.207031 355.882812 C 115.457031 354.742188 112.738281 353.535156 110.046875 352.261719 C 107.355469 350.992188 104.695312 349.652344 102.070312 348.25 C 99.445312 346.84375 96.855469 345.378906 94.300781 343.847656 C 91.75 342.316406 89.234375 340.726562 86.757812 339.070312 C 84.285156 337.417969 81.851562 335.703125 79.457031 333.929688 C 77.066406 332.15625 74.722656 330.324219 72.421875 328.4375 C 70.117188 326.546875 67.867188 324.605469 65.660156 322.605469 C 63.453125 320.605469 61.296875 318.554688 59.191406 316.449219 C 57.089844 314.34375 55.035156 312.1875 53.035156 309.984375 C 51.039062 307.777344 49.09375 305.523438 47.203125 303.222656 C 45.316406 300.921875 43.484375 298.574219 41.710938 296.183594 C 39.9375 293.792969 38.222656 291.359375 36.570312 288.882812 C 34.917969 286.40625 33.324219 283.894531 31.792969 281.339844 C 30.261719 278.785156 28.796875 276.195312 27.394531 273.570312 C 25.988281 270.945312 24.652344 268.289062 23.378906 265.597656 C 22.105469 262.90625 20.898438 260.183594 19.761719 257.433594 C 18.621094 254.683594 17.550781 251.90625 16.546875 249.105469 C 15.542969 246.300781 14.609375 243.476562 13.746094 240.625 C 12.882812 237.777344 12.089844 234.910156 11.367188 232.019531 C 10.640625 229.132812 9.988281 226.230469 9.410156 223.308594 C 8.828125 220.390625 8.320312 217.457031 7.882812 214.511719 C 7.445312 211.566406 7.082031 208.613281 6.789062 205.652344 C 6.496094 202.6875 6.277344 199.71875 6.132812 196.746094 C 5.988281 193.773438 5.914062 190.796875 5.914062 187.820312 C 5.914062 184.84375 5.988281 181.867188 6.132812 178.894531 C 6.277344 175.921875 6.496094 172.953125 6.789062 169.992188 C 7.082031 167.027344 7.445312 164.074219 7.882812 161.128906 C 8.320312 158.183594 8.828125 155.253906 9.410156 152.332031 C 9.988281 149.414062 10.640625 146.507812 11.367188 143.621094 C 12.089844 140.734375 12.882812 137.863281 13.746094 135.015625 C 14.609375 132.167969 15.542969 129.339844 16.546875 126.539062 C 17.550781 123.734375 18.621094 120.957031 19.761719 118.207031 C 20.898438 115.457031 22.105469 112.738281 23.378906 110.046875 C 24.652344 107.355469 25.988281 104.695312 27.394531 102.070312 C 28.796875 99.445312 30.261719 96.855469 31.792969 94.300781 C 33.324219 91.75 34.917969 89.234375 36.570312 86.757812 C 38.222656 84.285156 39.9375 81.851562 41.710938 79.457031 C 43.484375 77.066406 45.316406 74.722656 47.203125 72.421875 C 49.09375 70.117188 51.039062 67.867188 53.035156 65.660156 C 55.035156 63.453125 57.089844 61.296875 59.191406 59.191406 C 61.296875 57.089844 63.453125 55.035156 65.660156 53.035156 C 67.867188 51.039062 70.117188 49.09375 72.421875 47.203125 C 74.722656 45.316406 77.066406 43.484375 79.457031 41.710938 C 81.851562 39.9375 84.285156 38.222656 86.757812 36.570312 C 89.234375 34.917969 91.75 33.324219 94.300781 31.792969 C 96.855469 30.261719 99.445312 28.796875 102.070312 27.394531 C 104.695312 25.988281 107.355469 24.652344 110.046875 23.378906 C 112.738281 22.105469 115.457031 20.898438 118.207031 19.761719 C 120.957031 18.621094 123.734375 17.550781 126.539062 16.546875 C 129.339844 15.542969 132.167969 14.609375 135.015625 13.746094 C 137.863281 12.882812 140.734375 12.089844 143.621094 11.367188 C 146.507812 10.640625 149.414062 9.988281 152.332031 9.410156 C 155.253906 8.828125 158.183594 8.320312 161.128906 7.882812 C 164.074219 7.445312 167.027344 7.082031 169.992188 6.789062 C 172.953125 6.496094 175.921875 6.277344 178.894531 6.132812 C 181.867188 5.988281 184.84375 5.914062 187.820312 5.914062 C 190.796875 5.914062 193.773438 5.988281 196.746094 6.132812 C 199.71875 6.277344 202.6875 6.496094 205.652344 6.789062 C 208.613281 7.082031 211.566406 7.445312 214.511719 7.882812 C 217.457031 8.320312 220.390625 8.828125 223.308594 9.410156 C 226.230469 9.988281 229.132812 10.640625 232.019531 11.367188 C 234.910156 12.089844 237.777344 12.882812 240.625 13.746094 C 243.476562 14.609375 246.300781 15.542969 249.105469 16.546875 C 251.90625 17.550781 254.683594 18.621094 257.433594 19.761719 C 260.183594 20.898438 262.90625 22.105469 265.597656 23.378906 C 268.289062 24.652344 270.945312 25.988281 273.570312 27.394531 C 276.195312 28.796875 278.785156 30.261719 281.339844 31.792969 C 283.894531 33.324219 286.40625 34.917969 288.882812 36.570312 C 291.359375 38.222656 293.792969 39.9375 296.183594 41.710938 C 298.574219 43.484375 300.921875 45.316406 303.222656 47.203125 C 305.523438 49.09375 307.777344 51.039062 309.984375 53.035156 C 312.1875 55.035156 314.34375 57.089844 316.449219 59.191406 C 318.554688 61.296875 320.605469 63.453125 322.605469 65.660156 C 324.605469 67.867188 326.546875 70.117188 328.4375 72.421875 C 330.324219 74.722656 332.15625 77.066406 333.929688 79.457031 C 335.703125 81.851562 337.417969 84.285156 339.070312 86.757812 C 340.726562 89.234375 342.316406 91.75 343.847656 94.300781 C 345.378906 96.855469 346.84375 99.445312 348.25 102.070312 C 349.652344 104.695312 350.992188 107.355469 352.261719 110.046875 C 353.535156 112.738281 354.742188 115.457031 355.882812 118.207031 C 357.019531 120.957031 358.09375 123.734375 359.09375 126.539062 C 360.097656 129.339844 361.03125 132.167969 361.894531 135.015625 C 362.757812 137.863281 363.554688 140.734375 364.277344 143.621094 C 365 146.507812 365.652344 149.414062 366.234375 152.332031 C 366.8125 155.253906 367.324219 158.183594 367.757812 161.128906 C 368.195312 164.074219 368.5625 167.027344 368.851562 169.992188 C 369.144531 172.953125 369.363281 175.921875 369.507812 178.894531 C 369.65625 181.867188 369.726562 184.84375 369.726562 187.820312 Z M 369.726562 187.820312 " fill-opacity="1" fill-rule="nonzero"/></g><path fill="#25f4ee" d="M 163.671875 161.816406 L 163.671875 151.945312 C 160.363281 151.496094 157.003906 151.21875 153.578125 151.21875 C 112.277344 151.21875 78.679688 184.816406 78.679688 226.117188 C 78.679688 251.460938 91.34375 273.878906 110.660156 287.449219 C 98.191406 274.058594 90.792969 256.128906 90.792969 236.441406 C 90.792969 195.734375 123.195312 162.753906 163.671875 161.816406 Z M 163.671875 161.816406 " fill-opacity="1" fill-rule="nonzero"/><path fill="#25f4ee" d="M 165.433594 270.859375 C 183.863281 270.859375 199.113281 255.984375 199.789062 237.730469 L 199.953125 74.867188 L 229.476562 74.867188 C 229.476562 74.867188 229.429688 74.640625 229.429688 74.640625 C 228.816406 71.296875 228.476562 67.839844 228.476562 64.320312 L 187.789062 64.320312 L 187.722656 227.410156 C 187.046875 245.679688 172.007812 260.328125 153.578125 260.328125 C 147.84375 260.328125 142.464844 258.890625 137.714844 256.402344 C 143.933594 265.011719 154.03125 270.875 165.449219 270.875 Z M 165.433594 270.859375 " fill-opacity="1" fill-rule="nonzero"/><path fill="#25f4ee" d="M 285.105469 130.464844 L 285.105469 120.902344 C 273.734375 120.902344 263.15625 117.527344 254.273438 111.726562 C 262.171875 120.804688 272.910156 127.847656 285.105469 130.449219 Z M 285.105469 130.464844 " fill-opacity="1" fill-rule="nonzero"/><path fill="#fe2c55" d="M 254.273438 111.742188 C 245.613281 101.792969 240.347656 88.824219 240.347656 74.625 L 229.269531 74.625 C 232.144531 90.132812 241.527344 103.441406 254.273438 111.742188 Z M 254.273438 111.742188 " fill-opacity="1" fill-rule="nonzero"/><path fill="#fe2c55" d="M 153.578125 191.585938 C 134.710938 191.585938 119.140625 207.234375 119.140625 226.101562 C 119.140625 239.234375 126.8125 250.652344 137.699219 256.386719 C 133.644531 250.765625 131.222656 243.886719 131.222656 236.441406 C 131.222656 217.574219 146.566406 202.230469 165.433594 202.230469 C 168.957031 202.230469 172.332031 202.808594 175.527344 203.8125 L 175.527344 162.269531 C 172.21875 161.816406 168.859375 161.542969 165.433594 161.542969 C 164.835938 161.542969 164.253906 161.574219 163.671875 161.589844 L 163.511719 161.589844 C 163.511719 161.589844 163.398438 193.039062 163.398438 193.039062 C 160.199219 192.035156 157.097656 191.601562 153.578125 191.601562 Z M 153.578125 191.585938 " fill-opacity="1" fill-rule="nonzero"/><path fill="#fe2c55" d="M 285.105469 129.980469 L 284.914062 129.949219 L 284.914062 161.363281 C 263.800781 161.363281 244.191406 154.417969 228.234375 142.964844 L 228.234375 226.101562 C 228.234375 267.402344 194.878906 300.789062 153.578125 300.789062 C 137.621094 300.789062 122.824219 295.960938 110.644531 287.417969 C 124.328125 302.097656 143.820312 311.320312 165.433594 311.320312 C 206.734375 311.320312 240.332031 277.726562 240.332031 236.421875 L 240.332031 153.722656 C 256.289062 165.175781 275.851562 171.925781 296.945312 171.925781 L 296.945312 131.238281 C 292.875 131.238281 288.917969 130.804688 285.089844 129.980469 Z M 285.105469 129.980469 " fill-opacity="1" fill-rule="nonzero"/><path fill="#ffffff" d="M 228.476562 226.101562 L 228.476562 143.402344 C 244.433594 154.855469 263.996094 161.605469 285.089844 161.605469 L 285.089844 129.980469 C 272.894531 127.363281 262.171875 120.820312 254.253906 111.742188 C 241.511719 103.425781 232.304688 90.132812 229.429688 74.625 L 199.628906 74.625 L 199.5625 237.714844 C 198.886719 255.984375 183.847656 270.632812 165.417969 270.632812 C 154 270.632812 143.902344 264.996094 137.683594 256.371094 C 126.796875 250.636719 119.351562 239.234375 119.351562 226.085938 C 119.351562 207.21875 134.695312 191.875 153.5625 191.875 C 157.082031 191.875 160.460938 192.457031 163.65625 193.457031 L 163.65625 161.558594 C 123.164062 162.511719 90.519531 195.703125 90.519531 236.421875 C 90.519531 256.113281 98.175781 274.042969 110.628906 287.433594 C 122.792969 295.976562 137.585938 301 153.5625 301 C 194.863281 301 228.460938 267.402344 228.460938 226.101562 Z M 228.476562 226.101562 " fill-opacity="1" fill-rule="nonzero"/></svg>