<svg xmlns="http://www.w3.org/2000/svg" xmlns:xlink="http://www.w3.org/1999/xlink" width="500" zoomAndPan="magnify" viewBox="0 0 375 374.999991" height="500" preserveAspectRatio="xMidYMid meet" version="1.0"><defs><clipPath id="5f62b26b7d"><path d="M 187.5 0 C 83.945312 0 0 83.945312 0 187.5 C 0 291.054688 83.945312 375 187.5 375 C 291.054688 375 375 291.054688 375 187.5 C 375 83.945312 291.054688 0 187.5 0 Z M 187.5 0 " clip-rule="nonzero"/></clipPath><clipPath id="8723e08ff4"><path d="M 0 0 L 375 0 L 375 375 L 0 375 Z M 0 0 " clip-rule="nonzero"/></clipPath><clipPath id="737407cbd2"><path d="M 187.5 0 C 83.945312 0 0 83.945312 0 187.5 C 0 291.054688 83.945312 375 187.5 375 C 291.054688 375 375 291.054688 375 187.5 C 375 83.945312 291.054688 0 187.5 0 Z M 187.5 0 " clip-rule="nonzero"/></clipPath><clipPath id="e4b8d937b3"><rect x="0" width="375" y="0" height="375"/></clipPath><clipPath id="e0688a2e3e"><path d="M 13.394531 13.394531 L 361.394531 13.394531 L 361.394531 361.394531 L 13.394531 361.394531 Z M 13.394531 13.394531 " clip-rule="nonzero"/></clipPath></defs><g clip-path="url(#5f62b26b7d)"><g transform="matrix(1, 0, 0, 1, 0, 0)"><g clip-path="url(#e4b8d937b3)"><g clip-path="url(#8723e08ff4)"><g clip-path="url(#737407cbd2)"><rect x="-82.5" width="540" fill="#25f4ee" height="539.999987" y="-82.499998" fill-opacity="1"/></g></g></g></g></g><g clip-path="url(#e0688a2e3e)"><path fill="#73ff00" d="M 361.664062 187.527344 C 361.664062 190.378906 361.597656 193.226562 361.457031 196.074219 C 361.316406 198.921875 361.105469 201.761719 360.828125 204.597656 C 360.546875 207.433594 360.199219 210.261719 359.78125 213.082031 C 359.363281 215.898438 358.875 218.707031 358.320312 221.5 C 357.761719 224.296875 357.140625 227.078125 356.445312 229.839844 C 355.753906 232.605469 354.996094 235.351562 354.167969 238.078125 C 353.339844 240.804688 352.445312 243.511719 351.484375 246.195312 C 350.527344 248.878906 349.5 251.535156 348.410156 254.167969 C 347.320312 256.800781 346.164062 259.40625 344.945312 261.980469 C 343.726562 264.558594 342.445312 267.101562 341.105469 269.617188 C 339.761719 272.128906 338.355469 274.609375 336.890625 277.054688 C 335.425781 279.496094 333.902344 281.90625 332.316406 284.273438 C 330.734375 286.644531 329.09375 288.972656 327.398438 291.261719 C 325.699219 293.550781 323.945312 295.796875 322.136719 298 C 320.332031 300.203125 318.46875 302.359375 316.554688 304.472656 C 314.640625 306.582031 312.675781 308.648438 310.664062 310.664062 C 308.648438 312.675781 306.582031 314.640625 304.472656 316.554688 C 302.359375 318.46875 300.203125 320.332031 298 322.136719 C 295.796875 323.945312 293.550781 325.699219 291.261719 327.398438 C 288.972656 329.09375 286.644531 330.734375 284.273438 332.316406 C 281.90625 333.902344 279.496094 335.425781 277.054688 336.890625 C 274.609375 338.355469 272.128906 339.761719 269.617188 341.105469 C 267.101562 342.445312 264.558594 343.726562 261.980469 344.945312 C 259.40625 346.164062 256.800781 347.320312 254.167969 348.410156 C 251.535156 349.5 248.878906 350.527344 246.195312 351.484375 C 243.511719 352.445312 240.804688 353.339844 238.078125 354.167969 C 235.351562 354.996094 232.605469 355.753906 229.839844 356.445312 C 227.078125 357.140625 224.296875 357.761719 221.5 358.320312 C 218.707031 358.875 215.898438 359.363281 213.082031 359.78125 C 210.261719 360.199219 207.433594 360.546875 204.597656 360.828125 C 201.761719 361.105469 198.921875 361.316406 196.074219 361.457031 C 193.226562 361.597656 190.378906 361.664062 187.527344 361.664062 C 184.679688 361.664062 181.832031 361.597656 178.984375 361.457031 C 176.136719 361.316406 173.296875 361.105469 170.460938 360.828125 C 167.625 360.546875 164.796875 360.199219 161.976562 359.78125 C 159.160156 359.363281 156.351562 358.875 153.558594 358.320312 C 150.761719 357.761719 147.980469 357.140625 145.21875 356.445312 C 142.453125 355.753906 139.707031 354.996094 136.980469 354.167969 C 134.253906 353.339844 131.546875 352.445312 128.863281 351.484375 C 126.179688 350.527344 123.523438 349.5 120.890625 348.410156 C 118.257812 347.320312 115.652344 346.164062 113.078125 344.945312 C 110.5 343.726562 107.957031 342.445312 105.441406 341.105469 C 102.929688 339.761719 100.449219 338.355469 98.003906 336.890625 C 95.5625 335.425781 93.152344 333.902344 90.785156 332.316406 C 88.414062 330.734375 86.085938 329.09375 83.796875 327.398438 C 81.507812 325.699219 79.261719 323.945312 77.058594 322.136719 C 74.855469 320.332031 72.699219 318.46875 70.585938 316.554688 C 68.476562 314.640625 66.410156 312.675781 64.394531 310.664062 C 62.382812 308.648438 60.417969 306.582031 58.503906 304.472656 C 56.589844 302.359375 54.726562 300.203125 52.921875 298 C 51.113281 295.796875 49.359375 293.550781 47.660156 291.261719 C 45.964844 288.972656 44.324219 286.644531 42.738281 284.273438 C 41.15625 281.90625 39.632812 279.496094 38.167969 277.054688 C 36.703125 274.609375 35.296875 272.128906 33.953125 269.617188 C 32.609375 267.101562 31.332031 264.558594 30.113281 261.980469 C 28.894531 259.40625 27.738281 256.800781 26.648438 254.167969 C 25.558594 251.535156 24.53125 248.878906 23.570312 246.195312 C 22.613281 243.511719 21.71875 240.804688 20.890625 238.078125 C 20.0625 235.351562 19.304688 232.605469 18.613281 229.839844 C 17.917969 227.078125 17.292969 224.296875 16.738281 221.5 C 16.183594 218.707031 15.695312 215.898438 15.277344 213.082031 C 14.859375 210.261719 14.511719 207.433594 14.230469 204.597656 C 13.953125 201.761719 13.742188 198.921875 13.601562 196.074219 C 13.460938 193.226562 13.394531 190.378906 13.394531 187.527344 C 13.394531 184.679688 13.460938 181.832031 13.601562 178.984375 C 13.742188 176.136719 13.953125 173.296875 14.230469 170.460938 C 14.511719 167.625 14.859375 164.796875 15.277344 161.976562 C 15.695312 159.160156 16.183594 156.351562 16.738281 153.558594 C 17.292969 150.761719 17.917969 147.980469 18.613281 145.21875 C 19.304688 142.453125 20.0625 139.707031 20.890625 136.980469 C 21.71875 134.253906 22.613281 131.546875 23.570312 128.863281 C 24.53125 126.179688 25.558594 123.523438 26.648438 120.890625 C 27.738281 118.257812 28.894531 115.652344 30.113281 113.078125 C 31.332031 110.5 32.609375 107.957031 33.953125 105.441406 C 35.296875 102.929688 36.703125 100.449219 38.167969 98.003906 C 39.632812 95.5625 41.15625 93.152344 42.738281 90.785156 C 44.324219 88.414062 45.964844 86.085938 47.660156 83.796875 C 49.359375 81.507812 51.113281 79.261719 52.921875 77.058594 C 54.726562 74.855469 56.589844 72.699219 58.503906 70.585938 C 60.417969 68.476562 62.382812 66.410156 64.394531 64.394531 C 66.410156 62.382812 68.476562 60.417969 70.585938 58.503906 C 72.699219 56.589844 74.855469 54.726562 77.058594 52.921875 C 79.261719 51.113281 81.507812 49.359375 83.796875 47.660156 C 86.085938 45.964844 88.414062 44.324219 90.785156 42.738281 C 93.152344 41.15625 95.5625 39.632812 98.003906 38.167969 C 100.449219 36.703125 102.929688 35.296875 105.441406 33.953125 C 107.957031 32.609375 110.5 31.332031 113.078125 30.113281 C 115.652344 28.894531 118.257812 27.738281 120.890625 26.648438 C 123.523438 25.558594 126.179688 24.53125 128.863281 23.570312 C 131.546875 22.613281 134.253906 21.71875 136.980469 20.890625 C 139.707031 20.0625 142.453125 19.304688 145.21875 18.613281 C 147.980469 17.917969 150.761719 17.292969 153.558594 16.738281 C 156.351562 16.183594 159.160156 15.695312 161.976562 15.277344 C 164.796875 14.859375 167.625 14.511719 170.460938 14.230469 C 173.296875 13.953125 176.136719 13.742188 178.984375 13.601562 C 181.832031 13.460938 184.679688 13.394531 187.527344 13.394531 C 190.378906 13.394531 193.226562 13.460938 196.074219 13.601562 C 198.921875 13.742188 201.761719 13.953125 204.597656 14.230469 C 207.433594 14.511719 210.261719 14.859375 213.082031 15.277344 C 215.898438 15.695312 218.707031 16.183594 221.5 16.738281 C 224.296875 17.292969 227.078125 17.917969 229.839844 18.613281 C 232.605469 19.304688 235.351562 20.0625 238.078125 20.890625 C 240.804688 21.71875 243.511719 22.613281 246.195312 23.570312 C 248.878906 24.53125 251.535156 25.558594 254.167969 26.648438 C 256.800781 27.738281 259.40625 28.894531 261.980469 30.113281 C 264.558594 31.332031 267.101562 32.609375 269.617188 33.953125 C 272.128906 35.296875 274.609375 36.703125 277.054688 38.167969 C 279.496094 39.632812 281.90625 41.15625 284.273438 42.738281 C 286.644531 44.324219 288.972656 45.964844 291.261719 47.660156 C 293.550781 49.359375 295.796875 51.113281 298 52.921875 C 300.203125 54.726562 302.359375 56.589844 304.472656 58.503906 C 306.582031 60.417969 308.648438 62.382812 310.664062 64.394531 C 312.675781 66.410156 314.640625 68.476562 316.554688 70.585938 C 318.46875 72.699219 320.332031 74.855469 322.136719 77.058594 C 323.945312 79.261719 325.699219 81.507812 327.398438 83.796875 C 329.09375 86.085938 330.734375 88.414062 332.316406 90.785156 C 333.902344 93.152344 335.425781 95.5625 336.890625 98.003906 C 338.355469 100.449219 339.761719 102.929688 341.105469 105.441406 C 342.445312 107.957031 343.726562 110.5 344.945312 113.078125 C 346.164062 115.652344 347.320312 118.257812 348.410156 120.890625 C 349.5 123.523438 350.527344 126.179688 351.484375 128.863281 C 352.445312 131.546875 353.339844 134.253906 354.167969 136.980469 C 354.996094 139.707031 355.753906 142.453125 356.445312 145.21875 C 357.140625 147.980469 357.761719 150.761719 358.320312 153.558594 C 358.875 156.351562 359.363281 159.160156 359.78125 161.976562 C 360.199219 164.796875 360.546875 167.625 360.828125 170.460938 C 361.105469 173.296875 361.316406 176.136719 361.457031 178.984375 C 361.597656 181.832031 361.664062 184.679688 361.664062 187.527344 Z M 361.664062 187.527344 " fill-opacity="1" fill-rule="nonzero"/></g><path fill="#25f4ee" d="M 164.414062 162.636719 L 164.414062 153.1875 C 161.242188 152.753906 158.027344 152.492188 154.75 152.492188 C 115.210938 152.492188 83.050781 184.652344 83.050781 224.191406 C 83.050781 248.449219 95.171875 269.914062 113.664062 282.902344 C 101.730469 270.082031 94.648438 252.917969 94.648438 234.070312 C 94.648438 195.105469 125.664062 163.53125 164.414062 162.636719 Z M 164.414062 162.636719 " fill-opacity="1" fill-rule="nonzero"/><path fill="#25f4ee" d="M 166.097656 267.019531 C 183.742188 267.019531 198.335938 252.78125 198.988281 235.308594 L 199.140625 79.402344 L 227.40625 79.402344 C 227.40625 79.402344 227.359375 79.183594 227.359375 79.183594 C 226.773438 75.984375 226.449219 72.675781 226.449219 69.304688 L 187.5 69.304688 L 187.4375 225.425781 C 186.785156 242.914062 172.390625 256.941406 154.75 256.941406 C 149.261719 256.941406 144.109375 255.5625 139.566406 253.183594 C 145.519531 261.421875 155.183594 267.035156 166.113281 267.035156 Z M 166.097656 267.019531 " fill-opacity="1" fill-rule="nonzero"/><path fill="#25f4ee" d="M 280.660156 132.621094 L 280.660156 123.46875 C 269.773438 123.46875 259.644531 120.238281 251.140625 114.6875 C 258.703125 123.375 268.984375 130.117188 280.660156 132.605469 Z M 280.660156 132.621094 " fill-opacity="1" fill-rule="nonzero"/><path fill="#fe2c55" d="M 251.140625 114.703125 C 242.851562 105.175781 237.8125 92.761719 237.8125 79.167969 L 227.207031 79.167969 C 229.957031 94.011719 238.941406 106.753906 251.140625 114.703125 Z M 251.140625 114.703125 " fill-opacity="1" fill-rule="nonzero"/><path fill="#fe2c55" d="M 154.75 191.132812 C 136.6875 191.132812 121.785156 206.113281 121.785156 224.175781 C 121.785156 236.746094 129.128906 247.675781 139.550781 253.167969 C 135.667969 247.785156 133.347656 241.199219 133.347656 234.070312 C 133.347656 216.011719 148.039062 201.320312 166.097656 201.320312 C 169.46875 201.320312 172.699219 201.878906 175.761719 202.835938 L 175.761719 163.066406 C 172.59375 162.636719 169.375 162.371094 166.097656 162.371094 C 165.527344 162.371094 164.96875 162.402344 164.414062 162.417969 L 164.257812 162.417969 C 164.257812 162.417969 164.148438 192.523438 164.148438 192.523438 C 161.089844 191.566406 158.121094 191.148438 154.75 191.148438 Z M 154.75 191.132812 " fill-opacity="1" fill-rule="nonzero"/><path fill="#fe2c55" d="M 280.660156 132.160156 L 280.472656 132.128906 L 280.472656 162.203125 C 260.265625 162.203125 241.492188 155.554688 226.214844 144.589844 L 226.214844 224.175781 C 226.214844 263.710938 194.285156 295.671875 154.75 295.671875 C 139.472656 295.671875 125.308594 291.050781 113.652344 282.871094 C 126.746094 296.925781 145.410156 305.753906 166.097656 305.753906 C 205.636719 305.753906 237.796875 273.59375 237.796875 234.054688 L 237.796875 154.886719 C 253.074219 165.851562 271.796875 172.3125 291.992188 172.3125 L 291.992188 133.363281 C 288.097656 133.363281 284.308594 132.949219 280.644531 132.160156 Z M 280.660156 132.160156 " fill-opacity="1" fill-rule="nonzero"/><path fill="#000000" d="M 226.449219 224.175781 L 226.449219 145.007812 C 241.722656 155.972656 260.449219 162.433594 280.644531 162.433594 L 280.644531 132.160156 C 268.96875 129.652344 258.703125 123.390625 251.125 114.703125 C 238.925781 106.738281 230.113281 94.011719 227.359375 79.167969 L 198.832031 79.167969 L 198.769531 235.292969 C 198.121094 252.78125 183.726562 266.804688 166.082031 266.804688 C 155.152344 266.804688 145.488281 261.40625 139.535156 253.152344 C 129.113281 247.664062 121.984375 236.746094 121.984375 224.160156 C 121.984375 206.097656 136.671875 191.410156 154.734375 191.410156 C 158.105469 191.410156 161.335938 191.96875 164.398438 192.925781 L 164.398438 162.386719 C 125.632812 163.300781 94.382812 195.074219 94.382812 234.054688 C 94.382812 252.902344 101.714844 270.066406 113.636719 282.886719 C 125.277344 291.066406 139.441406 295.875 154.734375 295.875 C 194.269531 295.875 226.433594 263.710938 226.433594 224.175781 Z M 226.449219 224.175781 " fill-opacity="1" fill-rule="nonzero"/></svg>