<svg xmlns="http://www.w3.org/2000/svg" xmlns:xlink="http://www.w3.org/1999/xlink" width="500" zoomAndPan="magnify" viewBox="0 0 375 374.999991" height="500" preserveAspectRatio="xMidYMid meet" version="1.0"><defs><clipPath id="de1bfa565b"><path d="M 187.5 0 C 83.945312 0 0 83.945312 0 187.5 C 0 291.054688 83.945312 375 187.5 375 C 291.054688 375 375 291.054688 375 187.5 C 375 83.945312 291.054688 0 187.5 0 Z M 187.5 0 " clip-rule="nonzero"/></clipPath><clipPath id="d4368e449c"><path d="M 0 0 L 375 0 L 375 375 L 0 375 Z M 0 0 " clip-rule="nonzero"/></clipPath><clipPath id="e2c90198fb"><path d="M 187.5 0 C 83.945312 0 0 83.945312 0 187.5 C 0 291.054688 83.945312 375 187.5 375 C 291.054688 375 375 291.054688 375 187.5 C 375 83.945312 291.054688 0 187.5 0 Z M 187.5 0 " clip-rule="nonzero"/></clipPath><clipPath id="55d5748dd5"><rect x="0" width="375" y="0" height="375"/></clipPath><clipPath id="9300f2af74"><path d="M 13.394531 13.394531 L 361.394531 13.394531 L 361.394531 361.394531 L 13.394531 361.394531 Z M 13.394531 13.394531 " clip-rule="nonzero"/></clipPath></defs><g clip-path="url(#de1bfa565b)"><g transform="matrix(1, 0, 0, 1, 0, 0)"><g clip-path="url(#55d5748dd5)"><g clip-path="url(#d4368e449c)"><g clip-path="url(#e2c90198fb)"><rect x="-82.5" width="540" fill="#25f4ee" height="539.999987" y="-82.499998" fill-opacity="1"/></g></g></g></g></g><g clip-path="url(#9300f2af74)"><path fill="#000000" d="M 361.453125 187.421875 C 361.453125 190.273438 361.386719 193.117188 361.246094 195.964844 C 361.105469 198.808594 360.894531 201.648438 360.617188 204.480469 C 360.335938 207.316406 359.988281 210.140625 359.570312 212.960938 C 359.152344 215.777344 358.667969 218.582031 358.109375 221.375 C 357.554688 224.167969 356.929688 226.945312 356.238281 229.710938 C 355.546875 232.472656 354.789062 235.214844 353.960938 237.941406 C 353.132812 240.667969 352.242188 243.371094 351.28125 246.054688 C 350.320312 248.734375 349.296875 251.390625 348.207031 254.023438 C 347.117188 256.652344 345.964844 259.257812 344.746094 261.832031 C 343.527344 264.40625 342.246094 266.949219 340.90625 269.460938 C 339.5625 271.972656 338.160156 274.449219 336.695312 276.894531 C 335.230469 279.335938 333.707031 281.742188 332.125 284.109375 C 330.542969 286.476562 328.902344 288.804688 327.207031 291.09375 C 325.511719 293.382812 323.757812 295.625 321.953125 297.828125 C 320.144531 300.03125 318.285156 302.183594 316.371094 304.296875 C 314.460938 306.40625 312.496094 308.46875 310.480469 310.480469 C 308.46875 312.496094 306.40625 314.460938 304.296875 316.371094 C 302.183594 318.285156 300.03125 320.144531 297.828125 321.953125 C 295.625 323.757812 293.382812 325.511719 291.09375 327.207031 C 288.804688 328.902344 286.476562 330.542969 284.109375 332.125 C 281.742188 333.707031 279.335938 335.230469 276.894531 336.695312 C 274.449219 338.160156 271.972656 339.5625 269.460938 340.90625 C 266.949219 342.246094 264.40625 343.527344 261.832031 344.746094 C 259.257812 345.964844 256.652344 347.117188 254.023438 348.207031 C 251.390625 349.296875 248.734375 350.320312 246.054688 351.28125 C 243.371094 352.242188 240.667969 353.132812 237.941406 353.960938 C 235.214844 354.789062 232.472656 355.546875 229.710938 356.238281 C 226.945312 356.929688 224.167969 357.554688 221.375 358.109375 C 218.582031 358.667969 215.777344 359.152344 212.960938 359.570312 C 210.140625 359.988281 207.316406 360.335938 204.480469 360.617188 C 201.648438 360.894531 198.808594 361.105469 195.964844 361.246094 C 193.117188 361.386719 190.273438 361.453125 187.421875 361.453125 C 184.574219 361.453125 181.730469 361.386719 178.882812 361.246094 C 176.039062 361.105469 173.199219 360.894531 170.367188 360.617188 C 167.53125 360.335938 164.707031 359.988281 161.886719 359.570312 C 159.070312 359.152344 156.265625 358.667969 153.472656 358.109375 C 150.679688 357.554688 147.902344 356.929688 145.136719 356.238281 C 142.375 355.546875 139.628906 354.789062 136.90625 353.960938 C 134.179688 353.132812 131.476562 352.242188 128.792969 351.28125 C 126.113281 350.320312 123.457031 349.296875 120.824219 348.207031 C 118.195312 347.117188 115.589844 345.964844 113.015625 344.746094 C 110.441406 343.527344 107.898438 342.246094 105.386719 340.90625 C 102.875 339.5625 100.398438 338.160156 97.953125 336.695312 C 95.511719 335.230469 93.105469 333.707031 90.738281 332.125 C 88.371094 330.542969 86.042969 328.902344 83.753906 327.207031 C 81.464844 325.511719 79.222656 323.757812 77.019531 321.953125 C 74.816406 320.144531 72.660156 318.285156 70.550781 316.371094 C 68.441406 314.460938 66.378906 312.496094 64.367188 310.480469 C 62.351562 308.46875 60.386719 306.40625 58.476562 304.296875 C 56.5625 302.183594 54.703125 300.03125 52.894531 297.828125 C 51.089844 295.625 49.335938 293.382812 47.640625 291.09375 C 45.945312 288.804688 44.304688 286.476562 42.722656 284.109375 C 41.140625 281.742188 39.617188 279.335938 38.152344 276.894531 C 36.6875 274.449219 35.285156 271.972656 33.941406 269.460938 C 32.597656 266.949219 31.320312 264.40625 30.101562 261.832031 C 28.882812 259.257812 27.730469 256.652344 26.640625 254.023438 C 25.550781 251.390625 24.527344 248.734375 23.566406 246.054688 C 22.605469 243.371094 21.714844 240.667969 20.886719 237.941406 C 20.058594 235.214844 19.300781 232.472656 18.609375 229.710938 C 17.917969 226.945312 17.292969 224.167969 16.738281 221.375 C 16.179688 218.582031 15.695312 215.777344 15.277344 212.960938 C 14.859375 210.140625 14.511719 207.316406 14.230469 204.480469 C 13.953125 201.648438 13.742188 198.808594 13.601562 195.964844 C 13.460938 193.117188 13.394531 190.273438 13.394531 187.421875 C 13.394531 184.574219 13.460938 181.730469 13.601562 178.882812 C 13.742188 176.039062 13.953125 173.199219 14.230469 170.367188 C 14.511719 167.53125 14.859375 164.707031 15.277344 161.886719 C 15.695312 159.070312 16.179688 156.265625 16.738281 153.472656 C 17.292969 150.679688 17.917969 147.902344 18.609375 145.136719 C 19.300781 142.375 20.058594 139.628906 20.886719 136.90625 C 21.714844 134.179688 22.605469 131.476562 23.566406 128.792969 C 24.527344 126.113281 25.550781 123.457031 26.640625 120.824219 C 27.730469 118.195312 28.882812 115.589844 30.101562 113.015625 C 31.320312 110.441406 32.597656 107.898438 33.941406 105.386719 C 35.285156 102.875 36.6875 100.398438 38.152344 97.953125 C 39.617188 95.511719 41.140625 93.105469 42.722656 90.738281 C 44.304688 88.371094 45.945312 86.042969 47.640625 83.753906 C 49.335938 81.464844 51.089844 79.222656 52.894531 77.019531 C 54.703125 74.816406 56.5625 72.660156 58.476562 70.550781 C 60.386719 68.441406 62.351562 66.378906 64.367188 64.367188 C 66.378906 62.351562 68.441406 60.386719 70.550781 58.476562 C 72.660156 56.5625 74.816406 54.703125 77.019531 52.894531 C 79.222656 51.089844 81.464844 49.335938 83.753906 47.640625 C 86.042969 45.945312 88.371094 44.304688 90.738281 42.722656 C 93.105469 41.140625 95.511719 39.617188 97.953125 38.152344 C 100.398438 36.6875 102.875 35.285156 105.386719 33.941406 C 107.898438 32.597656 110.441406 31.320312 113.015625 30.101562 C 115.589844 28.882812 118.195312 27.730469 120.824219 26.640625 C 123.457031 25.550781 126.113281 24.527344 128.792969 23.566406 C 131.476562 22.605469 134.179688 21.714844 136.90625 20.886719 C 139.628906 20.058594 142.375 19.300781 145.136719 18.609375 C 147.902344 17.917969 150.679688 17.292969 153.472656 16.738281 C 156.265625 16.179688 159.070312 15.695312 161.886719 15.277344 C 164.707031 14.859375 167.53125 14.511719 170.367188 14.230469 C 173.199219 13.953125 176.039062 13.742188 178.882812 13.601562 C 181.730469 13.460938 184.574219 13.394531 187.421875 13.394531 C 190.273438 13.394531 193.117188 13.460938 195.964844 13.601562 C 198.808594 13.742188 201.648438 13.953125 204.480469 14.230469 C 207.316406 14.511719 210.140625 14.859375 212.960938 15.277344 C 215.777344 15.695312 218.582031 16.179688 221.375 16.738281 C 224.167969 17.292969 226.945312 17.917969 229.710938 18.609375 C 232.472656 19.300781 235.214844 20.058594 237.941406 20.886719 C 240.667969 21.714844 243.371094 22.605469 246.054688 23.566406 C 248.734375 24.527344 251.390625 25.550781 254.023438 26.640625 C 256.652344 27.730469 259.257812 28.882812 261.832031 30.101562 C 264.40625 31.320312 266.949219 32.597656 269.460938 33.941406 C 271.972656 35.285156 274.449219 36.6875 276.894531 38.152344 C 279.335938 39.617188 281.742188 41.140625 284.109375 42.722656 C 286.476562 44.304688 288.804688 45.945312 291.09375 47.640625 C 293.382812 49.335938 295.625 51.089844 297.828125 52.894531 C 300.03125 54.703125 302.183594 56.5625 304.296875 58.476562 C 306.40625 60.386719 308.46875 62.351562 310.480469 64.367188 C 312.496094 66.378906 314.460938 68.441406 316.371094 70.550781 C 318.285156 72.660156 320.144531 74.816406 321.953125 77.019531 C 323.757812 79.222656 325.511719 81.464844 327.207031 83.753906 C 328.902344 86.042969 330.542969 88.371094 332.125 90.738281 C 333.707031 93.105469 335.230469 95.511719 336.695312 97.953125 C 338.160156 100.398438 339.5625 102.875 340.90625 105.386719 C 342.246094 107.898438 343.527344 110.441406 344.746094 113.015625 C 345.964844 115.589844 347.117188 118.195312 348.207031 120.824219 C 349.296875 123.457031 350.320312 126.113281 351.28125 128.792969 C 352.242188 131.476562 353.132812 134.179688 353.960938 136.90625 C 354.789062 139.628906 355.546875 142.375 356.238281 145.136719 C 356.929688 147.902344 357.554688 150.679688 358.109375 153.472656 C 358.667969 156.265625 359.152344 159.070312 359.570312 161.886719 C 359.988281 164.707031 360.335938 167.53125 360.617188 170.367188 C 360.894531 173.199219 361.105469 176.039062 361.246094 178.882812 C 361.386719 181.730469 361.453125 184.574219 361.453125 187.421875 Z M 361.453125 187.421875 " fill-opacity="1" fill-rule="nonzero"/></g><path fill="#25f4ee" d="M 164.320312 162.542969 L 164.320312 153.101562 C 161.152344 152.671875 157.941406 152.40625 154.664062 152.40625 C 115.152344 152.40625 83.007812 184.550781 83.007812 224.0625 C 83.007812 248.308594 95.125 269.757812 113.605469 282.738281 C 101.675781 269.925781 94.597656 252.773438 94.597656 233.9375 C 94.597656 194.996094 125.597656 163.441406 164.320312 162.542969 Z M 164.320312 162.542969 " fill-opacity="1" fill-rule="nonzero"/><path fill="#25f4ee" d="M 166.007812 266.867188 C 183.636719 266.867188 198.226562 252.636719 198.875 235.171875 L 199.027344 79.363281 L 227.277344 79.363281 C 227.277344 79.363281 227.230469 79.144531 227.230469 79.144531 C 226.644531 75.945312 226.320312 72.640625 226.320312 69.269531 L 187.394531 69.269531 L 187.332031 225.300781 C 186.683594 242.777344 172.296875 256.792969 154.664062 256.792969 C 149.179688 256.792969 144.03125 255.417969 139.488281 253.035156 C 145.4375 261.273438 155.097656 266.882812 166.019531 266.882812 Z M 166.007812 266.867188 " fill-opacity="1" fill-rule="nonzero"/><path fill="#25f4ee" d="M 280.496094 132.550781 L 280.496094 123.402344 C 269.617188 123.402344 259.496094 120.171875 250.996094 114.625 C 258.554688 123.308594 268.828125 130.046875 280.496094 132.535156 Z M 280.496094 132.550781 " fill-opacity="1" fill-rule="nonzero"/><path fill="#fe2c55" d="M 250.996094 114.640625 C 242.714844 105.121094 237.675781 92.710938 237.675781 79.128906 L 227.074219 79.128906 C 229.828125 93.964844 238.804688 106.699219 250.996094 114.640625 Z M 250.996094 114.640625 " fill-opacity="1" fill-rule="nonzero"/><path fill="#fe2c55" d="M 154.664062 191.023438 C 136.613281 191.023438 121.71875 206 121.71875 224.046875 C 121.71875 236.609375 129.058594 247.535156 139.472656 253.019531 C 135.59375 247.644531 133.277344 241.0625 133.277344 233.9375 C 133.277344 215.886719 147.957031 201.207031 166.007812 201.207031 C 169.375 201.207031 172.605469 201.765625 175.664062 202.722656 L 175.664062 162.976562 C 172.496094 162.542969 169.28125 162.28125 166.007812 162.28125 C 165.433594 162.28125 164.878906 162.3125 164.320312 162.328125 L 164.167969 162.328125 C 164.167969 162.328125 164.058594 192.414062 164.058594 192.414062 C 161 191.457031 158.03125 191.039062 154.664062 191.039062 Z M 154.664062 191.023438 " fill-opacity="1" fill-rule="nonzero"/><path fill="#fe2c55" d="M 280.496094 132.085938 L 280.3125 132.054688 L 280.3125 162.113281 C 260.113281 162.113281 241.355469 155.46875 226.085938 144.511719 L 226.085938 224.046875 C 226.085938 263.558594 194.175781 295.5 154.664062 295.5 C 139.394531 295.5 125.242188 290.882812 113.589844 282.707031 C 126.679688 296.753906 145.328125 305.578125 166.007812 305.578125 C 205.519531 305.578125 237.660156 273.433594 237.660156 233.921875 L 237.660156 154.800781 C 252.929688 165.757812 271.640625 172.21875 291.824219 172.21875 L 291.824219 133.292969 C 287.929688 133.292969 284.144531 132.875 280.480469 132.085938 Z M 280.496094 132.085938 " fill-opacity="1" fill-rule="nonzero"/><path fill="#ffffff" d="M 226.320312 224.046875 L 226.320312 144.929688 C 241.585938 155.882812 260.300781 162.34375 280.480469 162.34375 L 280.480469 132.085938 C 268.8125 129.582031 258.554688 123.324219 250.980469 114.640625 C 238.789062 106.683594 229.980469 93.964844 227.230469 79.128906 L 198.71875 79.128906 L 198.65625 235.15625 C 198.007812 252.636719 183.621094 266.652344 165.992188 266.652344 C 155.066406 266.652344 145.40625 261.257812 139.457031 253.007812 C 129.042969 247.519531 121.917969 236.609375 121.917969 224.03125 C 121.917969 205.984375 136.597656 191.300781 154.648438 191.300781 C 158.015625 191.300781 161.246094 191.859375 164.304688 192.816406 L 164.304688 162.296875 C 125.566406 163.210938 94.335938 194.964844 94.335938 233.921875 C 94.335938 252.757812 101.660156 269.910156 113.574219 282.722656 C 125.210938 290.898438 139.363281 295.703125 154.648438 295.703125 C 194.160156 295.703125 226.304688 263.558594 226.304688 224.046875 Z M 226.320312 224.046875 " fill-opacity="1" fill-rule="nonzero"/></svg>