<svg xmlns="http://www.w3.org/2000/svg" xmlns:xlink="http://www.w3.org/1999/xlink" width="500" zoomAndPan="magnify" viewBox="0 0 375 374.999991" height="500" preserveAspectRatio="xMidYMid meet" version="1.0"><defs><clipPath id="a2770c2a78"><path d="M 187.5 0 C 83.945312 0 0 83.945312 0 187.5 C 0 291.054688 83.945312 375 187.5 375 C 291.054688 375 375 291.054688 375 187.5 C 375 83.945312 291.054688 0 187.5 0 Z M 187.5 0 " clip-rule="nonzero"/></clipPath><clipPath id="a0e6913d25"><path d="M 0 0 L 375 0 L 375 375 L 0 375 Z M 0 0 " clip-rule="nonzero"/></clipPath><clipPath id="76c917100f"><path d="M 187.5 0 C 83.945312 0 0 83.945312 0 187.5 C 0 291.054688 83.945312 375 187.5 375 C 291.054688 375 375 291.054688 375 187.5 C 375 83.945312 291.054688 0 187.5 0 Z M 187.5 0 " clip-rule="nonzero"/></clipPath><clipPath id="39dd6b6255"><rect x="0" width="375" y="0" height="375"/></clipPath></defs><g clip-path="url(#a2770c2a78)"><g transform="matrix(1, 0, 0, 1, 0, 0)"><g clip-path="url(#39dd6b6255)"><g clip-path="url(#a0e6913d25)"><g clip-path="url(#76c917100f)"><rect x="-82.5" width="540" fill="#000000" height="539.999987" y="-82.499998" fill-opacity="1"/></g></g></g></g></g><path fill="#73ff00" d="M 375.066406 187.535156 C 375.066406 190.601562 374.992188 193.667969 374.839844 196.734375 C 374.691406 199.800781 374.464844 202.859375 374.164062 205.914062 C 373.863281 208.96875 373.488281 212.015625 373.035156 215.050781 C 372.585938 218.085938 372.0625 221.109375 371.464844 224.121094 C 370.863281 227.128906 370.191406 230.121094 369.445312 233.101562 C 368.699219 236.078125 367.882812 239.035156 366.992188 241.972656 C 366.101562 244.910156 365.136719 247.820312 364.105469 250.710938 C 363.070312 253.601562 361.964844 256.464844 360.792969 259.300781 C 359.617188 262.132812 358.375 264.941406 357.0625 267.714844 C 355.75 270.488281 354.371094 273.230469 352.921875 275.9375 C 351.476562 278.640625 349.964844 281.3125 348.386719 283.945312 C 346.808594 286.578125 345.167969 289.167969 343.460938 291.722656 C 341.757812 294.273438 339.988281 296.78125 338.160156 299.246094 C 336.332031 301.710938 334.445312 304.128906 332.5 306.503906 C 330.550781 308.875 328.546875 311.199219 326.484375 313.472656 C 324.425781 315.746094 322.308594 317.96875 320.140625 320.140625 C 317.96875 322.308594 315.746094 324.425781 313.472656 326.484375 C 311.199219 328.546875 308.875 330.550781 306.503906 332.5 C 304.128906 334.445312 301.710938 336.332031 299.246094 338.160156 C 296.78125 339.988281 294.273438 341.757812 291.722656 343.460938 C 289.167969 345.167969 286.578125 346.808594 283.945312 348.386719 C 281.3125 349.964844 278.640625 351.476562 275.9375 352.921875 C 273.230469 354.371094 270.488281 355.75 267.714844 357.0625 C 264.941406 358.375 262.132812 359.617188 259.300781 360.792969 C 256.464844 361.964844 253.601562 363.070312 250.710938 364.105469 C 247.820312 365.136719 244.910156 366.101562 241.972656 366.992188 C 239.035156 367.882812 236.078125 368.699219 233.101562 369.445312 C 230.121094 370.191406 227.128906 370.863281 224.121094 371.464844 C 221.109375 372.0625 218.085938 372.585938 215.050781 373.035156 C 212.015625 373.488281 208.96875 373.863281 205.914062 374.164062 C 202.859375 374.464844 199.800781 374.691406 196.734375 374.839844 C 193.667969 374.992188 190.601562 375.066406 187.535156 375.066406 C 184.464844 375.066406 181.398438 374.992188 178.332031 374.839844 C 175.265625 374.691406 172.207031 374.464844 169.152344 374.164062 C 166.097656 373.863281 163.050781 373.488281 160.015625 373.035156 C 156.980469 372.585938 153.957031 372.0625 150.949219 371.464844 C 147.9375 370.863281 144.945312 370.191406 141.964844 369.445312 C 138.988281 368.699219 136.03125 367.882812 133.09375 366.992188 C 130.160156 366.101562 127.246094 365.136719 124.355469 364.105469 C 121.464844 363.070312 118.601562 361.964844 115.765625 360.792969 C 112.933594 359.617188 110.125 358.375 107.351562 357.0625 C 104.578125 355.75 101.835938 354.371094 99.128906 352.921875 C 96.425781 351.476562 93.753906 349.964844 91.121094 348.386719 C 88.488281 346.808594 85.898438 345.167969 83.34375 343.460938 C 80.792969 341.757812 78.285156 339.988281 75.820312 338.160156 C 73.355469 336.332031 70.9375 334.445312 68.5625 332.5 C 66.191406 330.550781 63.867188 328.546875 61.59375 326.484375 C 59.320312 324.425781 57.097656 322.308594 54.925781 320.140625 C 52.757812 317.96875 50.640625 315.746094 48.582031 313.472656 C 46.519531 311.199219 44.515625 308.875 42.566406 306.503906 C 40.621094 304.128906 38.734375 301.710938 36.90625 299.246094 C 35.078125 296.78125 33.308594 294.273438 31.605469 291.722656 C 29.898438 289.167969 28.257812 286.578125 26.679688 283.945312 C 25.101562 281.3125 23.589844 278.640625 22.144531 275.9375 C 20.695312 273.230469 19.316406 270.488281 18.003906 267.714844 C 16.691406 264.941406 15.449219 262.132812 14.273438 259.300781 C 13.101562 256.464844 11.996094 253.601562 10.960938 250.710938 C 9.929688 247.820312 8.964844 244.910156 8.074219 241.972656 C 7.183594 239.035156 6.367188 236.078125 5.621094 233.101562 C 4.875 230.121094 4.203125 227.128906 3.601562 224.121094 C 3.003906 221.109375 2.480469 218.085938 2.03125 215.050781 C 1.578125 212.015625 1.203125 208.96875 0.902344 205.914062 C 0.601562 202.859375 0.375 199.800781 0.226562 196.734375 C 0.0742188 193.667969 0 190.601562 0 187.535156 C 0 184.464844 0.0742188 181.398438 0.226562 178.332031 C 0.375 175.265625 0.601562 172.207031 0.902344 169.152344 C 1.203125 166.097656 1.578125 163.050781 2.03125 160.015625 C 2.480469 156.980469 3.003906 153.957031 3.601562 150.949219 C 4.203125 147.9375 4.875 144.945312 5.621094 141.964844 C 6.367188 138.988281 7.183594 136.03125 8.074219 133.09375 C 8.964844 130.160156 9.929688 127.246094 10.960938 124.355469 C 11.996094 121.464844 13.101562 118.601562 14.273438 115.765625 C 15.449219 112.933594 16.691406 110.125 18.003906 107.351562 C 19.316406 104.578125 20.695312 101.835938 22.144531 99.128906 C 23.589844 96.425781 25.101562 93.753906 26.679688 91.121094 C 28.257812 88.488281 29.898438 85.898438 31.605469 83.34375 C 33.308594 80.792969 35.078125 78.285156 36.90625 75.820312 C 38.734375 73.355469 40.621094 70.9375 42.566406 68.5625 C 44.515625 66.191406 46.519531 63.867188 48.582031 61.59375 C 50.640625 59.320312 52.757812 57.097656 54.925781 54.925781 C 57.097656 52.757812 59.320312 50.640625 61.59375 48.582031 C 63.867188 46.519531 66.191406 44.515625 68.5625 42.566406 C 70.9375 40.621094 73.355469 38.734375 75.820312 36.90625 C 78.285156 35.078125 80.792969 33.308594 83.34375 31.605469 C 85.898438 29.898438 88.488281 28.257812 91.121094 26.679688 C 93.753906 25.101562 96.425781 23.589844 99.128906 22.144531 C 101.835938 20.695312 104.578125 19.316406 107.351562 18.003906 C 110.125 16.691406 112.933594 15.449219 115.765625 14.273438 C 118.601562 13.101562 121.464844 11.996094 124.355469 10.960938 C 127.246094 9.929688 130.160156 8.964844 133.09375 8.074219 C 136.03125 7.183594 138.988281 6.367188 141.964844 5.621094 C 144.945312 4.875 147.9375 4.203125 150.949219 3.601562 C 153.957031 3.003906 156.980469 2.480469 160.015625 2.03125 C 163.050781 1.578125 166.097656 1.203125 169.152344 0.902344 C 172.207031 0.601562 175.265625 0.375 178.332031 0.226562 C 181.398438 0.0742188 184.464844 0 187.535156 0 C 190.601562 0 193.667969 0.0742188 196.734375 0.226562 C 199.800781 0.375 202.859375 0.601562 205.914062 0.902344 C 208.96875 1.203125 212.015625 1.578125 215.050781 2.03125 C 218.085938 2.480469 221.109375 3.003906 224.121094 3.601562 C 227.128906 4.203125 230.121094 4.875 233.101562 5.621094 C 236.078125 6.367188 239.035156 7.183594 241.972656 8.074219 C 244.910156 8.964844 247.820312 9.929688 250.710938 10.960938 C 253.601562 11.996094 256.464844 13.101562 259.300781 14.273438 C 262.132812 15.449219 264.941406 16.691406 267.714844 18.003906 C 270.488281 19.316406 273.230469 20.695312 275.9375 22.144531 C 278.640625 23.589844 281.3125 25.101562 283.945312 26.679688 C 286.578125 28.257812 289.167969 29.898438 291.722656 31.605469 C 294.273438 33.308594 296.78125 35.078125 299.246094 36.90625 C 301.710938 38.734375 304.128906 40.621094 306.503906 42.566406 C 308.875 44.515625 311.199219 46.519531 313.472656 48.582031 C 315.746094 50.640625 317.96875 52.757812 320.140625 54.925781 C 322.308594 57.097656 324.425781 59.320312 326.484375 61.59375 C 328.546875 63.867188 330.550781 66.191406 332.5 68.5625 C 334.445312 70.9375 336.332031 73.355469 338.160156 75.820312 C 339.988281 78.285156 341.757812 80.792969 343.460938 83.34375 C 345.167969 85.898438 346.808594 88.488281 348.386719 91.121094 C 349.964844 93.753906 351.476562 96.425781 352.921875 99.128906 C 354.371094 101.835938 355.75 104.578125 357.0625 107.351562 C 358.375 110.125 359.617188 112.933594 360.792969 115.765625 C 361.964844 118.601562 363.070312 121.464844 364.105469 124.355469 C 365.136719 127.246094 366.101562 130.160156 366.992188 133.09375 C 367.882812 136.03125 368.699219 138.988281 369.445312 141.964844 C 370.191406 144.945312 370.863281 147.9375 371.464844 150.949219 C 372.0625 153.957031 372.585938 156.980469 373.035156 160.015625 C 373.488281 163.050781 373.863281 166.097656 374.164062 169.152344 C 374.464844 172.207031 374.691406 175.265625 374.839844 178.332031 C 374.992188 181.398438 375.066406 184.464844 375.066406 187.535156 Z M 375.066406 187.535156 " fill-opacity="1" fill-rule="nonzero"/><path fill="#25f4ee" d="M 162.640625 160.722656 L 162.640625 150.550781 C 159.226562 150.082031 155.761719 149.800781 152.230469 149.800781 C 109.652344 149.800781 75.015625 184.4375 75.015625 227.015625 C 75.015625 253.140625 88.070312 276.253906 107.988281 290.242188 C 95.132812 276.4375 87.503906 257.953125 87.503906 237.65625 C 87.503906 195.691406 120.910156 161.691406 162.640625 160.722656 Z M 162.640625 160.722656 " fill-opacity="1" fill-rule="nonzero"/><path fill="#25f4ee" d="M 164.453125 273.140625 C 183.453125 273.140625 199.171875 257.804688 199.871094 238.988281 L 200.039062 71.085938 L 230.476562 71.085938 C 230.476562 71.085938 230.429688 70.855469 230.429688 70.855469 C 229.796875 67.40625 229.445312 63.84375 229.445312 60.214844 L 187.5 60.214844 L 187.433594 228.347656 C 186.734375 247.179688 171.230469 262.285156 152.230469 262.285156 C 146.320312 262.285156 140.773438 260.800781 135.878906 258.238281 C 142.289062 267.113281 152.699219 273.15625 164.46875 273.15625 Z M 164.453125 273.140625 " fill-opacity="1" fill-rule="nonzero"/><path fill="#25f4ee" d="M 287.828125 128.402344 L 287.828125 118.542969 C 276.105469 118.542969 265.199219 115.0625 256.039062 109.085938 C 264.183594 118.445312 275.253906 125.703125 287.828125 128.386719 Z M 287.828125 128.402344 " fill-opacity="1" fill-rule="nonzero"/><path fill="#fe2c55" d="M 256.039062 109.101562 C 247.113281 98.84375 241.683594 85.472656 241.683594 70.835938 L 230.261719 70.835938 C 233.226562 86.824219 242.902344 100.542969 256.039062 109.101562 Z M 256.039062 109.101562 " fill-opacity="1" fill-rule="nonzero"/><path fill="#fe2c55" d="M 152.230469 191.414062 C 132.78125 191.414062 116.730469 207.550781 116.730469 227 C 116.730469 240.535156 124.640625 252.308594 135.863281 258.21875 C 131.683594 252.425781 129.183594 245.332031 129.183594 237.65625 C 129.183594 218.207031 145.003906 202.386719 164.453125 202.386719 C 168.082031 202.386719 171.5625 202.984375 174.859375 204.019531 L 174.859375 161.191406 C 171.449219 160.722656 167.984375 160.441406 164.453125 160.441406 C 163.835938 160.441406 163.238281 160.472656 162.640625 160.492188 L 162.472656 160.492188 C 162.472656 160.492188 162.355469 192.910156 162.355469 192.910156 C 159.058594 191.878906 155.863281 191.429688 152.230469 191.429688 Z M 152.230469 191.414062 " fill-opacity="1" fill-rule="nonzero"/><path fill="#fe2c55" d="M 287.828125 127.902344 L 287.628906 127.871094 L 287.628906 160.257812 C 265.863281 160.257812 245.648438 153.097656 229.195312 141.292969 L 229.195312 227 C 229.195312 269.578125 194.808594 303.996094 152.230469 303.996094 C 135.78125 303.996094 120.527344 299.015625 107.972656 290.207031 C 122.074219 305.34375 142.171875 314.851562 164.453125 314.851562 C 207.03125 314.851562 241.667969 280.21875 241.667969 237.640625 L 241.667969 152.382812 C 258.121094 164.1875 278.285156 171.148438 300.035156 171.148438 L 300.035156 129.203125 C 295.835938 129.203125 291.757812 128.753906 287.8125 127.902344 Z M 287.828125 127.902344 " fill-opacity="1" fill-rule="nonzero"/><path fill="#ffffff" d="M 229.445312 227 L 229.445312 141.742188 C 245.898438 153.546875 266.0625 160.507812 287.8125 160.507812 L 287.8125 127.902344 C 275.238281 125.207031 264.183594 118.460938 256.023438 109.101562 C 242.882812 100.527344 233.390625 86.824219 230.429688 70.835938 L 199.707031 70.835938 L 199.640625 238.972656 C 198.941406 257.804688 183.4375 272.90625 164.4375 272.90625 C 152.664062 272.90625 142.257812 267.097656 135.847656 258.203125 C 124.621094 252.292969 116.945312 240.535156 116.945312 226.980469 C 116.945312 207.53125 132.765625 191.714844 152.214844 191.714844 C 155.84375 191.714844 159.324219 192.3125 162.621094 193.34375 L 162.621094 160.457031 C 120.875 161.441406 87.222656 195.660156 87.222656 237.640625 C 87.222656 257.9375 95.117188 276.421875 107.953125 290.226562 C 120.492188 299.035156 135.746094 304.214844 152.214844 304.214844 C 194.792969 304.214844 229.429688 269.578125 229.429688 227 Z M 229.445312 227 " fill-opacity="1" fill-rule="nonzero"/></svg>