<svg xmlns="http://www.w3.org/2000/svg" xmlns:xlink="http://www.w3.org/1999/xlink" width="500" zoomAndPan="magnify" viewBox="0 0 375 374.999991" height="500" preserveAspectRatio="xMidYMid meet" version="1.0"><path fill="#004000" d="M 342.347656 332.386719 C 338.050781 336.597656 333.214844 338.480469 327.976562 338.480469 C 292.527344 338.480469 238.65625 252.371094 212.6875 216.53125 C 204.640625 205.429688 195.917969 195.074219 187.480469 185.890625 C 184.746094 182.90625 182.046875 180.046875 179.382812 177.332031 C 173.789062 171.539062 168.441406 166.371094 163.699219 161.949219 C 155.777344 154.542969 145.386719 150.371094 134.710938 150.371094 C 132.546875 150.371094 130.359375 150.527344 128.175781 150.882812 C 124.339844 151.503906 120.628906 151.804688 117.058594 151.804688 C 64.625 151.804688 39.953125 88.238281 34.804688 64.863281 C 28.640625 36.695312 38.976562 29.039062 38.976562 29.039062 C 38.976562 29.039062 43.523438 22.910156 58.480469 22.910156 C 62.9375 22.910156 68.320312 23.441406 74.804688 24.863281 C 99.777344 30.351562 170.628906 58.128906 160.839844 118.234375 C 158.726562 131.113281 162.988281 144.222656 171.886719 153.761719 C 176.382812 158.570312 181.621094 163.988281 187.5 169.691406 C 190.074219 172.179688 192.777344 174.734375 195.582031 177.3125 C 204.835938 185.816406 215.261719 194.609375 226.46875 202.730469 C 267.605469 232.550781 374.992188 299.121094 342.347656 332.386719 " fill-opacity="1" fill-rule="nonzero"/><path fill="#004000" d="M 174.125 182.089844 C 176.914062 184.96875 179.792969 188.003906 182.707031 191.183594 C 175.796875 198.996094 168.832031 207.507812 162.296875 216.53125 C 132.492188 257.664062 65.921875 365.050781 32.636719 332.386719 C -0.0078125 299.121094 107.378906 232.550781 148.511719 202.730469 C 157.644531 196.121094 166.257812 189.070312 174.125 182.089844 " fill-opacity="1" fill-rule="nonzero"/><path fill="#004000" d="M 353.679688 51.703125 L 287.660156 124.453125 C 275.667969 137.648438 263.734375 135.570312 248.691406 137.152344 C 242.542969 137.808594 236.308594 140.707031 231.085938 144.648438 L 231.085938 144.628906 C 231.085938 144.628906 217.695312 155.195312 200.589844 172.25 C 197.800781 169.691406 195.121094 167.152344 192.5625 164.683594 C 209.738281 147.46875 220.414062 133.953125 220.414062 133.953125 L 220.394531 133.9375 C 224.320312 128.734375 227.234375 122.480469 227.890625 116.351562 C 229.46875 101.308594 227.394531 89.375 240.570312 77.382812 L 313.339844 11.367188 C 314.816406 9.996094 316.964844 9.960938 318.257812 11.242188 C 319.578125 12.570312 319.453125 14.828125 317.996094 16.304688 L 243.589844 90.707031 C 241.601562 92.675781 241.601562 95.839844 243.695312 97.402344 C 245.402344 98.695312 248.015625 98.289062 249.699219 96.601562 L 323.148438 23.160156 C 325.082031 21.222656 328.082031 21.082031 329.84375 22.839844 C 331.601562 24.597656 331.457031 27.582031 329.503906 29.535156 L 255.953125 103.085938 C 254.125 104.914062 253.980469 107.742188 255.636719 109.410156 C 257.285156 111.058594 260.125 110.917969 261.957031 109.085938 L 335.507812 35.539062 C 337.460938 33.582031 340.445312 33.441406 342.203125 35.183594 C 343.960938 36.941406 343.820312 39.960938 341.882812 41.898438 L 268.4375 115.339844 C 266.753906 117.027344 266.324219 119.621094 267.621094 121.34375 C 269.203125 123.4375 272.347656 123.421875 274.335938 121.449219 L 348.738281 47.046875 C 350.199219 45.574219 352.46875 45.449219 353.800781 46.78125 C 355.082031 48.058594 355.027344 50.210938 353.679688 51.703125 " fill-opacity="1" fill-rule="nonzero"/></svg>