<svg xmlns="http://www.w3.org/2000/svg" xmlns:xlink="http://www.w3.org/1999/xlink" width="500" zoomAndPan="magnify" viewBox="0 0 375 374.999991" height="500" preserveAspectRatio="xMidYMid meet" version="1.0"><defs><clipPath id="afbf5a2578"><path d="M 0 29 L 375 29 L 375 355.433594 L 0 355.433594 Z M 0 29 " clip-rule="nonzero"/></clipPath></defs><g clip-path="url(#afbf5a2578)"><path fill="#ffffff" d="M 186.128906 355.421875 C 182.617188 355.421875 179.125 354.082031 176.445312 351.402344 L 30.398438 205.359375 C 11.199219 186.171875 0.605469 160.644531 0.621094 133.480469 C 0.621094 106.320312 11.199219 80.792969 30.414062 61.605469 C 49.660156 42.40625 75.191406 31.84375 102.289062 31.84375 C 129.390625 31.84375 154.980469 42.421875 174.179688 61.621094 L 186.144531 73.585938 L 200.710938 59.019531 C 240.34375 19.386719 304.84375 19.386719 344.492188 59.019531 C 363.695312 78.171875 374.273438 103.703125 374.273438 130.910156 C 374.273438 158.117188 363.695312 183.601562 344.492188 202.769531 L 229.796875 317.46875 C 224.4375 322.808594 215.769531 322.808594 210.425781 317.46875 C 205.085938 312.125 205.085938 303.441406 210.425781 298.097656 L 325.140625 183.386719 C 339.167969 169.390625 346.894531 150.757812 346.894531 130.910156 C 346.894531 111.0625 339.179688 92.386719 325.152344 78.40625 C 296.191406 49.441406 249.074219 49.441406 220.113281 78.40625 L 195.859375 102.65625 C 193.289062 105.226562 189.808594 106.675781 186.175781 106.675781 C 182.542969 106.675781 179.0625 105.226562 176.492188 102.65625 L 154.84375 81.007812 C 140.816406 66.980469 122.167969 59.25 102.320312 59.25 C 82.472656 59.25 63.859375 66.980469 49.800781 81.007812 C 35.773438 95.019531 28.042969 113.648438 28.042969 133.496094 C 28.042969 153.328125 35.773438 171.976562 49.800781 185.988281 L 195.859375 332.046875 C 201.203125 337.390625 201.203125 346.074219 195.859375 351.417969 C 193.183594 354.097656 189.6875 355.4375 186.175781 355.4375 Z M 186.128906 355.421875 " fill-opacity="1" fill-rule="nonzero"/></g><path fill="#ffffff" d="M 177.335938 134.34375 L 197.507812 134.34375 C 198.410156 134.34375 199.300781 134.429688 200.183594 134.605469 C 201.0625 134.78125 201.921875 135.042969 202.753906 135.386719 C 203.582031 135.730469 204.375 136.152344 205.121094 136.652344 C 205.871094 137.152344 206.5625 137.722656 207.199219 138.359375 C 207.835938 138.992188 208.402344 139.6875 208.902344 140.433594 C 209.402344 141.183594 209.824219 141.972656 210.167969 142.804688 C 210.511719 143.632812 210.773438 144.492188 210.949219 145.375 C 211.125 146.257812 211.210938 147.148438 211.210938 148.046875 L 211.210938 236.582031 C 211.210938 237.484375 211.125 238.375 210.949219 239.257812 C 210.773438 240.140625 210.511719 240.996094 210.167969 241.828125 C 209.824219 242.660156 209.402344 243.449219 208.902344 244.195312 C 208.402344 244.945312 207.835938 245.636719 207.199219 246.273438 C 206.5625 246.910156 205.871094 247.476562 205.121094 247.976562 C 204.375 248.476562 203.582031 248.898438 202.753906 249.246094 C 201.921875 249.589844 201.0625 249.847656 200.183594 250.023438 C 199.300781 250.199219 198.410156 250.289062 197.507812 250.289062 L 177.335938 250.289062 C 176.4375 250.289062 175.546875 250.199219 174.664062 250.023438 C 173.78125 249.847656 172.925781 249.589844 172.09375 249.246094 C 171.261719 248.898438 170.472656 248.476562 169.722656 247.976562 C 168.976562 247.476562 168.285156 246.910156 167.648438 246.273438 C 167.011719 245.636719 166.441406 244.945312 165.941406 244.195312 C 165.441406 243.449219 165.019531 242.660156 164.675781 241.828125 C 164.332031 240.996094 164.074219 240.140625 163.898438 239.257812 C 163.722656 238.375 163.632812 237.484375 163.632812 236.582031 L 163.632812 148.046875 C 163.632812 147.148438 163.722656 146.257812 163.898438 145.375 C 164.074219 144.492188 164.332031 143.632812 164.675781 142.804688 C 165.019531 141.972656 165.441406 141.183594 165.941406 140.433594 C 166.441406 139.6875 167.011719 138.992188 167.648438 138.359375 C 168.285156 137.722656 168.976562 137.152344 169.722656 136.652344 C 170.472656 136.152344 171.261719 135.730469 172.09375 135.386719 C 172.925781 135.042969 173.78125 134.78125 174.664062 134.605469 C 175.546875 134.429688 176.4375 134.34375 177.335938 134.34375 Z M 177.335938 134.34375 " fill-opacity="1" fill-rule="nonzero"/><path fill="#ffffff" d="M 143.15625 168.527344 L 231.691406 168.527344 C 232.589844 168.527344 233.480469 168.613281 234.363281 168.789062 C 235.246094 168.964844 236.105469 169.226562 236.933594 169.570312 C 237.765625 169.914062 238.554688 170.335938 239.304688 170.835938 C 240.050781 171.335938 240.746094 171.902344 241.382812 172.539062 C 242.015625 173.175781 242.585938 173.867188 243.085938 174.617188 C 243.585938 175.363281 244.007812 176.15625 244.351562 176.984375 C 244.695312 177.816406 244.957031 178.675781 245.132812 179.558594 C 245.308594 180.4375 245.394531 181.332031 245.394531 182.230469 L 245.394531 202.402344 C 245.394531 203.300781 245.308594 204.191406 245.132812 205.074219 C 244.957031 205.957031 244.695312 206.8125 244.351562 207.644531 C 244.007812 208.476562 243.585938 209.265625 243.085938 210.015625 C 242.585938 210.761719 242.015625 211.453125 241.382812 212.089844 C 240.746094 212.726562 240.050781 213.296875 239.304688 213.796875 C 238.554688 214.296875 237.765625 214.71875 236.933594 215.0625 C 236.105469 215.40625 235.246094 215.667969 234.363281 215.839844 C 233.480469 216.015625 232.589844 216.105469 231.691406 216.105469 L 143.15625 216.105469 C 142.253906 216.105469 141.363281 216.015625 140.480469 215.839844 C 139.597656 215.667969 138.742188 215.40625 137.910156 215.0625 C 137.078125 214.71875 136.289062 214.296875 135.542969 213.796875 C 134.792969 213.296875 134.101562 212.726562 133.464844 212.089844 C 132.828125 211.453125 132.261719 210.761719 131.761719 210.015625 C 131.261719 209.265625 130.839844 208.476562 130.496094 207.644531 C 130.148438 206.8125 129.890625 205.957031 129.714844 205.074219 C 129.539062 204.191406 129.449219 203.300781 129.449219 202.402344 L 129.449219 182.230469 C 129.449219 181.332031 129.539062 180.4375 129.714844 179.558594 C 129.890625 178.675781 130.148438 177.816406 130.496094 176.984375 C 130.839844 176.15625 131.261719 175.363281 131.761719 174.617188 C 132.261719 173.867188 132.828125 173.175781 133.464844 172.539062 C 134.101562 171.902344 134.792969 171.335938 135.542969 170.835938 C 136.289062 170.335938 137.078125 169.914062 137.910156 169.570312 C 138.742188 169.226562 139.597656 168.964844 140.480469 168.789062 C 141.363281 168.613281 142.253906 168.527344 143.15625 168.527344 Z M 143.15625 168.527344 " fill-opacity="1" fill-rule="nonzero"/></svg>