<svg xmlns="http://www.w3.org/2000/svg" xmlns:xlink="http://www.w3.org/1999/xlink" width="500" zoomAndPan="magnify" viewBox="0 0 375 374.999991" height="500" preserveAspectRatio="xMidYMid meet" version="1.0"><defs><clipPath id="80236bf431"><path d="M 0.0078125 148.253906 L 374.992188 148.253906 L 374.992188 349.011719 L 0.0078125 349.011719 Z M 0.0078125 148.253906 " clip-rule="nonzero"/></clipPath><clipPath id="fa4e2258c1"><path d="M 214 25.761719 L 309 25.761719 L 309 172 L 214 172 Z M 214 25.761719 " clip-rule="nonzero"/></clipPath><clipPath id="923848dc60"><path d="M 67 25.761719 L 161 25.761719 L 161 172 L 67 172 Z M 67 25.761719 " clip-rule="nonzero"/></clipPath></defs><g clip-path="url(#80236bf431)"><path fill="#004000" d="M 322.671875 148.308594 C 325.863281 154.535156 326.601562 161.609375 324.777344 168.402344 C 322.847656 175.671875 318.179688 181.769531 311.648438 185.523438 C 307.351562 187.996094 302.492188 189.320312 297.542969 189.320312 C 287.496094 189.320312 278.121094 183.894531 273.109375 175.214844 L 257.570312 148.308594 L 118.058594 148.308594 L 102.542969 175.195312 C 97.507812 183.894531 88.15625 189.320312 78.085938 189.320312 C 73.160156 189.320312 68.277344 187.996094 64.003906 185.523438 C 57.46875 181.769531 52.804688 175.671875 50.851562 168.402344 C 49.027344 161.609375 49.789062 154.511719 52.976562 148.308594 L 10.855469 148.308594 C 4.863281 148.308594 0.0078125 153.164062 0.0078125 159.15625 L 0.0078125 184.9375 C 0.0078125 190.929688 4.863281 195.789062 10.855469 195.789062 L 26.328125 195.789062 L 72.015625 341.625 C 73.429688 346.152344 77.625 349.230469 82.367188 349.230469 L 283.800781 349.230469 C 288.363281 349.230469 292.441406 346.375 294 342.085938 L 347.128906 195.789062 L 364.140625 195.789062 C 370.136719 195.789062 374.992188 190.929688 374.992188 184.9375 L 374.992188 159.15625 C 374.992188 153.164062 370.136719 148.308594 364.140625 148.308594 L 322.671875 148.308594 " fill-opacity="1" fill-rule="nonzero"/></g><g clip-path="url(#fa4e2258c1)"><path fill="#004000" d="M 277.621094 148.304688 L 288.148438 166.535156 C 290.144531 170.007812 293.789062 171.960938 297.542969 171.960938 C 299.386719 171.960938 301.253906 171.484375 302.96875 170.507812 C 308.15625 167.492188 309.933594 160.871094 306.9375 155.683594 L 302.6875 148.304688 L 235.066406 31.1875 C 233.050781 27.714844 229.402344 25.761719 225.671875 25.761719 C 223.824219 25.761719 221.960938 26.242188 220.246094 27.21875 C 215.058594 30.210938 213.28125 36.851562 216.273438 42.039062 L 277.621094 148.304688 " fill-opacity="1" fill-rule="nonzero"/></g><g clip-path="url(#923848dc60)"><path fill="#004000" d="M 72.683594 170.507812 C 74.398438 171.484375 76.261719 171.960938 78.085938 171.960938 C 81.839844 171.960938 85.484375 170.007812 87.503906 166.535156 L 98.027344 148.304688 L 159.375 42.039062 C 162.371094 36.851562 160.589844 30.210938 155.40625 27.21875 C 153.691406 26.242188 151.824219 25.761719 149.980469 25.761719 C 146.226562 25.761719 142.582031 27.714844 140.582031 31.1875 L 72.964844 148.304688 L 68.710938 155.683594 C 65.714844 160.871094 67.496094 167.492188 72.683594 170.507812 " fill-opacity="1" fill-rule="nonzero"/></g><path fill="#ffffff" d="M 262.363281 319.566406 C 256.371094 319.566406 251.515625 314.710938 251.515625 308.71875 L 251.515625 237.886719 C 251.515625 231.894531 256.371094 227.039062 262.363281 227.039062 C 268.359375 227.039062 273.214844 231.894531 273.214844 237.886719 L 273.214844 308.71875 C 273.214844 314.710938 268.359375 319.566406 262.363281 319.566406 " fill-opacity="1" fill-rule="nonzero"/><path fill="#ffffff" d="M 212.453125 319.566406 C 206.460938 319.566406 201.605469 314.710938 201.605469 308.71875 L 201.605469 237.886719 C 201.605469 231.894531 206.460938 227.039062 212.453125 227.039062 C 218.445312 227.039062 223.304688 231.894531 223.304688 237.886719 L 223.304688 308.71875 C 223.304688 314.710938 218.445312 319.566406 212.453125 319.566406 " fill-opacity="1" fill-rule="nonzero"/><path fill="#ffffff" d="M 162.546875 319.566406 C 156.550781 319.566406 151.695312 314.710938 151.695312 308.71875 L 151.695312 237.886719 C 151.695312 231.894531 156.550781 227.039062 162.546875 227.039062 C 168.539062 227.039062 173.394531 231.894531 173.394531 237.886719 L 173.394531 308.71875 C 173.394531 314.710938 168.539062 319.566406 162.546875 319.566406 " fill-opacity="1" fill-rule="nonzero"/><path fill="#ffffff" d="M 112.632812 319.566406 C 106.640625 319.566406 101.78125 314.710938 101.78125 308.71875 L 101.78125 237.886719 C 101.78125 231.894531 106.640625 227.039062 112.632812 227.039062 C 118.625 227.039062 123.484375 231.894531 123.484375 237.886719 L 123.484375 308.71875 C 123.484375 314.710938 118.625 319.566406 112.632812 319.566406 " fill-opacity="1" fill-rule="nonzero"/></svg>