<svg xmlns="http://www.w3.org/2000/svg" xmlns:xlink="http://www.w3.org/1999/xlink" width="500" zoomAndPan="magnify" viewBox="0 0 375 374.999991" height="500" preserveAspectRatio="xMidYMid meet" version="1.0"><defs><clipPath id="0c70df5e1a"><path d="M 0.0078125 134.332031 L 374.992188 134.332031 L 374.992188 335.089844 L 0.0078125 335.089844 Z M 0.0078125 134.332031 " clip-rule="nonzero"/></clipPath><clipPath id="01215fc768"><path d="M 214 11.839844 L 309 11.839844 L 309 159 L 214 159 Z M 214 11.839844 " clip-rule="nonzero"/></clipPath><clipPath id="8ccd777651"><path d="M 67 11.839844 L 161 11.839844 L 161 159 L 67 159 Z M 67 11.839844 " clip-rule="nonzero"/></clipPath></defs><g clip-path="url(#0c70df5e1a)"><path fill="#004000" d="M 322.671875 134.382812 C 325.863281 140.609375 326.601562 147.6875 324.777344 154.476562 C 322.847656 161.746094 318.179688 167.84375 311.648438 171.601562 C 307.351562 174.074219 302.492188 175.398438 297.542969 175.398438 C 287.496094 175.398438 278.121094 169.972656 273.109375 161.292969 L 257.570312 134.382812 L 118.058594 134.382812 L 102.542969 161.269531 C 97.507812 169.972656 88.15625 175.398438 78.085938 175.398438 C 73.160156 175.398438 68.277344 174.074219 64.003906 171.601562 C 57.46875 167.84375 52.804688 161.746094 50.851562 154.476562 C 49.027344 147.6875 49.789062 140.589844 52.976562 134.382812 L 10.855469 134.382812 C 4.863281 134.382812 0.0078125 139.242188 0.0078125 145.234375 L 0.0078125 171.015625 C 0.0078125 177.007812 4.863281 181.863281 10.855469 181.863281 L 26.328125 181.863281 L 72.015625 327.703125 C 73.429688 332.226562 77.625 335.308594 82.367188 335.308594 L 283.800781 335.308594 C 288.363281 335.308594 292.441406 332.453125 294 328.164062 L 347.128906 181.863281 L 364.140625 181.863281 C 370.136719 181.863281 374.992188 177.007812 374.992188 171.015625 L 374.992188 145.234375 C 374.992188 139.242188 370.136719 134.382812 364.140625 134.382812 L 322.671875 134.382812 " fill-opacity="1" fill-rule="nonzero"/></g><g clip-path="url(#01215fc768)"><path fill="#004000" d="M 277.621094 134.382812 L 288.148438 152.613281 C 290.144531 156.085938 293.789062 158.039062 297.542969 158.039062 C 299.386719 158.039062 301.253906 157.558594 302.96875 156.582031 C 308.15625 153.566406 309.933594 146.949219 306.9375 141.761719 L 302.6875 134.382812 L 235.066406 17.265625 C 233.050781 13.792969 229.402344 11.839844 225.671875 11.839844 C 223.824219 11.839844 221.960938 12.316406 220.246094 13.292969 C 215.058594 16.289062 213.28125 22.929688 216.273438 28.113281 L 277.621094 134.382812 " fill-opacity="1" fill-rule="nonzero"/></g><g clip-path="url(#8ccd777651)"><path fill="#004000" d="M 72.683594 156.582031 C 74.398438 157.558594 76.261719 158.039062 78.085938 158.039062 C 81.839844 158.039062 85.484375 156.085938 87.503906 152.613281 L 98.027344 134.382812 L 159.375 28.113281 C 162.371094 22.929688 160.589844 16.289062 155.40625 13.292969 C 153.691406 12.316406 151.824219 11.839844 149.980469 11.839844 C 146.226562 11.839844 142.582031 13.792969 140.582031 17.265625 L 72.964844 134.382812 L 68.710938 141.761719 C 65.714844 146.949219 67.496094 153.566406 72.683594 156.582031 " fill-opacity="1" fill-rule="nonzero"/></g><path fill="#ffd778" d="M 262.363281 305.644531 C 256.371094 305.644531 251.515625 300.789062 251.515625 294.792969 L 251.515625 223.964844 C 251.515625 217.972656 256.371094 213.113281 262.363281 213.113281 C 268.359375 213.113281 273.214844 217.972656 273.214844 223.964844 L 273.214844 294.792969 C 273.214844 300.789062 268.359375 305.644531 262.363281 305.644531 " fill-opacity="1" fill-rule="nonzero"/><path fill="#ffd778" d="M 212.453125 305.644531 C 206.460938 305.644531 201.605469 300.789062 201.605469 294.792969 L 201.605469 223.964844 C 201.605469 217.972656 206.460938 213.113281 212.453125 213.113281 C 218.445312 213.113281 223.304688 217.972656 223.304688 223.964844 L 223.304688 294.792969 C 223.304688 300.789062 218.445312 305.644531 212.453125 305.644531 " fill-opacity="1" fill-rule="nonzero"/><path fill="#ffd778" d="M 162.546875 305.644531 C 156.550781 305.644531 151.695312 300.789062 151.695312 294.792969 L 151.695312 223.964844 C 151.695312 217.972656 156.550781 213.113281 162.546875 213.113281 C 168.539062 213.113281 173.394531 217.972656 173.394531 223.964844 L 173.394531 294.792969 C 173.394531 300.789062 168.539062 305.644531 162.546875 305.644531 " fill-opacity="1" fill-rule="nonzero"/><path fill="#ffd778" d="M 112.632812 305.644531 C 106.640625 305.644531 101.78125 300.789062 101.78125 294.792969 L 101.78125 223.964844 C 101.78125 217.972656 106.640625 213.113281 112.632812 213.113281 C 118.625 213.113281 123.484375 217.972656 123.484375 223.964844 L 123.484375 294.792969 C 123.484375 300.789062 118.625 305.644531 112.632812 305.644531 " fill-opacity="1" fill-rule="nonzero"/></svg>