<svg xmlns="http://www.w3.org/2000/svg" xmlns:xlink="http://www.w3.org/1999/xlink" width="500" zoomAndPan="magnify" viewBox="0 0 375 374.999991" height="500" preserveAspectRatio="xMidYMid meet" version="1.0"><defs><clipPath id="cf4c6c666d"><path d="M 236 159 L 296 159 L 296 215.90625 L 236 215.90625 Z M 236 159 " clip-rule="nonzero"/></clipPath><clipPath id="c48c87f76d"><path d="M 315 160 L 375 160 L 375 215.90625 L 315 215.90625 Z M 315 160 " clip-rule="nonzero"/></clipPath><clipPath id="914ac2e29b"><path d="M 158 158.90625 L 217 158.90625 L 217 215.90625 L 158 215.90625 Z M 158 158.90625 " clip-rule="nonzero"/></clipPath><clipPath id="f26254b374"><path d="M 79 159 L 139 159 L 139 215.90625 L 79 215.90625 Z M 79 159 " clip-rule="nonzero"/></clipPath><clipPath id="b2146ae12a"><path d="M 0 160 L 60 160 L 60 215.90625 L 0 215.90625 Z M 0 160 " clip-rule="nonzero"/></clipPath><clipPath id="208cccca08"><path d="M 178.246094 182.769531 L 196.996094 182.769531 L 196.996094 201.519531 L 178.246094 201.519531 Z M 178.246094 182.769531 " clip-rule="nonzero"/></clipPath></defs><g clip-path="url(#cf4c6c666d)"><path fill="#ffb300" d="M 266.199219 159.492188 C 266.160156 159.492188 266.121094 159.519531 266.101562 159.554688 L 257.523438 177.167969 C 257.179688 177.871094 256.5 178.355469 255.71875 178.445312 L 236.53125 180.714844 C 236.472656 180.71875 236.429688 180.769531 236.433594 180.832031 C 236.4375 180.875 236.464844 180.914062 236.503906 180.929688 L 236.492188 180.929688 L 251.433594 195.011719 C 252.03125 195.570312 252.285156 196.40625 252.101562 197.203125 L 247.917969 215.433594 C 247.90625 215.476562 247.921875 215.519531 247.960938 215.546875 C 247.980469 215.5625 248.003906 215.566406 248.027344 215.566406 C 248.042969 215.566406 248.0625 215.5625 248.082031 215.554688 L 265.382812 205.621094 C 265.738281 205.417969 266.132812 205.316406 266.527344 205.316406 C 266.929688 205.316406 267.328125 205.421875 267.6875 205.628906 L 284.75 215.554688 C 284.765625 215.566406 284.785156 215.570312 284.804688 215.570312 C 284.824219 215.570312 284.84375 215.566406 284.859375 215.554688 C 284.894531 215.535156 284.914062 215.5 284.914062 215.460938 L 284.914062 215.433594 L 280.550781 195.890625 C 280.371094 195.085938 280.632812 194.246094 281.242188 193.691406 L 294.984375 181.101562 C 295.015625 181.074219 295.027344 181.03125 295.015625 180.988281 C 295.003906 180.949219 294.96875 180.917969 294.925781 180.910156 L 277.082031 178.019531 C 276.367188 177.902344 275.75 177.457031 275.414062 176.820312 L 266.300781 159.550781 C 266.28125 159.515625 266.242188 159.492188 266.203125 159.492188 Z M 266.199219 159.492188 " fill-opacity="0.996" fill-rule="nonzero"/></g><g clip-path="url(#c48c87f76d)"><path fill="#ffb300" d="M 344.902344 160.050781 C 344.898438 160.050781 344.898438 160.050781 344.898438 160.050781 C 344.855469 160.050781 344.816406 160.078125 344.800781 160.117188 L 337.613281 176.917969 C 337.296875 177.65625 336.617188 178.179688 335.820312 178.292969 L 315.335938 181.203125 C 315.292969 181.210938 315.257812 181.238281 315.246094 181.28125 C 315.234375 181.320312 315.246094 181.363281 315.277344 181.394531 L 328.636719 194.097656 C 329.175781 194.609375 329.433594 195.351562 329.332031 196.085938 L 326.566406 215.910156 C 326.5625 215.953125 326.578125 215.996094 326.613281 216.019531 C 326.632812 216.03125 326.65625 216.039062 326.679688 216.039062 C 326.695312 216.039062 326.714844 216.03125 326.730469 216.023438 L 344.441406 206.039062 C 344.789062 205.839844 345.179688 205.742188 345.570312 205.742188 C 345.976562 205.742188 346.378906 205.847656 346.738281 206.058594 L 363.210938 215.746094 C 363.230469 215.753906 363.25 215.757812 363.269531 215.757812 C 363.289062 215.757812 363.3125 215.753906 363.332031 215.738281 C 363.367188 215.714844 363.386719 215.671875 363.378906 215.628906 L 359.738281 196.441406 C 359.597656 195.679688 359.84375 194.898438 360.394531 194.359375 L 374.449219 180.667969 L 374.484375 180.589844 L 374.484375 180.585938 C 374.484375 180.53125 374.441406 180.484375 374.386719 180.476562 L 355.335938 178.113281 C 354.578125 178.019531 353.917969 177.558594 353.566406 176.875 L 345 160.109375 C 344.980469 160.074219 344.941406 160.050781 344.902344 160.050781 Z M 344.902344 160.050781 " fill-opacity="0.996" fill-rule="nonzero"/></g><g clip-path="url(#914ac2e29b)"><path fill="#ffb300" d="M 187.710938 158.890625 L 187.191406 158.980469 L 178.054688 177.292969 C 177.945312 177.542969 177.738281 177.796875 177.433594 178.0625 C 177.023438 178.359375 176.648438 178.519531 176.308594 178.546875 L 158.507812 181.070312 L 171.992188 193.628906 C 172.195312 193.828125 172.375 194.121094 172.527344 194.5 C 172.640625 194.894531 172.679688 195.234375 172.640625 195.519531 L 169.457031 214.996094 C 169.503906 215.0625 169.554688 215.078125 169.617188 215.046875 L 186.050781 205.304688 C 186.382812 205.136719 186.894531 205.058594 187.597656 205.070312 C 188.289062 205.09375 188.773438 205.207031 189.046875 205.40625 L 205.421875 215.042969 L 202.28125 195.519531 C 202.242188 195.234375 202.277344 194.894531 202.394531 194.5 C 202.542969 194.117188 202.722656 193.828125 202.929688 193.628906 L 216.414062 181.074219 L 198.613281 178.546875 C 198.273438 178.519531 197.898438 178.359375 197.484375 178.0625 C 197.183594 177.796875 196.976562 177.542969 196.867188 177.292969 Z M 187.710938 158.890625 " fill-opacity="0.996" fill-rule="nonzero"/></g><g clip-path="url(#f26254b374)"><path fill="#ffb300" d="M 108.714844 159.492188 C 108.675781 159.492188 108.636719 159.515625 108.617188 159.550781 L 99.507812 176.820312 C 99.167969 177.457031 98.550781 177.902344 97.835938 178.019531 L 79.996094 180.914062 L 79.984375 180.914062 C 79.980469 180.914062 79.972656 180.917969 79.96875 180.917969 C 79.925781 180.9375 79.898438 180.976562 79.898438 181.019531 L 79.902344 181.019531 C 79.902344 181.050781 79.914062 181.082031 79.9375 181.105469 L 93.675781 193.691406 C 94.285156 194.246094 94.550781 195.085938 94.371094 195.890625 L 90.007812 215.433594 C 89.996094 215.476562 90.011719 215.523438 90.050781 215.546875 C 90.070312 215.5625 90.089844 215.570312 90.113281 215.570312 C 90.132812 215.570312 90.152344 215.5625 90.171875 215.554688 L 107.230469 205.628906 C 107.589844 205.421875 107.988281 205.316406 108.390625 205.316406 C 108.789062 205.316406 109.183594 205.417969 109.539062 205.621094 L 126.839844 215.554688 C 126.855469 215.5625 126.875 215.566406 126.894531 215.566406 C 126.917969 215.566406 126.941406 215.5625 126.960938 215.546875 C 126.996094 215.519531 127.011719 215.476562 127.003906 215.433594 L 122.820312 197.203125 C 122.636719 196.40625 122.890625 195.570312 123.484375 195.011719 L 138.453125 180.90625 L 138.488281 180.824219 C 138.488281 180.765625 138.445312 180.71875 138.390625 180.710938 L 119.199219 178.445312 C 118.417969 178.355469 117.742188 177.871094 117.398438 177.167969 L 108.816406 159.554688 C 108.796875 159.519531 108.761719 159.492188 108.71875 159.492188 Z M 108.714844 159.492188 " fill-opacity="0.996" fill-rule="nonzero"/></g><g clip-path="url(#b2146ae12a)"><path fill="#ffb300" d="M 30.019531 160.050781 C 29.976562 160.050781 29.9375 160.074219 29.917969 160.109375 L 21.351562 176.875 C 21.003906 177.558594 20.339844 178.019531 19.582031 178.113281 L 0.535156 180.476562 C 0.476562 180.484375 0.433594 180.535156 0.4375 180.59375 C 0.4375 180.636719 0.464844 180.671875 0.503906 180.691406 L 0.492188 180.691406 L 14.523438 194.359375 C 15.078125 194.898438 15.324219 195.679688 15.179688 196.441406 L 11.542969 215.628906 C 11.535156 215.671875 11.550781 215.714844 11.585938 215.738281 C 11.605469 215.753906 11.628906 215.757812 11.652344 215.757812 C 11.671875 215.757812 11.691406 215.753906 11.707031 215.746094 L 28.179688 206.058594 C 28.539062 205.847656 28.945312 205.742188 29.347656 205.742188 C 29.738281 205.742188 30.128906 205.839844 30.480469 206.039062 L 48.1875 216.023438 C 48.203125 216.03125 48.222656 216.039062 48.242188 216.039062 C 48.261719 216.039062 48.285156 216.03125 48.304688 216.019531 C 48.339844 215.996094 48.359375 215.953125 48.351562 215.910156 L 45.585938 196.085938 C 45.484375 195.351562 45.742188 194.609375 46.28125 194.097656 L 59.644531 181.394531 C 59.675781 181.363281 59.6875 181.320312 59.671875 181.28125 C 59.660156 181.238281 59.625 181.210938 59.582031 181.203125 L 39.097656 178.292969 C 38.300781 178.179688 37.621094 177.65625 37.304688 176.917969 L 30.121094 160.117188 C 30.101562 160.078125 30.066406 160.050781 30.023438 160.050781 C 30.019531 160.050781 30.019531 160.050781 30.019531 160.050781 Z M 30.019531 160.050781 " fill-opacity="0.996" fill-rule="nonzero"/></g><g clip-path="url(#208cccca08)"><path fill="#ffb300" d="M 178.246094 182.769531 L 196.75 182.769531 L 196.75 201.269531 L 178.246094 201.269531 Z M 178.246094 182.769531 " fill-opacity="1" fill-rule="nonzero"/></g></svg>