<svg xmlns="http://www.w3.org/2000/svg" xmlns:xlink="http://www.w3.org/1999/xlink" width="500" zoomAndPan="magnify" viewBox="0 0 375 374.999991" height="500" preserveAspectRatio="xMidYMid meet" version="1.0"><defs><clipPath id="becd13b961"><path d="M 102 130 L 209 130 L 209 265.199219 L 102 265.199219 Z M 102 130 " clip-rule="nonzero"/></clipPath></defs><path fill="#004000" d="M 369.1875 339.148438 L 301.726562 271.785156 C 303.769531 269.144531 305.726562 266.445312 307.597656 263.679688 C 309.46875 260.917969 311.253906 258.097656 312.945312 255.222656 C 314.640625 252.347656 316.246094 249.421875 317.753906 246.445312 C 319.265625 243.472656 320.683594 240.449219 322.003906 237.386719 C 323.324219 234.320312 324.546875 231.214844 325.671875 228.074219 C 326.800781 224.933594 327.824219 221.757812 328.75 218.550781 C 329.675781 215.347656 330.5 212.113281 331.226562 208.855469 C 331.949219 205.597656 332.566406 202.320312 333.085938 199.023438 C 333.601562 195.722656 334.015625 192.414062 334.324219 189.089844 C 334.632812 185.769531 334.835938 182.4375 334.933594 179.101562 C 335.035156 175.765625 335.027344 172.429688 334.917969 169.09375 C 334.808594 165.757812 334.59375 162.429688 334.273438 159.109375 C 333.953125 155.785156 333.53125 152.476562 333.003906 149.179688 C 332.476562 145.886719 331.84375 142.609375 331.109375 139.355469 C 330.378906 136.097656 329.542969 132.867188 328.605469 129.664062 C 327.667969 126.460938 326.632812 123.292969 325.496094 120.152344 C 324.359375 117.015625 323.125 113.914062 321.796875 110.855469 C 320.464844 107.792969 319.039062 104.777344 317.519531 101.808594 C 315.996094 98.835938 314.386719 95.914062 312.679688 93.046875 C 310.976562 90.175781 309.183594 87.363281 307.304688 84.605469 C 305.421875 81.847656 303.457031 79.152344 301.40625 76.519531 C 299.355469 73.886719 297.222656 71.320312 295.011719 68.820312 C 292.800781 66.324219 290.511719 63.894531 288.148438 61.539062 C 285.78125 59.183594 283.347656 56.90625 280.839844 54.703125 C 278.332031 52.5 275.757812 50.378906 273.113281 48.339844 C 270.472656 46.296875 267.769531 44.34375 265.007812 42.472656 C 262.242188 40.601562 259.421875 38.820312 256.546875 37.128906 C 253.671875 35.433594 250.742188 33.832031 247.765625 32.324219 C 244.789062 30.816406 241.769531 29.402344 238.703125 28.082031 C 235.636719 26.761719 232.535156 25.539062 229.390625 24.417969 C 226.25 23.292969 223.074219 22.269531 219.867188 21.34375 C 216.660156 20.417969 213.425781 19.597656 210.167969 18.875 C 206.910156 18.15625 203.632812 17.535156 200.332031 17.019531 C 197.035156 16.507812 193.726562 16.09375 190.402344 15.789062 C 187.078125 15.480469 183.75 15.28125 180.414062 15.183594 C 177.078125 15.085938 173.742188 15.089844 170.40625 15.203125 C 167.070312 15.316406 163.742188 15.53125 160.417969 15.855469 C 157.097656 16.175781 153.789062 16.601562 150.492188 17.132812 C 147.199219 17.660156 143.921875 18.292969 140.667969 19.027344 C 137.410156 19.765625 134.183594 20.601562 130.980469 21.539062 C 127.777344 22.476562 124.605469 23.515625 121.46875 24.652344 C 118.332031 25.792969 115.234375 27.027344 112.171875 28.359375 C 109.113281 29.691406 106.097656 31.121094 103.128906 32.640625 C 100.15625 34.164062 97.238281 35.777344 94.371094 37.484375 C 91.5 39.191406 88.6875 40.984375 85.933594 42.867188 C 83.175781 44.75 80.484375 46.71875 77.851562 48.769531 C 75.21875 50.820312 72.652344 52.953125 70.15625 55.167969 C 67.65625 57.378906 65.230469 59.671875 62.875 62.035156 C 60.523438 64.402344 58.246094 66.839844 56.042969 69.347656 C 53.84375 71.855469 51.722656 74.433594 49.683594 77.074219 C 47.644531 79.71875 45.691406 82.421875 43.824219 85.1875 C 41.953125 87.953125 40.171875 90.773438 38.480469 93.648438 C 36.789062 96.527344 35.191406 99.453125 33.683594 102.433594 C 32.175781 105.410156 30.761719 108.433594 29.445312 111.5 C 28.128906 114.566406 26.910156 117.667969 25.785156 120.8125 C 24.664062 123.957031 23.640625 127.132812 22.71875 130.339844 C 21.796875 133.546875 20.976562 136.78125 20.257812 140.039062 C 19.535156 143.296875 18.921875 146.574219 18.40625 149.875 C 17.894531 153.171875 17.484375 156.484375 17.179688 159.804688 C 16.875 163.128906 16.675781 166.460938 16.578125 169.796875 C 16.484375 173.132812 16.492188 176.46875 16.605469 179.804688 C 16.722656 183.140625 16.941406 186.46875 17.261719 189.789062 C 17.585938 193.109375 18.015625 196.417969 18.546875 199.714844 C 19.078125 203.007812 19.710938 206.285156 20.449219 209.539062 C 21.183594 212.792969 22.023438 216.023438 22.964844 219.226562 C 23.90625 222.429688 24.945312 225.597656 26.085938 228.734375 C 27.222656 231.871094 28.460938 234.96875 29.796875 238.027344 C 31.128906 241.085938 32.558594 244.101562 34.082031 247.070312 C 35.605469 250.039062 37.222656 252.960938 38.929688 255.828125 C 40.636719 258.695312 42.433594 261.507812 44.316406 264.261719 C 46.203125 267.015625 48.171875 269.707031 50.222656 272.339844 C 52.277344 274.96875 54.410156 277.535156 56.625 280.03125 C 58.839844 282.527344 61.132812 284.953125 63.5 287.304688 C 65.867188 289.660156 68.304688 291.933594 70.816406 294.132812 C 73.324219 296.332031 75.902344 298.453125 78.546875 300.488281 C 81.1875 302.527344 83.894531 304.480469 86.660156 306.347656 C 89.425781 308.214844 92.25 309.992188 95.125 311.683594 C 98.003906 313.371094 100.933594 314.96875 103.910156 316.476562 C 106.890625 317.980469 109.914062 319.394531 112.980469 320.707031 C 116.046875 322.023438 119.152344 323.242188 122.296875 324.363281 C 125.441406 325.484375 128.617188 326.503906 131.824219 327.425781 C 135.03125 328.347656 138.265625 329.164062 141.523438 329.882812 C 144.785156 330.601562 148.0625 331.214844 151.363281 331.726562 C 154.660156 332.238281 157.972656 332.644531 161.292969 332.949219 C 164.617188 333.25 167.949219 333.449219 171.285156 333.542969 C 174.621094 333.636719 177.957031 333.625 181.292969 333.511719 C 184.628906 333.394531 187.957031 333.171875 191.277344 332.847656 C 194.597656 332.523438 197.90625 332.09375 201.203125 331.558594 C 204.496094 331.027344 207.773438 330.390625 211.027344 329.652344 C 214.28125 328.914062 217.507812 328.070312 220.710938 327.128906 C 223.914062 326.1875 227.082031 325.144531 230.21875 324.003906 C 233.355469 322.863281 236.453125 321.625 239.511719 320.289062 C 242.570312 318.953125 245.582031 317.523438 248.550781 315.996094 C 251.519531 314.46875 254.4375 312.851562 257.304688 311.144531 C 260.171875 309.433594 262.980469 307.636719 265.734375 305.753906 C 268.488281 303.867188 271.179688 301.894531 273.808594 299.839844 L 341.171875 367.300781 C 341.632812 367.746094 342.117188 368.171875 342.617188 368.570312 C 343.121094 368.96875 343.644531 369.34375 344.183594 369.691406 C 344.722656 370.042969 345.277344 370.363281 345.847656 370.660156 C 346.421875 370.953125 347.003906 371.21875 347.601562 371.457031 C 348.199219 371.695312 348.804688 371.90625 349.421875 372.085938 C 350.039062 372.261719 350.664062 372.414062 351.296875 372.53125 C 351.925781 372.648438 352.5625 372.738281 353.203125 372.792969 C 353.84375 372.851562 354.484375 372.875 355.125 372.871094 C 355.769531 372.863281 356.410156 372.828125 357.050781 372.761719 C 357.6875 372.691406 358.324219 372.59375 358.953125 372.464844 C 359.582031 372.335938 360.203125 372.175781 360.816406 371.984375 C 361.429688 371.796875 362.035156 371.574219 362.625 371.328125 C 363.21875 371.078125 363.796875 370.800781 364.363281 370.496094 C 364.929688 370.191406 365.480469 369.863281 366.011719 369.503906 C 366.546875 369.144531 367.0625 368.761719 367.558594 368.355469 C 368.054688 367.945312 368.53125 367.515625 368.984375 367.058594 C 369.4375 366.605469 369.871094 366.128906 370.277344 365.632812 C 370.6875 365.136719 371.070312 364.621094 371.429688 364.089844 C 371.785156 363.554688 372.117188 363.003906 372.421875 362.441406 C 372.726562 361.875 373.003906 361.296875 373.253906 360.703125 C 373.5 360.109375 373.71875 359.507812 373.910156 358.890625 C 374.097656 358.277344 374.257812 357.65625 374.390625 357.027344 C 374.519531 356.398438 374.617188 355.765625 374.683594 355.125 C 374.753906 354.484375 374.789062 353.84375 374.792969 353.203125 C 374.800781 352.558594 374.773438 351.917969 374.71875 351.277344 C 374.660156 350.636719 374.574219 350.003906 374.457031 349.371094 C 374.335938 348.738281 374.1875 348.113281 374.007812 347.496094 C 373.828125 346.878906 373.621094 346.273438 373.382812 345.675781 C 373.144531 345.078125 372.878906 344.496094 372.582031 343.925781 C 372.289062 343.355469 371.964844 342.796875 371.617188 342.257812 C 371.269531 341.71875 370.894531 341.199219 370.496094 340.695312 C 370.09375 340.191406 369.671875 339.707031 369.226562 339.246094 Z M 57.539062 174.601562 C 57.539062 172.65625 57.585938 170.707031 57.683594 168.761719 C 57.777344 166.816406 57.921875 164.875 58.113281 162.933594 C 58.304688 160.996094 58.542969 159.0625 58.828125 157.136719 C 59.113281 155.207031 59.445312 153.289062 59.828125 151.378906 C 60.207031 149.46875 60.632812 147.566406 61.105469 145.675781 C 61.582031 143.785156 62.101562 141.910156 62.664062 140.046875 C 63.230469 138.179688 63.84375 136.332031 64.5 134.496094 C 65.15625 132.664062 65.855469 130.84375 66.601562 129.046875 C 67.347656 127.246094 68.136719 125.464844 68.96875 123.703125 C 69.800781 121.941406 70.679688 120.203125 71.597656 118.484375 C 72.515625 116.765625 73.476562 115.070312 74.476562 113.402344 C 75.476562 111.730469 76.519531 110.082031 77.601562 108.464844 C 78.683594 106.84375 79.808594 105.25 80.96875 103.6875 C 82.128906 102.121094 83.328125 100.585938 84.5625 99.082031 C 85.796875 97.574219 87.070312 96.097656 88.378906 94.65625 C 89.6875 93.210938 91.03125 91.800781 92.40625 90.421875 C 93.785156 89.046875 95.195312 87.703125 96.640625 86.394531 C 98.082031 85.085938 99.558594 83.8125 101.0625 82.578125 C 102.570312 81.34375 104.105469 80.144531 105.671875 78.984375 C 107.234375 77.824219 108.828125 76.699219 110.449219 75.617188 C 112.066406 74.535156 113.714844 73.496094 115.382812 72.492188 C 117.054688 71.492188 118.75 70.53125 120.46875 69.613281 C 122.1875 68.695312 123.925781 67.820312 125.6875 66.984375 C 127.449219 66.152344 129.230469 65.363281 131.03125 64.617188 C 132.828125 63.871094 134.648438 63.171875 136.480469 62.515625 C 138.316406 61.859375 140.164062 61.246094 142.03125 60.683594 C 143.894531 60.117188 145.769531 59.597656 147.660156 59.125 C 149.550781 58.648438 151.453125 58.222656 153.363281 57.84375 C 155.273438 57.464844 157.191406 57.128906 159.121094 56.84375 C 161.046875 56.558594 162.980469 56.320312 164.917969 56.128906 C 166.859375 55.9375 168.800781 55.792969 170.746094 55.699219 C 172.691406 55.601562 174.640625 55.554688 176.585938 55.554688 C 178.535156 55.554688 180.484375 55.601562 182.429688 55.699219 C 184.375 55.792969 186.316406 55.9375 188.257812 56.128906 C 190.195312 56.320312 192.128906 56.558594 194.054688 56.84375 C 195.980469 57.128906 197.902344 57.464844 199.8125 57.84375 C 201.722656 58.222656 203.625 58.648438 205.511719 59.125 C 207.402344 59.597656 209.28125 60.117188 211.144531 60.683594 C 213.007812 61.246094 214.859375 61.859375 216.691406 62.515625 C 218.527344 63.171875 220.34375 63.871094 222.144531 64.617188 C 223.945312 65.363281 225.726562 66.152344 227.488281 66.984375 C 229.246094 67.820312 230.988281 68.695312 232.707031 69.613281 C 234.425781 70.53125 236.117188 71.492188 237.789062 72.492188 C 239.460938 73.496094 241.105469 74.535156 242.726562 75.617188 C 244.347656 76.699219 245.9375 77.824219 247.503906 78.984375 C 249.070312 80.144531 250.605469 81.34375 252.109375 82.578125 C 253.617188 83.8125 255.089844 85.085938 256.535156 86.394531 C 257.976562 87.703125 259.390625 89.046875 260.765625 90.421875 C 262.144531 91.800781 263.488281 93.210938 264.796875 94.65625 C 266.105469 96.097656 267.375 97.574219 268.613281 99.082031 C 269.847656 100.585938 271.046875 102.121094 272.207031 103.6875 C 273.367188 105.25 274.488281 106.84375 275.570312 108.464844 C 276.652344 110.082031 277.695312 111.730469 278.699219 113.402344 C 279.699219 115.070312 280.660156 116.765625 281.578125 118.484375 C 282.496094 120.203125 283.371094 121.941406 284.203125 123.703125 C 285.039062 125.464844 285.828125 127.246094 286.574219 129.046875 C 287.320312 130.84375 288.019531 132.664062 288.675781 134.496094 C 289.332031 136.332031 289.941406 138.179688 290.507812 140.046875 C 291.074219 141.910156 291.59375 143.785156 292.066406 145.675781 C 292.539062 147.566406 292.96875 149.46875 293.347656 151.378906 C 293.726562 153.289062 294.058594 155.207031 294.347656 157.136719 C 294.632812 159.0625 294.871094 160.996094 295.0625 162.933594 C 295.253906 164.875 295.394531 166.816406 295.492188 168.761719 C 295.585938 170.707031 295.636719 172.65625 295.636719 174.601562 C 295.636719 176.550781 295.585938 178.5 295.492188 180.445312 C 295.394531 182.390625 295.253906 184.332031 295.0625 186.273438 C 294.871094 188.210938 294.632812 190.144531 294.347656 192.070312 C 294.058594 194 293.726562 195.917969 293.347656 197.828125 C 292.96875 199.738281 292.539062 201.640625 292.066406 203.53125 C 291.59375 205.417969 291.074219 207.296875 290.507812 209.160156 C 289.941406 211.023438 289.332031 212.875 288.675781 214.710938 C 288.019531 216.542969 287.320312 218.359375 286.574219 220.160156 C 285.828125 221.960938 285.039062 223.742188 284.203125 225.503906 C 283.371094 227.265625 282.496094 229.003906 281.578125 230.722656 C 280.660156 232.441406 279.699219 234.132812 278.699219 235.804688 C 277.695312 237.476562 276.652344 239.121094 275.570312 240.742188 C 274.488281 242.363281 273.367188 243.953125 272.207031 245.519531 C 271.046875 247.085938 269.847656 248.621094 268.613281 250.125 C 267.375 251.632812 266.105469 253.105469 264.796875 254.550781 C 263.488281 255.996094 262.144531 257.40625 260.765625 258.78125 C 259.390625 260.160156 257.976562 261.503906 256.535156 262.8125 C 255.089844 264.121094 253.617188 265.390625 252.109375 266.628906 C 250.605469 267.863281 249.070312 269.0625 247.503906 270.222656 C 245.9375 271.382812 244.347656 272.503906 242.726562 273.585938 C 241.105469 274.671875 239.460938 275.710938 237.789062 276.714844 C 236.117188 277.714844 234.425781 278.675781 232.707031 279.59375 C 230.988281 280.511719 229.246094 281.386719 227.488281 282.222656 C 225.726562 283.054688 223.945312 283.84375 222.144531 284.589844 C 220.34375 285.335938 218.527344 286.035156 216.691406 286.691406 C 214.859375 287.347656 213.007812 287.960938 211.144531 288.523438 C 209.28125 289.089844 207.402344 289.609375 205.511719 290.082031 C 203.625 290.554688 201.722656 290.984375 199.8125 291.363281 C 197.902344 291.742188 195.980469 292.078125 194.054688 292.363281 C 192.128906 292.648438 190.195312 292.886719 188.257812 293.078125 C 186.316406 293.269531 184.375 293.410156 182.429688 293.507812 C 180.484375 293.601562 178.535156 293.652344 176.585938 293.652344 C 174.640625 293.648438 172.691406 293.597656 170.746094 293.5 C 168.800781 293.40625 166.859375 293.257812 164.921875 293.066406 C 162.984375 292.875 161.050781 292.632812 159.125 292.347656 C 157.199219 292.058594 155.28125 291.726562 153.371094 291.34375 C 151.460938 290.960938 149.5625 290.535156 147.671875 290.058594 C 145.78125 289.585938 143.90625 289.066406 142.042969 288.496094 C 140.179688 287.929688 138.332031 287.320312 136.496094 286.664062 C 134.664062 286.003906 132.847656 285.304688 131.046875 284.558594 C 129.25 283.8125 127.46875 283.019531 125.707031 282.1875 C 123.949219 281.355469 122.210938 280.476562 120.492188 279.558594 C 118.773438 278.640625 117.082031 277.679688 115.410156 276.675781 C 113.738281 275.675781 112.09375 274.632812 110.476562 273.550781 C 108.855469 272.46875 107.265625 271.347656 105.699219 270.1875 C 104.136719 269.027344 102.601562 267.828125 101.097656 266.59375 C 99.589844 265.355469 98.117188 264.085938 96.671875 262.777344 C 95.230469 261.46875 93.820312 260.125 92.441406 258.746094 C 91.066406 257.371094 89.722656 255.960938 88.414062 254.515625 C 87.105469 253.074219 85.835938 251.601562 84.597656 250.09375 C 83.363281 248.589844 82.164062 247.054688 81.003906 245.488281 C 79.84375 243.925781 78.722656 242.332031 77.640625 240.714844 C 76.558594 239.09375 75.515625 237.449219 74.511719 235.78125 C 73.511719 234.109375 72.550781 232.414062 71.632812 230.699219 C 70.714844 228.980469 69.835938 227.242188 69.003906 225.480469 C 68.167969 223.722656 67.378906 221.941406 66.632812 220.140625 C 65.886719 218.34375 65.183594 216.527344 64.527344 214.691406 C 63.871094 212.859375 63.257812 211.011719 62.691406 209.148438 C 62.125 207.285156 61.605469 205.40625 61.128906 203.519531 C 60.65625 201.628906 60.226562 199.730469 59.847656 197.820312 C 59.464844 195.910156 59.132812 193.992188 58.84375 192.066406 C 58.554688 190.140625 58.316406 188.207031 58.125 186.269531 C 57.929688 184.328125 57.785156 182.386719 57.6875 180.441406 C 57.589844 178.496094 57.542969 176.550781 57.539062 174.601562 Z M 57.539062 174.601562 " fill-opacity="1" fill-rule="nonzero"/><g clip-path="url(#becd13b961)"><path fill="#004000" d="M 207.785156 197.976562 C 207.597656 192.949219 207.398438 187.738281 207.304688 182.378906 C 207.234375 178.191406 206.941406 174.425781 206.480469 171.023438 C 204.402344 155.648438 198.839844 147.601562 194.207031 140.890625 C 193.121094 139.320312 192.113281 137.796875 191.164062 136.277344 C 185.296875 136.503906 178.429688 134.761719 173.738281 130.445312 C 171.484375 135.191406 165.9375 143.730469 155.25 143.730469 C 144.558594 143.730469 139.011719 135.191406 136.757812 130.445312 C 132.0625 134.765625 125.191406 136.503906 119.339844 136.277344 C 118.390625 137.804688 117.375 139.320312 116.289062 140.890625 C 111.660156 147.601562 106.097656 155.644531 104.019531 171.023438 C 103.554688 174.429688 103.261719 178.195312 103.191406 182.386719 C 103.097656 187.738281 102.90625 192.949219 102.710938 197.976562 C 101.800781 222.230469 101.074219 241.382812 112.269531 253.003906 C 120.226562 261.265625 134.285156 265.285156 155.25 265.285156 C 176.214844 265.285156 190.277344 261.265625 198.226562 253.003906 C 209.421875 241.382812 208.699219 222.230469 207.785156 197.976562 Z M 120.652344 182.136719 L 120.652344 223.488281 C 120.652344 224.574219 119.769531 225.460938 118.675781 225.460938 C 117.585938 225.460938 116.703125 224.574219 116.703125 223.488281 L 116.703125 182.136719 C 116.703125 178.273438 117.132812 174.535156 117.972656 171.023438 C 118.804688 167.539062 120.03125 164.277344 121.648438 161.332031 C 123.027344 158.808594 125.324219 155.550781 127.542969 152.402344 C 128.929688 150.4375 130.308594 148.476562 131.464844 146.707031 C 132.066406 145.785156 133.300781 145.542969 134.199219 146.128906 C 135.109375 146.722656 135.371094 147.941406 134.773438 148.855469 C 133.59375 150.671875 132.183594 152.671875 130.765625 154.679688 C 128.617188 157.738281 126.382812 160.894531 125.109375 163.226562 C 123.808594 165.609375 122.777344 168.226562 122.039062 171.023438 C 121.125 174.496094 120.652344 178.238281 120.652344 182.136719 Z M 120.652344 182.136719 " fill-opacity="1" fill-rule="nonzero"/></g><path fill="#004000" d="M 253.972656 201.214844 C 253.828125 197.441406 253.679688 193.539062 253.605469 189.53125 C 253.574219 187.460938 253.464844 185.539062 253.296875 183.734375 C 252.070312 170.542969 247.570312 164.03125 243.871094 158.679688 C 243.128906 157.601562 242.488281 156.519531 241.820312 155.449219 C 237.554688 155.558594 232.652344 154.335938 229.113281 151.375 C 227.238281 155.117188 223.027344 161.019531 215.0625 161.019531 C 212.265625 161.019531 209.941406 160.246094 207.949219 159.132812 C 209.792969 165.21875 211.085938 172.667969 211.253906 182.3125 C 211.257812 182.789062 211.269531 183.261719 211.28125 183.734375 C 211.375 188.566406 211.554688 193.265625 211.726562 197.828125 C 212.53125 219.039062 213.226562 237.707031 205.0625 250.636719 C 208.144531 250.976562 211.40625 251.195312 215.0625 251.195312 C 230.648438 251.195312 241.078125 248.234375 246.941406 242.136719 C 255.195312 233.570312 254.65625 219.292969 253.972656 201.214844 Z M 253.972656 201.214844 " fill-opacity="1" fill-rule="nonzero"/><path fill="#004000" d="M 215.0625 141.894531 C 208.160156 141.894531 202.824219 141.269531 198.679688 140.449219 C 200.054688 142.472656 201.460938 144.660156 202.835938 147.105469 C 202.835938 147.109375 202.839844 147.109375 202.839844 147.113281 C 202.839844 147.113281 202.847656 147.125 202.847656 147.132812 C 203.480469 148.253906 204.097656 149.433594 204.703125 150.691406 C 206.554688 153.554688 209.875 157.070312 215.0625 157.070312 C 223.566406 157.070312 226.527344 147.355469 226.554688 147.257812 C 226.769531 146.535156 227.371094 146 228.109375 145.867188 C 228.84375 145.738281 229.59375 146.046875 230.046875 146.652344 C 233.007812 150.699219 239.441406 152.207031 243.898438 151.355469 C 245.960938 150.957031 247.355469 150.074219 247.625 149 C 248.441406 145.792969 244.476562 140.3125 241.527344 137.28125 C 238.539062 138.800781 230.570312 141.894531 215.0625 141.894531 Z M 215.0625 141.894531 " fill-opacity="1" fill-rule="nonzero"/><path fill="#004000" d="M 203.136719 129.5 C 202.378906 132.476562 199.632812 134.660156 195.644531 135.703125 C 199.6875 136.839844 205.9375 137.945312 215.0625 137.945312 C 232.351562 137.945312 239.523438 133.957031 240.503906 133.355469 C 240.535156 133.253906 240.554688 133.171875 240.589844 133.074219 C 242.570312 127.9375 242.445312 123.800781 240.222656 120.78125 C 234.234375 112.65625 215.386719 113.796875 215.1875 113.8125 C 215.089844 113.8125 214.070312 113.75 212.476562 113.75 C 209.261719 113.75 203.777344 114.09375 198.792969 115.546875 C 201.65625 119.644531 204.300781 124.902344 203.136719 129.5 Z M 203.136719 129.5 " fill-opacity="1" fill-rule="nonzero"/><path fill="#004000" d="M 120.699219 106.785156 C 120.78125 106.84375 130.203125 113.179688 155.25 113.179688 C 180.292969 113.179688 189.71875 106.84375 189.8125 106.777344 C 189.902344 106.71875 190.007812 106.761719 190.101562 106.71875 C 192.554688 99.953125 192.332031 94.429688 189.324219 90.34375 C 181.109375 79.203125 155.65625 80.78125 155.382812 80.785156 C 155.265625 80.785156 153.921875 80.703125 151.808594 80.703125 C 144.40625 80.703125 127.558594 81.683594 121.175781 90.34375 C 118.164062 94.429688 117.945312 99.953125 120.402344 106.71875 C 120.496094 106.765625 120.605469 106.722656 120.699219 106.785156 Z M 120.699219 106.785156 " fill-opacity="1" fill-rule="nonzero"/><path fill="#004000" d="M 116.671875 132.148438 C 122.84375 133.339844 131.703125 131.230469 135.8125 125.621094 C 136.25 125.007812 136.992188 124.707031 137.738281 124.84375 C 138.472656 124.96875 139.078125 125.503906 139.292969 126.222656 C 139.460938 126.773438 143.480469 139.78125 155.25 139.78125 C 167.019531 139.78125 171.164062 126.363281 171.207031 126.226562 C 171.417969 125.503906 172.019531 124.96875 172.757812 124.835938 C 173.484375 124.707031 174.238281 125.007812 174.6875 125.621094 C 178.792969 131.230469 187.652344 133.339844 193.828125 132.148438 C 196.875 131.558594 198.871094 130.238281 199.304688 128.53125 C 200.664062 123.171875 193.371094 114.554688 190.441406 111.691406 C 190.269531 111.523438 190.28125 111.289062 190.183594 111.082031 C 186.214844 113.085938 175.671875 117.125 155.25 117.125 C 132.574219 117.125 122.074219 112.148438 119.238281 110.511719 C 115.910156 114.710938 109.929688 123.574219 111.191406 128.53125 C 111.625 130.238281 113.621094 131.558594 116.671875 132.148438 Z M 116.671875 132.148438 " fill-opacity="1" fill-rule="nonzero"/></svg>