<svg xmlns="http://www.w3.org/2000/svg" xmlns:xlink="http://www.w3.org/1999/xlink" width="500" zoomAndPan="magnify" viewBox="0 0 375 374.999991" height="500" preserveAspectRatio="xMidYMid meet" version="1.0"><defs><clipPath id="4f0196166c"><path d="M 0 0 L 375 0 L 375 355.5 L 0 355.5 Z M 0 0 " clip-rule="nonzero"/></clipPath><clipPath id="65e208bf33"><path d="M 74 220 L 74.871094 220 L 74.871094 221 L 74 221 Z M 74 220 " clip-rule="nonzero"/></clipPath><clipPath id="599ffb074f"><path d="M 42.621094 201.875 L 74.871094 201.875 L 74.871094 231.125 L 42.621094 231.125 Z M 42.621094 201.875 " clip-rule="nonzero"/></clipPath></defs><g clip-path="url(#4f0196166c)"><path fill="#ffffff" d="M 359.179688 220.839844 L 240.277344 220.839844 L 299.726562 74.738281 Z M 134.722656 194.078125 L 15.820312 194.078125 L 75.273438 47.972656 Z M 368.144531 220.839844 L 306.089844 68.335938 C 311.480469 66.109375 315.566406 61.144531 316.328125 54.9375 C 317.453125 45.769531 310.933594 37.421875 301.761719 36.296875 L 196.855469 23.425781 L 196.855469 12.382812 C 196.855469 5.453125 191.238281 -0.164062 184.308594 -0.164062 C 177.382812 -0.164062 171.765625 5.453125 171.765625 12.382812 L 171.765625 20.339844 L 77.628906 8.785156 C 68.453125 7.65625 60.113281 14.175781 58.984375 23.347656 C 58.050781 30.988281 62.425781 38.039062 69.214844 40.835938 L 6.855469 194.078125 L 0 194.078125 C 0 225.375 33.703125 250.742188 75.273438 250.742188 C 116.847656 250.742188 150.542969 225.371094 150.542969 194.078125 L 143.6875 194.078125 L 82.234375 43.050781 L 171.765625 54.042969 L 171.765625 321.832031 L 112.386719 321.832031 C 103.144531 321.832031 95.65625 329.320312 95.65625 338.558594 C 95.65625 347.796875 103.144531 355.289062 112.386719 355.289062 L 262.933594 355.289062 C 272.171875 355.289062 279.65625 347.800781 279.65625 338.5625 C 279.65625 329.324219 272.171875 321.835938 262.933594 321.835938 L 196.855469 321.835938 L 196.855469 57.128906 L 293.121094 68.945312 L 231.316406 220.839844 L 224.457031 220.839844 C 224.457031 252.136719 258.160156 277.5 299.726562 277.5 C 341.300781 277.5 375 252.132812 375 220.839844 Z M 368.144531 220.839844 " fill-opacity="1" fill-rule="nonzero"/></g><g clip-path="url(#65e208bf33)"><path fill="#ffffff" d="M 74.378906 220.140625 C 74.367188 220.140625 74.355469 220.140625 74.34375 220.140625 C 74.34375 220.144531 74.34375 220.148438 74.34375 220.152344 C 74.355469 220.148438 74.363281 220.144531 74.378906 220.140625 Z M 74.378906 220.140625 " fill-opacity="1" fill-rule="nonzero"/></g><g clip-path="url(#599ffb074f)"><path fill="#ffffff" d="M 74.441406 224.667969 C 74.640625 224.46875 74.484375 224.332031 74.359375 224.191406 C 74.242188 224.066406 74.285156 223.90625 74.253906 223.765625 C 74.230469 223.652344 74.335938 223.417969 74.0625 223.445312 C 74.042969 223.425781 74.019531 223.417969 73.996094 223.421875 C 74.25 223.292969 74.40625 223.015625 74.335938 222.8125 C 74.132812 222.257812 74.289062 221.707031 74.246094 221.164062 C 74.28125 221.0625 74.417969 220.976562 74.277344 220.859375 C 74.273438 220.84375 74.269531 220.832031 74.269531 220.816406 C 74.269531 220.808594 74.273438 220.796875 74.277344 220.785156 C 74.464844 220.683594 74.449219 220.542969 74.34375 220.390625 L 74.34375 220.367188 C 74.34375 220.296875 74.34375 220.222656 74.34375 220.152344 C 74.296875 220.167969 74.25 220.1875 74.214844 220.203125 C 74.214844 220.179688 74.210938 220.152344 74.203125 220.128906 C 74.246094 220.132812 74.292969 220.136719 74.34375 220.140625 C 74.347656 220.050781 74.34375 219.960938 74.335938 219.875 C 74.300781 219.476562 74.507812 219.035156 74.148438 218.6875 C 74.21875 218.53125 74.003906 218.371094 74.148438 218.214844 C 74.261719 217.898438 74.226562 217.582031 74.167969 217.261719 C 74.164062 217.230469 74.160156 217.199219 74.160156 217.167969 C 74.488281 216.847656 74.246094 216.472656 74.253906 216.125 C 74.300781 215.683594 74.171875 215.304688 73.886719 214.972656 C 73.882812 214.941406 73.875 214.914062 73.863281 214.886719 C 73.859375 214.828125 73.855469 214.765625 73.851562 214.707031 C 73.914062 214.160156 74.128906 213.613281 73.800781 213.078125 C 73.699219 212.851562 73.699219 212.609375 73.699219 212.371094 C 73.695312 212.128906 73.695312 211.886719 73.597656 211.660156 C 73.714844 211.46875 73.75 211.277344 73.601562 211.085938 C 73.585938 210.816406 73.476562 210.582031 73.378906 210.339844 C 73.414062 210.207031 73.488281 210.082031 73.386719 209.949219 C 73.402344 209.921875 73.402344 209.890625 73.390625 209.863281 C 73.421875 209.617188 73.4375 209.375 73.222656 209.191406 C 73.226562 209.183594 73.226562 209.175781 73.226562 209.167969 C 73.226562 208.992188 73.042969 208.863281 73.054688 208.714844 C 73.117188 208.042969 72.75 207.503906 72.542969 206.914062 C 72.621094 206.550781 72.710938 206.171875 72.511719 205.828125 C 72.445312 205.710938 72.382812 205.707031 72.496094 205.558594 C 72.757812 205.21875 72.679688 204.742188 72.363281 204.445312 C 72.554688 204.003906 72.425781 203.601562 71.976562 203.242188 C 71.890625 203.230469 71.804688 203.214844 71.71875 203.199219 C 71.660156 203.058594 71.59375 202.929688 71.503906 202.816406 C 71.410156 202.707031 71.296875 202.613281 71.140625 202.542969 C 70.492188 202.246094 69.800781 202.214844 69.117188 202.121094 C 68.648438 202.054688 68.222656 202.257812 67.804688 202.449219 C 67.601562 202.300781 67.363281 202.375 67.144531 202.355469 C 66.90625 201.957031 66.683594 201.941406 66.089844 202.277344 C 65.902344 202.210938 65.761719 202.011719 65.527344 202.066406 C 65.476562 202.015625 65.421875 201.996094 65.371094 201.996094 C 65.292969 201.996094 65.21875 202.042969 65.144531 202.089844 C 64.875 201.976562 64.628906 202.054688 64.382812 202.167969 C 64.066406 202.191406 63.753906 202.21875 63.4375 202.242188 C 63.257812 202.101562 63.054688 202.191406 62.863281 202.179688 C 62.804688 202.203125 62.746094 202.210938 62.691406 202.210938 C 62.527344 202.210938 62.367188 202.144531 62.203125 202.167969 C 61.671875 202.042969 61.140625 201.875 60.59375 202.101562 C 60.46875 202.097656 60.308594 202.03125 60.292969 202.25 C 59.949219 202.003906 59.605469 202.332031 59.261719 202.253906 C 58.691406 202.136719 58.117188 202.144531 57.546875 202.261719 C 57.488281 202.269531 57.429688 202.273438 57.371094 202.277344 C 57.167969 202.277344 56.96875 202.285156 56.769531 202.273438 C 56.570312 202.265625 56.480469 202.34375 56.503906 202.546875 C 56.207031 202.523438 55.910156 202.496094 55.636719 202.648438 C 55.5625 202.414062 55.304688 202.53125 55.25 202.492188 C 54.894531 202.210938 54.566406 202.507812 54.238281 202.472656 C 54.210938 202.472656 54.089844 202.445312 54.199219 202.539062 C 54.230469 202.566406 54.261719 202.597656 54.292969 202.632812 C 54.214844 202.664062 54.132812 202.691406 54.054688 202.726562 C 53.851562 202.464844 53.65625 202.523438 53.46875 202.742188 C 53.4375 202.746094 53.40625 202.75 53.375 202.75 C 53.34375 202.75 53.308594 202.746094 53.277344 202.746094 C 53.015625 202.460938 52.828125 202.746094 52.613281 202.832031 C 52.550781 202.804688 52.542969 202.695312 52.441406 202.714844 C 51.742188 202.847656 51.007812 202.738281 50.335938 203.035156 C 49.875 203.074219 49.421875 203.191406 48.945312 203.152344 C 48.679688 203.128906 48.386719 203.1875 48.140625 203.296875 C 47.59375 203.535156 47.039062 203.59375 46.460938 203.507812 C 46.183594 203.445312 45.925781 203.515625 45.664062 203.605469 C 45.609375 203.632812 45.550781 203.664062 45.492188 203.695312 C 45.367188 203.695312 45.238281 203.691406 45.113281 203.691406 C 45.132812 203.609375 45.230469 203.53125 45.144531 203.449219 C 45.117188 203.421875 45.015625 203.417969 44.988281 203.445312 C 44.894531 203.542969 44.917969 203.632812 45.039062 203.695312 C 44.972656 203.800781 44.898438 203.878906 44.769531 203.878906 C 44.757812 203.878906 44.746094 203.878906 44.734375 203.875 C 44.816406 203.738281 44.785156 203.632812 44.625 203.601562 C 44.390625 203.554688 44.257812 203.703125 44.15625 203.890625 C 44.160156 203.910156 44.160156 203.933594 44.15625 203.953125 C 44.078125 203.96875 43.984375 203.964844 43.910156 203.988281 C 43.832031 204.007812 43.769531 204.054688 43.742188 204.160156 C 43.652344 204.523438 43.980469 204.175781 44.007812 204.3125 C 44.023438 204.378906 43.980469 204.457031 43.964844 204.53125 C 43.6875 204.910156 43.496094 205.3125 43.375 205.738281 C 43.253906 206.167969 43.203125 206.613281 43.199219 207.074219 C 43.023438 207.398438 42.976562 207.816406 43.007812 208.097656 C 43.066406 208.625 43.203125 209.132812 43.097656 209.671875 C 43.046875 209.917969 43.113281 210.171875 43.203125 210.410156 C 43.070312 210.484375 43.011719 210.570312 43.011719 210.667969 C 43.011719 210.738281 43.046875 210.820312 43.113281 210.902344 C 43.121094 210.890625 43.128906 210.878906 43.136719 210.867188 C 43.132812 210.882812 43.125 210.894531 43.113281 210.902344 C 43.144531 211.039062 43.09375 211.164062 43.046875 211.285156 C 43.101562 211.375 43.152344 211.464844 43.207031 211.554688 C 43.074219 211.71875 42.929688 211.882812 43.082031 212.113281 C 42.621094 212.261719 43.074219 212.375 43.097656 212.503906 C 42.796875 212.675781 42.929688 212.835938 43.113281 212.996094 C 43.117188 213.019531 43.125 213.050781 43.128906 213.074219 C 43.097656 213.144531 43.027344 213.164062 42.957031 213.1875 C 42.890625 213.210938 42.824219 213.242188 42.804688 213.339844 C 42.921875 213.441406 43.277344 213.457031 42.960938 213.757812 C 42.867188 213.847656 43.285156 213.9375 43.144531 214.140625 C 42.953125 214.414062 43.222656 214.425781 43.332031 214.53125 C 43.300781 214.667969 43.289062 214.808594 43.289062 214.949219 C 43.289062 215.375 43.390625 215.800781 43.292969 216.226562 C 43.507812 216.617188 43.136719 216.910156 43.125 217.261719 C 42.988281 217.359375 43.003906 217.457031 43.132812 217.546875 C 43.136719 217.925781 43.261719 218.300781 43.203125 218.683594 C 43.140625 218.714844 43.082031 218.746094 43.019531 218.777344 C 42.785156 218.984375 43.078125 219.042969 43.128906 219.167969 C 43.125 219.195312 43.125 219.222656 43.136719 219.25 C 43.183594 219.527344 43.339844 219.824219 42.992188 220.027344 C 43.144531 220.167969 42.851562 220.527344 43.25 220.542969 C 43.207031 220.855469 43.617188 221.230469 43.128906 221.484375 C 43.300781 221.667969 43.046875 221.886719 43.109375 221.980469 C 43.421875 222.453125 43.527344 222.945312 43.433594 223.496094 C 43.421875 223.5625 43.472656 223.644531 43.492188 223.714844 C 43.402344 223.753906 43.40625 223.824219 43.433594 223.898438 C 43.375 224.015625 43.203125 224.082031 43.257812 224.234375 C 43.273438 224.273438 43.421875 224.265625 43.507812 224.277344 L 43.167969 224.65625 C 43.335938 224.683594 43.542969 224.753906 43.535156 224.921875 C 43.519531 225.207031 43.484375 225.203125 43.683594 225.421875 C 43.769531 225.625 43.449219 225.585938 43.5 225.636719 C 43.757812 225.898438 43.507812 226.292969 43.753906 226.542969 C 43.644531 226.652344 43.464844 226.738281 43.601562 226.945312 C 43.558594 226.953125 43.515625 226.960938 43.472656 226.96875 C 43.539062 227.027344 43.605469 227.085938 43.671875 227.148438 C 43.605469 227.21875 43.582031 227.277344 43.582031 227.320312 C 43.582031 227.476562 43.871094 227.527344 43.871094 227.679688 L 43.871094 227.5 C 43.933594 227.574219 43.992188 227.644531 44.054688 227.71875 C 44.03125 227.777344 44.007812 227.835938 43.984375 227.890625 C 43.949219 228.195312 43.9375 228.492188 44.125 228.757812 C 44.167969 228.914062 44.058594 229.109375 44.25 229.222656 C 44.207031 229.839844 44.480469 230.195312 45.109375 230.253906 C 45.214844 230.265625 45.328125 230.300781 45.390625 230.164062 C 45.421875 230.171875 45.453125 230.175781 45.484375 230.175781 C 45.5 230.675781 45.605469 230.726562 46.054688 230.460938 C 46.097656 230.488281 46.136719 230.519531 46.175781 230.546875 C 46 230.777344 46.300781 230.816406 46.339844 230.8125 C 46.90625 230.785156 47.449219 231.019531 47.996094 231 C 48.421875 230.984375 48.878906 231.195312 49.289062 230.917969 C 49.964844 230.921875 50.65625 231.226562 51.320312 230.84375 C 51.339844 230.832031 51.402344 230.839844 51.40625 230.855469 C 51.574219 231.253906 51.824219 230.894531 52.027344 230.921875 C 52.105469 231.21875 52.277344 231.097656 52.4375 231.007812 C 52.621094 231.007812 52.835938 231.074219 52.898438 230.800781 C 52.945312 230.941406 52.988281 231.09375 53.175781 230.929688 C 53.601562 230.984375 54.039062 231.101562 54.460938 231.070312 C 54.816406 231.039062 55.1875 231.246094 55.472656 231.121094 C 55.875 230.941406 56.261719 230.929688 56.671875 230.9375 C 57.320312 230.945312 57.945312 231.246094 58.601562 231.136719 C 59.113281 231.050781 59.609375 231.09375 60.117188 231.15625 C 60.207031 231.167969 60.332031 231.113281 60.320312 230.96875 C 60.554688 231.136719 60.804688 231.101562 61.058594 231.019531 C 61.066406 231.09375 61.054688 231.191406 61.167969 231.179688 C 61.234375 231.171875 61.25 231.101562 61.25 231.035156 L 61.296875 231.027344 L 61.34375 231.027344 C 61.441406 231.246094 61.585938 231.210938 61.742188 231.101562 C 62.109375 230.855469 62.5625 230.9375 62.941406 230.917969 C 63.441406 230.890625 63.964844 231.050781 64.488281 230.960938 C 64.671875 230.929688 64.902344 231.089844 65.039062 230.839844 C 65.164062 231.097656 65.34375 231.003906 65.53125 230.925781 C 65.878906 230.78125 66.238281 230.679688 66.625 230.730469 C 66.765625 230.738281 66.976562 230.886719 66.945312 230.5625 C 67.09375 230.605469 67.207031 230.527344 67.324219 230.457031 C 67.527344 230.652344 67.800781 230.34375 67.996094 230.550781 C 67.921875 230.609375 67.863281 230.675781 67.933594 230.769531 C 67.945312 230.789062 67.992188 230.804688 68.011719 230.792969 C 68.105469 230.742188 68.082031 230.644531 68.089844 230.5625 L 68.082031 230.554688 C 68.257812 230.707031 68.472656 230.585938 68.660156 230.632812 C 68.695312 230.613281 68.730469 230.589844 68.765625 230.570312 C 68.832031 230.597656 68.890625 230.683594 68.964844 230.683594 C 68.988281 230.683594 69.015625 230.675781 69.046875 230.65625 C 69.132812 230.585938 69.050781 230.519531 69.023438 230.453125 C 69.1875 230.441406 69.355469 230.429688 69.519531 230.40625 C 69.679688 230.378906 69.84375 230.339844 70 230.273438 C 70.03125 230.246094 70.066406 230.21875 70.097656 230.1875 C 70.398438 230.074219 70.730469 230.246094 71.023438 230.082031 C 71.179688 230.511719 71.339844 230.007812 71.480469 230.082031 C 71.960938 230.347656 72.496094 229.910156 72.972656 230.195312 C 72.980469 230.203125 73.0625 230.136719 73.058594 230.113281 C 73.039062 229.9375 73.207031 229.949219 73.273438 229.871094 C 73.546875 229.542969 73.867188 229.226562 73.871094 228.75 C 74.039062 228.226562 74.285156 227.714844 74.085938 227.144531 C 74.644531 227.058594 74.242188 226.835938 74.152344 226.660156 C 74.476562 226.472656 74.320312 226.292969 74.148438 226.109375 C 74.125 226.046875 74.097656 225.980469 74.074219 225.914062 C 74.476562 225.835938 74.269531 225.554688 74.261719 225.34375 C 74.453125 225.148438 74.636719 224.960938 74.441406 224.667969 Z M 58.136719 202.371094 C 58.136719 202.367188 58.136719 202.367188 58.140625 202.367188 C 58.140625 202.367188 58.144531 202.371094 58.144531 202.371094 C 58.140625 202.371094 58.136719 202.371094 58.136719 202.371094 Z M 58.136719 202.371094 " fill-opacity="1" fill-rule="nonzero"/></g></svg>