<svg xmlns="http://www.w3.org/2000/svg" xmlns:xlink="http://www.w3.org/1999/xlink" width="500" zoomAndPan="magnify" viewBox="0 0 375 374.999991" height="500" preserveAspectRatio="xMidYMid meet" version="1.0"><defs><clipPath id="cb7bc4b40a"><path d="M 0 0 L 375 0 L 375 373.5 L 0 373.5 Z M 0 0 " clip-rule="nonzero"/></clipPath><clipPath id="2a453268df"><path d="M 0 0 L 148.5 0 L 148.5 148.5 L 0 148.5 Z M 0 0 " clip-rule="nonzero"/></clipPath></defs><g clip-path="url(#cb7bc4b40a)"><path fill="#ffffff" d="M 87.46875 373.804688 C 70.113281 374.15625 55.570312 368.867188 42.390625 359.511719 C 36.226562 355.144531 29.554688 351.191406 24.324219 345.863281 C 12.058594 333.367188 3.210938 318.570312 0.878906 300.921875 C 0.355469 297.121094 0.136719 293.300781 0.222656 289.460938 C 0.3125 285.621094 0.703125 281.816406 1.402344 278.039062 C 2.097656 274.261719 3.089844 270.566406 4.378906 266.949219 C 5.667969 263.332031 7.234375 259.84375 9.082031 256.476562 C 19.90625 236.4375 35.945312 221.585938 55.136719 209.953125 C 82.179688 193.496094 111.421875 182.105469 141.652344 173.316406 C 152.453125 170.167969 162.859375 166.023438 172.867188 160.878906 C 182.875 155.734375 192.304688 149.6875 201.148438 142.734375 C 202.644531 141.570312 203.808594 139.984375 205.339844 138.933594 C 205.855469 138.574219 206.3125 138.152344 206.710938 137.667969 C 207.109375 137.179688 207.4375 136.648438 207.6875 136.070312 C 207.9375 135.496094 208.105469 134.894531 208.191406 134.273438 C 208.277344 133.648438 208.277344 133.027344 208.1875 132.402344 C 207.785156 125.441406 210.722656 119.742188 215.378906 114.859375 C 231.582031 97.703125 247.585938 80.324219 264.269531 63.625 C 279.460938 48.433594 295.246094 33.800781 311.109375 19.316406 C 318.363281 12.710938 326.035156 6.46875 335.515625 2.859375 C 339.125 1.367188 342.875 0.46875 346.769531 0.164062 C 350.660156 -0.140625 354.503906 0.164062 358.300781 1.074219 C 367.644531 3.40625 375.023438 12.570312 375.835938 22.597656 C 376.796875 34.660156 371.492188 44.257812 364.101562 52.890625 C 350.632812 68.601562 335.175781 82.359375 319.894531 96.210938 C 306.019531 108.871094 292.074219 121.40625 278.054688 133.820312 C 270.460938 140.519531 262.648438 146.886719 254.988281 153.46875 C 252.054688 156.046875 248.816406 158.160156 245.273438 159.808594 C 241.730469 161.460938 238.027344 162.578125 234.164062 163.164062 C 230.671875 163.695312 228.609375 165.496094 226.695312 168.230469 C 212.429688 188.6875 204.214844 211.636719 198.59375 235.675781 C 192.578125 261.351562 186.023438 286.859375 174.464844 310.746094 C 162.90625 334.636719 145.675781 353.511719 121.585938 365.523438 C 112.421875 370.144531 100.230469 374.585938 87.46875 373.804688 Z M 184.464844 186.34375 L 183.199219 187.523438 C 182.222656 187.777344 181.285156 188.136719 180.390625 188.597656 C 171.054688 194.625 161.746094 200.683594 152.460938 206.777344 C 116.597656 230.828125 75.863281 251.414062 50.101562 287.277344 C 41.679688 299.835938 36.808594 313.328125 39.605469 329.699219 C 42.503906 328.230469 45.148438 327.167969 47.53125 325.648438 C 60.921875 317.203125 72.710938 306.65625 84.457031 296.226562 C 101.925781 280.628906 117.21875 262.921875 132.675781 245.398438 C 148.132812 227.878906 163.882812 210.144531 179.441406 192.421875 C 180.738281 190.796875 181.945312 189.109375 183.058594 187.355469 L 184.324219 186.167969 L 184.628906 185.800781 Z M 176.871094 264.71875 C 172.25 271.933594 167.742188 279.210938 162.945312 286.339844 C 150.375 305.164062 136.4375 322.746094 117.765625 336.027344 C 102.027344 347.207031 85.496094 356.28125 65.355469 356.5625 C 67.835938 357.449219 70.371094 358.167969 72.949219 358.714844 C 82.28125 360.902344 91.519531 361.246094 100.863281 358.382812 C 120.359375 352.34375 135.890625 340.660156 148.777344 325.179688 C 163.121094 307.59375 170.007812 285.847656 176.628906 264.566406 L 176.933594 264.300781 C 177.109375 263.871094 176.972656 264.300781 176.84375 264.71875 Z M 197.125 193.925781 C 193.175781 198.257812 189.136719 202.511719 185.289062 206.929688 C 175.339844 218.320312 165.527344 229.917969 155.539062 241.3125 C 129.15625 270.910156 103.925781 301.757812 72.378906 325.988281 C 65.59375 331.355469 58.453125 336.21875 51.125 341.535156 C 54.636719 342.511719 58.210938 343.039062 61.855469 343.125 C 65.496094 343.207031 69.09375 342.839844 72.644531 342.027344 C 90.367188 338.054688 105.042969 328.394531 118.460938 316.710938 C 129.851562 306.847656 139.171875 295.1875 147.765625 282.898438 C 167.300781 254.917969 182.832031 224.664062 197.035156 193.789062 L 197.25 193.507812 Z M 170.578125 177.609375 C 169.539062 177.609375 168.515625 177.71875 167.503906 177.9375 C 153.289062 182.824219 139.089844 187.742188 124.902344 192.6875 C 101.117188 201.027344 78.0625 210.902344 57.101562 225.15625 C 41.515625 235.753906 28.707031 248.816406 20.742188 266.074219 C 12.109375 284.757812 12.71875 303.152344 23.679688 321.773438 C 23.972656 319.242188 24.222656 317.367188 24.363281 315.542969 C 25.742188 297.214844 33.960938 281.820312 45.667969 268.300781 C 57.984375 254.289062 71.949219 242.1875 87.570312 231.992188 C 115.15625 213.625 142.96875 195.597656 170.679688 177.433594 Z M 248.8125 139.113281 C 261.472656 127.871094 274.003906 116.945312 286.320312 105.820312 C 299.917969 93.515625 313.488281 81.195312 326.769531 68.5625 C 335.148438 60.585938 343.226562 52.230469 350.921875 43.609375 C 355.53125 38.484375 359.417969 32.710938 358.898438 25.027344 C 358.441406 18.394531 353.339844 14.089844 347.035156 16.253906 C 341.972656 18.015625 336.578125 19.925781 332.289062 23.078125 C 323.855469 29.351562 315.769531 36.042969 308.03125 43.15625 C 295.703125 54.332031 283.523438 65.714844 271.675781 77.398438 C 257.359375 91.96875 243 105.945312 229.824219 121.707031 C 239.128906 124.464844 245.101562 130.085938 248.8125 139.113281 Z M 248.8125 139.113281 " fill-opacity="1" fill-rule="nonzero"/></g><g clip-path="url(#2a453268df)"><path fill="#ffffff" d="M 74.246094 0 C 33.207031 0 0 33.242188 0 74.285156 C 0 115.328125 33.207031 148.570312 74.246094 148.570312 C 115.289062 148.570312 148.570312 115.328125 148.570312 74.285156 C 148.570312 33.242188 115.289062 0 74.246094 0 Z M 74.285156 133.714844 C 41.449219 133.714844 14.855469 107.121094 14.855469 74.285156 C 14.855469 41.449219 41.449219 14.855469 74.285156 14.855469 C 107.121094 14.855469 133.714844 41.449219 133.714844 74.285156 C 133.714844 107.121094 107.121094 133.714844 74.285156 133.714844 Z M 74.285156 133.714844 " fill-opacity="0.9" fill-rule="nonzero"/></g><path fill="#ffffff" d="M 78 37.140625 L 66.855469 37.140625 L 66.855469 81.714844 L 105.820312 105.113281 L 111.425781 95.976562 L 78 76.140625 Z M 78 37.140625 " fill-opacity="0.9" fill-rule="nonzero"/></svg>