<svg xmlns="http://www.w3.org/2000/svg" xmlns:xlink="http://www.w3.org/1999/xlink" width="500" zoomAndPan="magnify" viewBox="0 0 375 374.999991" height="500" preserveAspectRatio="xMidYMid meet" version="1.0"><defs><clipPath id="2c2ee5dd5e"><path d="M 9.464844 15 L 338 15 L 338 211 L 9.464844 211 Z M 9.464844 15 " clip-rule="nonzero"/></clipPath><clipPath id="02c0c3901f"><path d="M 37 175 L 365.714844 175 L 365.714844 372 L 37 372 Z M 37 175 " clip-rule="nonzero"/></clipPath><clipPath id="78c234d7e6"><path d="M 145 105.8125 L 231 105.8125 L 231 132 L 145 132 Z M 145 105.8125 " clip-rule="nonzero"/></clipPath><clipPath id="88754a6bf0"><path d="M 120 159 L 256 159 L 256 269.3125 L 120 269.3125 Z M 120 159 " clip-rule="nonzero"/></clipPath></defs><g clip-path="url(#2c2ee5dd5e)"><path fill="#004000" d="M 27.265625 210.949219 C 26.683594 210.949219 26.101562 210.917969 25.523438 210.863281 C 24.941406 210.804688 24.367188 210.71875 23.792969 210.605469 C 23.222656 210.492188 22.65625 210.351562 22.097656 210.183594 C 21.542969 210.011719 20.992188 209.816406 20.453125 209.59375 C 19.914062 209.371094 19.390625 209.121094 18.875 208.847656 C 18.359375 208.570312 17.863281 208.273438 17.375 207.949219 C 16.890625 207.625 16.425781 207.277344 15.972656 206.90625 C 15.523438 206.539062 15.089844 206.144531 14.679688 205.734375 C 14.265625 205.320312 13.875 204.890625 13.503906 204.4375 C 13.136719 203.988281 12.789062 203.519531 12.464844 203.035156 C 12.140625 202.550781 11.839844 202.050781 11.566406 201.539062 C 11.292969 201.023438 11.042969 200.496094 10.820312 199.957031 C 10.597656 199.417969 10.398438 198.871094 10.230469 198.3125 C 10.0625 197.753906 9.921875 197.191406 9.804688 196.617188 C 9.691406 196.046875 9.605469 195.46875 9.550781 194.890625 C 9.492188 194.308594 9.464844 193.726562 9.464844 193.144531 C 9.460938 190.789062 9.507812 188.433594 9.601562 186.082031 C 9.691406 183.726562 9.828125 181.378906 10.015625 179.03125 C 10.199219 176.679688 10.433594 174.339844 10.710938 172 C 10.988281 169.660156 11.3125 167.328125 11.683594 165.003906 C 12.054688 162.675781 12.472656 160.359375 12.933594 158.050781 C 13.398438 155.738281 13.90625 153.441406 14.460938 151.152344 C 15.015625 148.863281 15.617188 146.585938 16.261719 144.320312 C 16.90625 142.054688 17.59375 139.804688 18.328125 137.566406 C 19.0625 135.328125 19.839844 133.105469 20.664062 130.898438 C 21.488281 128.691406 22.351562 126.5 23.261719 124.328125 C 24.171875 122.15625 25.125 120 26.117188 117.867188 C 27.113281 115.730469 28.152344 113.617188 29.230469 111.523438 C 30.308594 109.429688 31.429688 107.359375 32.589844 105.308594 C 33.75 103.261719 34.953125 101.234375 36.195312 99.234375 C 37.4375 97.234375 38.71875 95.257812 40.039062 93.308594 C 41.359375 91.355469 42.714844 89.433594 44.113281 87.535156 C 45.507812 85.640625 46.945312 83.769531 48.414062 81.933594 C 49.886719 80.09375 51.390625 78.28125 52.933594 76.503906 C 54.476562 74.722656 56.054688 72.976562 57.667969 71.257812 C 59.277344 69.539062 60.925781 67.855469 62.605469 66.203125 C 64.28125 64.550781 65.992188 62.933594 67.738281 61.351562 C 69.480469 59.765625 71.253906 58.21875 73.058594 56.707031 C 74.863281 55.191406 76.699219 53.714844 78.5625 52.273438 C 80.425781 50.835938 82.316406 49.433594 84.234375 48.066406 C 86.15625 46.699219 88.101562 45.375 90.074219 44.085938 C 92.042969 42.796875 94.042969 41.550781 96.0625 40.339844 C 98.085938 39.132812 100.128906 37.964844 102.195312 36.835938 C 104.265625 35.710938 106.355469 34.625 108.464844 33.578125 C 110.578125 32.535156 112.707031 31.53125 114.859375 30.574219 C 117.007812 29.613281 119.179688 28.695312 121.367188 27.820312 C 123.554688 26.949219 125.757812 26.117188 127.976562 25.332031 C 130.195312 24.546875 132.433594 23.804688 134.683594 23.105469 C 136.929688 22.410156 139.195312 21.757812 141.46875 21.148438 C 143.746094 20.542969 146.03125 19.980469 148.332031 19.464844 C 150.628906 18.945312 152.933594 18.476562 155.253906 18.050781 C 157.570312 17.625 159.894531 17.246094 162.222656 16.914062 C 164.554688 16.582031 166.894531 16.296875 169.238281 16.054688 C 171.578125 15.816406 173.925781 15.621094 176.277344 15.476562 C 178.628906 15.328125 180.980469 15.230469 183.335938 15.175781 C 185.691406 15.121094 188.046875 15.117188 190.398438 15.15625 C 192.753906 15.195312 195.109375 15.285156 197.460938 15.417969 C 199.8125 15.550781 202.160156 15.730469 204.503906 15.960938 C 206.847656 16.1875 209.1875 16.460938 211.519531 16.78125 C 213.855469 17.101562 216.179688 17.464844 218.5 17.878906 C 220.816406 18.289062 223.128906 18.75 225.429688 19.253906 C 227.730469 19.757812 230.019531 20.308594 232.296875 20.902344 C 234.578125 21.496094 236.84375 22.136719 239.097656 22.820312 C 241.351562 23.507812 243.589844 24.238281 245.8125 25.011719 C 248.039062 25.785156 250.246094 26.601562 252.4375 27.464844 C 254.628906 28.328125 256.804688 29.230469 258.960938 30.179688 C 261.117188 31.128906 263.253906 32.117188 265.371094 33.152344 C 267.484375 34.183594 269.582031 35.257812 271.65625 36.375 C 273.730469 37.492188 275.78125 38.648438 277.808594 39.84375 C 279.835938 41.042969 281.839844 42.28125 283.820312 43.558594 C 285.796875 44.835938 287.75 46.152344 289.675781 47.503906 C 291.605469 48.859375 293.503906 50.253906 295.375 51.683594 C 297.246094 53.113281 299.085938 54.582031 300.902344 56.082031 C 302.714844 57.585938 304.496094 59.125 306.25 60.699219 C 308 62.273438 309.71875 63.882812 311.410156 65.523438 C 313.097656 67.167969 314.75 68.84375 316.371094 70.550781 C 317.996094 72.261719 319.582031 74 321.132812 75.769531 C 322.6875 77.542969 324.203125 79.34375 325.683594 81.175781 C 327.164062 83.007812 328.609375 84.867188 330.015625 86.753906 C 331.421875 88.644531 332.792969 90.5625 334.121094 92.503906 C 334.441406 92.984375 334.734375 93.480469 335.007812 93.992188 C 335.277344 94.503906 335.523438 95.027344 335.742188 95.558594 C 335.960938 96.09375 336.15625 96.640625 336.324219 97.191406 C 336.488281 97.746094 336.628906 98.304688 336.742188 98.871094 C 336.855469 99.4375 336.9375 100.011719 336.996094 100.585938 C 337.050781 101.160156 337.082031 101.738281 337.082031 102.316406 C 337.082031 102.894531 337.054688 103.46875 337 104.042969 C 336.941406 104.621094 336.859375 105.191406 336.75 105.757812 C 336.636719 106.324219 336.5 106.886719 336.332031 107.441406 C 336.167969 107.992188 335.976562 108.539062 335.757812 109.074219 C 335.539062 109.605469 335.292969 110.128906 335.023438 110.640625 C 334.753906 111.152344 334.460938 111.648438 334.140625 112.132812 C 333.824219 112.613281 333.484375 113.082031 333.117188 113.53125 C 332.753906 113.980469 332.371094 114.410156 331.964844 114.820312 C 331.558594 115.234375 331.136719 115.625 330.691406 115.996094 C 330.25 116.367188 329.789062 116.714844 329.3125 117.039062 C 328.832031 117.363281 328.339844 117.667969 327.835938 117.945312 C 327.328125 118.222656 326.808594 118.476562 326.277344 118.703125 C 325.746094 118.929688 325.203125 119.128906 324.652344 119.304688 C 324.101562 119.480469 323.542969 119.625 322.980469 119.746094 C 322.414062 119.867188 321.84375 119.960938 321.269531 120.023438 C 320.695312 120.089844 320.121094 120.125 319.542969 120.132812 C 318.964844 120.140625 318.386719 120.121094 317.8125 120.074219 C 317.234375 120.027344 316.664062 119.953125 316.09375 119.847656 C 315.527344 119.746094 314.964844 119.613281 314.40625 119.457031 C 313.851562 119.296875 313.304688 119.113281 312.765625 118.902344 C 312.230469 118.691406 311.703125 118.453125 311.1875 118.191406 C 310.671875 117.929688 310.171875 117.640625 309.683594 117.332031 C 309.199219 117.019531 308.726562 116.683594 308.273438 116.328125 C 307.820312 115.96875 307.382812 115.589844 306.964844 115.191406 C 306.546875 114.792969 306.152344 114.375 305.773438 113.933594 C 305.398438 113.496094 305.042969 113.042969 304.710938 112.566406 C 302.582031 109.460938 300.328125 106.441406 297.957031 103.511719 C 295.589844 100.582031 293.105469 97.75 290.507812 95.015625 C 287.914062 92.285156 285.210938 89.660156 282.410156 87.140625 C 279.605469 84.625 276.703125 82.21875 273.707031 79.933594 C 270.714844 77.644531 267.632812 75.480469 264.464844 73.4375 C 261.296875 71.394531 258.054688 69.480469 254.734375 67.695312 C 251.414062 65.910156 248.027344 64.261719 244.578125 62.746094 C 241.128906 61.230469 237.621094 59.851562 234.0625 58.617188 C 230.503906 57.378906 226.898438 56.285156 223.25 55.332031 C 219.605469 54.382812 215.925781 53.578125 212.214844 52.917969 C 208.503906 52.261719 204.773438 51.75 201.019531 51.386719 C 197.269531 51.027344 193.511719 50.8125 189.742188 50.75 C 185.972656 50.6875 182.207031 50.773438 178.445312 51.007812 C 174.683594 51.246094 170.9375 51.628906 167.207031 52.164062 C 163.476562 52.699219 159.773438 53.378906 156.097656 54.207031 C 152.417969 55.035156 148.78125 56.007812 145.179688 57.125 C 141.582031 58.242188 138.03125 59.5 134.53125 60.898438 C 131.03125 62.296875 127.59375 63.832031 124.214844 65.503906 C 120.839844 67.179688 117.535156 68.980469 114.300781 70.917969 C 111.066406 72.851562 107.914062 74.914062 104.84375 77.097656 C 101.773438 79.285156 98.792969 81.585938 95.90625 84.011719 C 93.019531 86.433594 90.230469 88.964844 87.546875 91.609375 C 84.859375 94.253906 82.28125 97 79.8125 99.847656 C 77.347656 102.695312 74.996094 105.640625 72.761719 108.675781 C 70.527344 111.710938 68.417969 114.828125 66.429688 118.03125 C 64.445312 121.234375 62.589844 124.511719 60.863281 127.863281 C 59.136719 131.214844 57.546875 134.628906 56.09375 138.105469 C 54.636719 141.582031 53.324219 145.109375 52.148438 148.691406 C 50.976562 152.273438 49.945312 155.894531 49.058594 159.558594 C 48.171875 163.222656 47.433594 166.914062 46.839844 170.636719 C 46.25 174.359375 45.804688 178.097656 45.507812 181.855469 C 45.214844 185.613281 45.066406 189.375 45.070312 193.144531 C 45.070312 193.726562 45.042969 194.308594 44.984375 194.890625 C 44.925781 195.46875 44.84375 196.046875 44.730469 196.617188 C 44.613281 197.191406 44.472656 197.753906 44.304688 198.3125 C 44.132812 198.871094 43.9375 199.417969 43.714844 199.957031 C 43.492188 200.496094 43.242188 201.023438 42.96875 201.539062 C 42.695312 202.050781 42.394531 202.550781 42.070312 203.035156 C 41.746094 203.519531 41.398438 203.988281 41.03125 204.4375 C 40.660156 204.890625 40.269531 205.320312 39.855469 205.734375 C 39.445312 206.144531 39.011719 206.539062 38.5625 206.90625 C 38.109375 207.277344 37.644531 207.625 37.160156 207.949219 C 36.671875 208.273438 36.175781 208.570312 35.660156 208.847656 C 35.144531 209.121094 34.617188 209.371094 34.082031 209.59375 C 33.542969 209.816406 32.992188 210.011719 32.433594 210.183594 C 31.878906 210.351562 31.3125 210.492188 30.742188 210.605469 C 30.167969 210.71875 29.59375 210.804688 29.011719 210.863281 C 28.433594 210.917969 27.851562 210.949219 27.265625 210.949219 Z M 27.265625 210.949219 " fill-opacity="1" fill-rule="nonzero"/></g><path fill="#004000" d="M 329.921875 121.933594 L 258.707031 121.933594 C 258.125 121.933594 257.542969 121.902344 256.964844 121.847656 C 256.382812 121.789062 255.808594 121.703125 255.234375 121.589844 C 254.664062 121.476562 254.097656 121.335938 253.539062 121.167969 C 252.980469 120.996094 252.433594 120.800781 251.894531 120.578125 C 251.355469 120.355469 250.828125 120.105469 250.316406 119.832031 C 249.800781 119.554688 249.300781 119.257812 248.816406 118.933594 C 248.332031 118.609375 247.863281 118.261719 247.414062 117.890625 C 246.964844 117.523438 246.53125 117.128906 246.121094 116.71875 C 245.707031 116.304688 245.316406 115.875 244.945312 115.421875 C 244.578125 114.972656 244.230469 114.503906 243.90625 114.019531 C 243.582031 113.535156 243.28125 113.035156 243.007812 112.523438 C 242.730469 112.007812 242.484375 111.480469 242.261719 110.941406 C 242.035156 110.402344 241.839844 109.855469 241.671875 109.296875 C 241.503906 108.738281 241.359375 108.175781 241.246094 107.601562 C 241.132812 107.03125 241.046875 106.453125 240.992188 105.875 C 240.933594 105.292969 240.90625 104.710938 240.90625 104.128906 C 240.90625 103.546875 240.933594 102.964844 240.992188 102.382812 C 241.046875 101.804688 241.132812 101.226562 241.246094 100.65625 C 241.359375 100.085938 241.503906 99.519531 241.671875 98.960938 C 241.839844 98.402344 242.035156 97.855469 242.261719 97.316406 C 242.484375 96.777344 242.730469 96.25 243.007812 95.738281 C 243.28125 95.222656 243.582031 94.722656 243.90625 94.238281 C 244.230469 93.753906 244.578125 93.285156 244.945312 92.835938 C 245.316406 92.382812 245.707031 91.953125 246.121094 91.539062 C 246.53125 91.128906 246.964844 90.738281 247.414062 90.367188 C 247.863281 89.996094 248.332031 89.652344 248.816406 89.328125 C 249.300781 89.003906 249.800781 88.703125 250.316406 88.429688 C 250.828125 88.152344 251.355469 87.90625 251.894531 87.679688 C 252.433594 87.457031 252.980469 87.261719 253.539062 87.09375 C 254.097656 86.921875 254.664062 86.78125 255.234375 86.667969 C 255.808594 86.554688 256.382812 86.46875 256.964844 86.414062 C 257.542969 86.355469 258.125 86.328125 258.707031 86.328125 L 312.117188 86.328125 L 312.117188 50.71875 C 312.117188 50.136719 312.144531 49.554688 312.203125 48.976562 C 312.261719 48.394531 312.347656 47.820312 312.460938 47.246094 C 312.574219 46.675781 312.714844 46.109375 312.882812 45.550781 C 313.054688 44.996094 313.25 44.445312 313.472656 43.90625 C 313.695312 43.367188 313.945312 42.84375 314.21875 42.328125 C 314.496094 41.8125 314.792969 41.3125 315.117188 40.828125 C 315.441406 40.34375 315.789062 39.875 316.160156 39.425781 C 316.527344 38.976562 316.917969 38.542969 317.332031 38.132812 C 317.746094 37.71875 318.175781 37.328125 318.625 36.957031 C 319.078125 36.589844 319.542969 36.242188 320.03125 35.917969 C 320.515625 35.59375 321.015625 35.292969 321.527344 35.019531 C 322.042969 34.746094 322.570312 34.496094 323.109375 34.273438 C 323.644531 34.050781 324.195312 33.851562 324.753906 33.683594 C 325.3125 33.515625 325.875 33.371094 326.449219 33.257812 C 327.019531 33.144531 327.59375 33.058594 328.175781 33.003906 C 328.757812 32.945312 329.335938 32.917969 329.921875 32.917969 C 330.503906 32.917969 331.085938 32.945312 331.664062 33.003906 C 332.246094 33.058594 332.820312 33.144531 333.394531 33.257812 C 333.964844 33.371094 334.53125 33.515625 335.089844 33.683594 C 335.648438 33.851562 336.195312 34.050781 336.734375 34.273438 C 337.273438 34.496094 337.796875 34.746094 338.3125 35.019531 C 338.828125 35.292969 339.328125 35.59375 339.8125 35.917969 C 340.296875 36.242188 340.765625 36.589844 341.214844 36.957031 C 341.664062 37.328125 342.097656 37.71875 342.507812 38.132812 C 342.921875 38.542969 343.3125 38.976562 343.683594 39.425781 C 344.050781 39.875 344.398438 40.34375 344.722656 40.828125 C 345.046875 41.3125 345.347656 41.8125 345.621094 42.328125 C 345.894531 42.84375 346.144531 43.367188 346.367188 43.90625 C 346.589844 44.445312 346.789062 44.996094 346.957031 45.550781 C 347.125 46.109375 347.269531 46.675781 347.382812 47.246094 C 347.496094 47.820312 347.582031 48.394531 347.636719 48.976562 C 347.695312 49.554688 347.722656 50.136719 347.722656 50.71875 L 347.722656 104.128906 C 347.722656 104.710938 347.695312 105.292969 347.636719 105.875 C 347.582031 106.453125 347.496094 107.03125 347.382812 107.601562 C 347.269531 108.175781 347.125 108.738281 346.957031 109.296875 C 346.789062 109.855469 346.589844 110.402344 346.367188 110.941406 C 346.144531 111.480469 345.894531 112.007812 345.621094 112.523438 C 345.347656 113.035156 345.046875 113.535156 344.722656 114.019531 C 344.398438 114.503906 344.050781 114.972656 343.683594 115.421875 C 343.3125 115.875 342.921875 116.304688 342.507812 116.71875 C 342.097656 117.128906 341.664062 117.523438 341.214844 117.890625 C 340.765625 118.261719 340.296875 118.609375 339.8125 118.933594 C 339.328125 119.257812 338.828125 119.554688 338.3125 119.832031 C 337.796875 120.105469 337.273438 120.355469 336.734375 120.578125 C 336.195312 120.800781 335.648438 120.996094 335.089844 121.167969 C 334.53125 121.335938 333.964844 121.476562 333.394531 121.589844 C 332.820312 121.703125 332.246094 121.789062 331.664062 121.847656 C 331.085938 121.902344 330.503906 121.933594 329.921875 121.933594 Z M 329.921875 121.933594 " fill-opacity="1" fill-rule="nonzero"/><g clip-path="url(#02c0c3901f)"><path fill="#004000" d="M 187.496094 371.175781 C 183.898438 371.179688 180.308594 371.074219 176.71875 370.855469 C 173.128906 370.640625 169.550781 370.316406 165.984375 369.882812 C 162.414062 369.449219 158.859375 368.910156 155.324219 368.257812 C 151.789062 367.609375 148.277344 366.855469 144.785156 365.992188 C 141.296875 365.128906 137.835938 364.160156 134.402344 363.085938 C 130.972656 362.011719 127.578125 360.835938 124.21875 359.554688 C 120.859375 358.273438 117.539062 356.894531 114.265625 355.410156 C 110.988281 353.929688 107.761719 352.351562 104.582031 350.671875 C 101.402344 348.992188 98.277344 347.21875 95.203125 345.351562 C 92.132812 343.484375 89.121094 341.523438 86.167969 339.472656 C 83.214844 337.421875 80.328125 335.28125 77.503906 333.054688 C 74.683594 330.828125 71.929688 328.515625 69.25 326.121094 C 66.566406 323.726562 63.960938 321.253906 61.429688 318.699219 C 58.898438 316.148438 56.445312 313.519531 54.074219 310.816406 C 51.703125 308.117188 49.417969 305.34375 47.214844 302.503906 C 45.011719 299.660156 42.894531 296.757812 40.867188 293.785156 C 40.550781 293.304688 40.253906 292.808594 39.984375 292.296875 C 39.714844 291.785156 39.46875 291.265625 39.25 290.730469 C 39.027344 290.195312 38.835938 289.652344 38.667969 289.097656 C 38.5 288.542969 38.363281 287.984375 38.25 287.417969 C 38.136719 286.851562 38.054688 286.28125 37.996094 285.703125 C 37.9375 285.128906 37.910156 284.554688 37.910156 283.976562 C 37.910156 283.398438 37.9375 282.820312 37.992188 282.246094 C 38.046875 281.671875 38.132812 281.097656 38.242188 280.53125 C 38.355469 279.964844 38.492188 279.402344 38.660156 278.851562 C 38.824219 278.296875 39.015625 277.753906 39.234375 277.21875 C 39.453125 276.683594 39.699219 276.160156 39.96875 275.648438 C 40.238281 275.136719 40.53125 274.640625 40.851562 274.160156 C 41.167969 273.675781 41.507812 273.210938 41.871094 272.761719 C 42.234375 272.3125 42.621094 271.878906 43.027344 271.46875 C 43.429688 271.058594 43.855469 270.664062 44.296875 270.296875 C 44.742188 269.925781 45.203125 269.578125 45.679688 269.25 C 46.15625 268.925781 46.648438 268.625 47.15625 268.34375 C 47.664062 268.066406 48.183594 267.816406 48.714844 267.589844 C 49.246094 267.359375 49.785156 267.160156 50.335938 266.984375 C 50.886719 266.8125 51.445312 266.664062 52.011719 266.542969 C 52.578125 266.421875 53.148438 266.332031 53.722656 266.265625 C 54.296875 266.203125 54.871094 266.164062 55.449219 266.15625 C 56.027344 266.148438 56.605469 266.167969 57.179688 266.214844 C 57.757812 266.261719 58.328125 266.339844 58.898438 266.441406 C 59.464844 266.542969 60.027344 266.675781 60.582031 266.832031 C 61.140625 266.992188 61.6875 267.175781 62.222656 267.386719 C 62.761719 267.597656 63.289062 267.835938 63.804688 268.097656 C 64.316406 268.363281 64.820312 268.648438 65.304688 268.960938 C 65.792969 269.269531 66.261719 269.605469 66.71875 269.960938 C 67.171875 270.320312 67.609375 270.699219 68.023438 271.097656 C 68.441406 271.496094 68.839844 271.917969 69.214844 272.355469 C 69.59375 272.792969 69.949219 273.25 70.28125 273.722656 C 72.410156 276.832031 74.660156 279.851562 77.03125 282.78125 C 79.402344 285.710938 81.886719 288.539062 84.484375 291.273438 C 87.078125 294.007812 89.777344 296.632812 92.582031 299.148438 C 95.386719 301.667969 98.289062 304.070312 101.28125 306.355469 C 104.277344 308.644531 107.359375 310.808594 110.527344 312.851562 C 113.695312 314.894531 116.9375 316.808594 120.257812 318.59375 C 123.578125 320.378906 126.960938 322.027344 130.414062 323.542969 C 133.863281 325.058594 137.367188 326.4375 140.929688 327.675781 C 144.488281 328.910156 148.09375 330.003906 151.738281 330.957031 C 155.386719 331.90625 159.066406 332.710938 162.777344 333.371094 C 166.488281 334.03125 170.21875 334.539062 173.96875 334.902344 C 177.722656 335.265625 181.480469 335.476562 185.25 335.539062 C 189.019531 335.601562 192.78125 335.515625 196.542969 335.28125 C 200.304688 335.042969 204.050781 334.660156 207.785156 334.125 C 211.515625 333.59375 215.21875 332.910156 218.894531 332.085938 C 222.570312 331.257812 226.210938 330.285156 229.808594 329.167969 C 233.410156 328.050781 236.960938 326.792969 240.457031 325.390625 C 243.957031 323.992188 247.398438 322.457031 250.773438 320.785156 C 254.152344 319.113281 257.457031 317.308594 260.691406 315.375 C 263.925781 313.4375 267.078125 311.378906 270.148438 309.191406 C 273.21875 307.007812 276.199219 304.703125 279.085938 302.28125 C 281.972656 299.859375 284.761719 297.324219 287.445312 294.679688 C 290.132812 292.035156 292.710938 289.289062 295.175781 286.441406 C 297.644531 283.59375 299.996094 280.652344 302.230469 277.617188 C 304.464844 274.582031 306.574219 271.460938 308.558594 268.257812 C 310.546875 265.054688 312.402344 261.777344 314.128906 258.425781 C 315.855469 255.078125 317.445312 251.664062 318.898438 248.1875 C 320.351562 244.710938 321.667969 241.179688 322.839844 237.597656 C 324.015625 234.015625 325.046875 230.394531 325.933594 226.730469 C 326.816406 223.066406 327.558594 219.375 328.148438 215.652344 C 328.742188 211.929688 329.1875 208.191406 329.484375 204.433594 C 329.777344 200.675781 329.925781 196.914062 329.921875 193.144531 C 329.921875 192.5625 329.949219 191.980469 330.007812 191.398438 C 330.0625 190.820312 330.148438 190.242188 330.261719 189.671875 C 330.375 189.101562 330.519531 188.535156 330.6875 187.976562 C 330.855469 187.417969 331.050781 186.871094 331.277344 186.332031 C 331.5 185.792969 331.746094 185.265625 332.023438 184.753906 C 332.296875 184.238281 332.597656 183.738281 332.921875 183.253906 C 333.246094 182.769531 333.59375 182.300781 333.960938 181.851562 C 334.332031 181.398438 334.722656 180.96875 335.136719 180.554688 C 335.546875 180.144531 335.980469 179.753906 336.429688 179.382812 C 336.878906 179.011719 337.347656 178.667969 337.832031 178.34375 C 338.316406 178.019531 338.816406 177.71875 339.332031 177.445312 C 339.84375 177.167969 340.371094 176.921875 340.910156 176.695312 C 341.449219 176.472656 341.996094 176.277344 342.554688 176.109375 C 343.113281 175.9375 343.679688 175.796875 344.25 175.683594 C 344.824219 175.570312 345.398438 175.484375 345.980469 175.429688 C 346.558594 175.371094 347.140625 175.34375 347.722656 175.34375 C 348.308594 175.34375 348.886719 175.371094 349.46875 175.429688 C 350.050781 175.484375 350.625 175.570312 351.195312 175.683594 C 351.769531 175.796875 352.332031 175.9375 352.890625 176.109375 C 353.449219 176.277344 353.996094 176.472656 354.535156 176.695312 C 355.074219 176.921875 355.601562 177.167969 356.117188 177.445312 C 356.628906 177.71875 357.128906 178.019531 357.613281 178.34375 C 358.097656 178.667969 358.566406 179.011719 359.019531 179.382812 C 359.46875 179.753906 359.898438 180.144531 360.3125 180.554688 C 360.726562 180.96875 361.117188 181.398438 361.484375 181.851562 C 361.855469 182.300781 362.203125 182.769531 362.527344 183.253906 C 362.851562 183.738281 363.148438 184.238281 363.425781 184.753906 C 363.699219 185.265625 363.949219 185.792969 364.171875 186.332031 C 364.394531 186.871094 364.589844 187.417969 364.761719 187.976562 C 364.929688 188.535156 365.070312 189.101562 365.183594 189.671875 C 365.296875 190.242188 365.382812 190.820312 365.441406 191.398438 C 365.5 191.980469 365.527344 192.5625 365.527344 193.144531 C 365.523438 196.058594 365.449219 198.96875 365.304688 201.878906 C 365.15625 204.785156 364.941406 207.691406 364.652344 210.589844 C 364.363281 213.488281 364.003906 216.378906 363.574219 219.257812 C 363.144531 222.140625 362.644531 225.007812 362.074219 227.863281 C 361.503906 230.71875 360.863281 233.5625 360.152344 236.386719 C 359.441406 239.210938 358.664062 242.015625 357.816406 244.804688 C 356.96875 247.589844 356.054688 250.355469 355.070312 253.097656 C 354.089844 255.835938 353.039062 258.554688 351.921875 261.246094 C 350.804688 263.933594 349.625 266.597656 348.378906 269.230469 C 347.132812 271.859375 345.820312 274.460938 344.449219 277.03125 C 343.074219 279.597656 341.636719 282.132812 340.140625 284.628906 C 338.640625 287.125 337.082031 289.585938 335.464844 292.007812 C 333.84375 294.429688 332.167969 296.808594 330.429688 299.148438 C 328.695312 301.488281 326.902344 303.78125 325.054688 306.035156 C 323.207031 308.285156 321.304688 310.492188 319.347656 312.648438 C 317.394531 314.804688 315.386719 316.914062 313.324219 318.976562 C 311.265625 321.035156 309.15625 323.042969 307 325 C 304.839844 326.953125 302.636719 328.855469 300.382812 330.707031 C 298.132812 332.554688 295.839844 334.34375 293.5 336.082031 C 291.160156 337.816406 288.78125 339.492188 286.359375 341.113281 C 283.9375 342.730469 281.476562 344.289062 278.980469 345.789062 C 276.480469 347.285156 273.949219 348.722656 271.378906 350.097656 C 268.8125 351.472656 266.210938 352.78125 263.578125 354.027344 C 260.945312 355.273438 258.285156 356.457031 255.59375 357.570312 C 252.90625 358.6875 250.1875 359.738281 247.445312 360.722656 C 244.703125 361.703125 241.941406 362.617188 239.152344 363.464844 C 236.367188 364.3125 233.5625 365.09375 230.734375 365.800781 C 227.910156 366.511719 225.070312 367.152344 222.214844 367.722656 C 219.359375 368.292969 216.488281 368.792969 213.609375 369.222656 C 210.726562 369.652344 207.839844 370.011719 204.941406 370.300781 C 202.042969 370.589844 199.136719 370.808594 196.226562 370.953125 C 193.320312 371.097656 190.410156 371.171875 187.496094 371.175781 Z M 187.496094 371.175781 " fill-opacity="1" fill-rule="nonzero"/></g><path fill="#004000" d="M 45.070312 353.375 C 44.488281 353.375 43.90625 353.34375 43.324219 353.289062 C 42.746094 353.230469 42.167969 353.144531 41.597656 353.03125 C 41.027344 352.917969 40.460938 352.777344 39.902344 352.605469 C 39.34375 352.4375 38.796875 352.242188 38.257812 352.019531 C 37.71875 351.796875 37.191406 351.546875 36.679688 351.269531 C 36.164062 350.996094 35.664062 350.695312 35.179688 350.371094 C 34.695312 350.050781 34.226562 349.703125 33.777344 349.332031 C 33.324219 348.960938 32.894531 348.570312 32.480469 348.160156 C 32.070312 347.746094 31.679688 347.316406 31.308594 346.863281 C 30.9375 346.414062 30.589844 345.945312 30.269531 345.460938 C 29.945312 344.976562 29.644531 344.476562 29.371094 343.960938 C 29.09375 343.449219 28.847656 342.921875 28.621094 342.382812 C 28.398438 341.84375 28.203125 341.296875 28.035156 340.738281 C 27.863281 340.179688 27.722656 339.617188 27.609375 339.042969 C 27.496094 338.472656 27.410156 337.894531 27.351562 337.316406 C 27.296875 336.734375 27.265625 336.152344 27.265625 335.570312 L 27.265625 282.160156 C 27.265625 281.578125 27.296875 280.996094 27.351562 280.414062 C 27.410156 279.835938 27.496094 279.257812 27.609375 278.6875 C 27.722656 278.117188 27.863281 277.550781 28.035156 276.992188 C 28.203125 276.433594 28.398438 275.886719 28.621094 275.347656 C 28.847656 274.808594 29.09375 274.28125 29.371094 273.769531 C 29.644531 273.253906 29.945312 272.753906 30.269531 272.269531 C 30.589844 271.785156 30.9375 271.316406 31.308594 270.867188 C 31.679688 270.414062 32.070312 269.984375 32.480469 269.570312 C 32.894531 269.160156 33.324219 268.769531 33.777344 268.398438 C 34.226562 268.027344 34.695312 267.683594 35.179688 267.359375 C 35.664062 267.035156 36.164062 266.734375 36.679688 266.460938 C 37.191406 266.183594 37.71875 265.9375 38.257812 265.710938 C 38.796875 265.488281 39.34375 265.292969 39.902344 265.125 C 40.460938 264.953125 41.027344 264.8125 41.597656 264.699219 C 42.167969 264.585938 42.746094 264.5 43.324219 264.445312 C 43.90625 264.386719 44.488281 264.359375 45.070312 264.359375 L 116.28125 264.359375 C 116.867188 264.359375 117.449219 264.386719 118.027344 264.445312 C 118.609375 264.5 119.183594 264.585938 119.757812 264.699219 C 120.328125 264.8125 120.894531 264.953125 121.449219 265.125 C 122.007812 265.292969 122.558594 265.488281 123.097656 265.710938 C 123.632812 265.9375 124.160156 266.183594 124.675781 266.460938 C 125.191406 266.734375 125.6875 267.035156 126.175781 267.359375 C 126.660156 267.683594 127.125 268.027344 127.578125 268.398438 C 128.027344 268.769531 128.460938 269.160156 128.871094 269.570312 C 129.285156 269.984375 129.675781 270.414062 130.046875 270.867188 C 130.414062 271.316406 130.761719 271.785156 131.085938 272.269531 C 131.410156 272.753906 131.710938 273.253906 131.984375 273.769531 C 132.257812 274.28125 132.507812 274.808594 132.730469 275.347656 C 132.953125 275.886719 133.148438 276.433594 133.320312 276.992188 C 133.488281 277.550781 133.628906 278.117188 133.742188 278.6875 C 133.859375 279.257812 133.941406 279.835938 134 280.414062 C 134.058594 280.996094 134.085938 281.578125 134.085938 282.160156 C 134.085938 282.742188 134.058594 283.324219 134 283.90625 C 133.941406 284.484375 133.859375 285.0625 133.742188 285.632812 C 133.628906 286.207031 133.488281 286.769531 133.320312 287.328125 C 133.148438 287.886719 132.953125 288.433594 132.730469 288.972656 C 132.507812 289.511719 132.257812 290.039062 131.984375 290.554688 C 131.710938 291.066406 131.410156 291.566406 131.085938 292.050781 C 130.761719 292.535156 130.414062 293.003906 130.046875 293.453125 C 129.675781 293.90625 129.285156 294.335938 128.871094 294.75 C 128.460938 295.160156 128.027344 295.554688 127.578125 295.921875 C 127.125 296.292969 126.660156 296.640625 126.175781 296.964844 C 125.6875 297.289062 125.191406 297.585938 124.675781 297.863281 C 124.160156 298.136719 123.632812 298.386719 123.097656 298.609375 C 122.558594 298.832031 122.007812 299.027344 121.449219 299.199219 C 120.894531 299.367188 120.328125 299.507812 119.757812 299.621094 C 119.183594 299.734375 118.609375 299.820312 118.027344 299.878906 C 117.449219 299.933594 116.867188 299.964844 116.28125 299.964844 L 62.875 299.964844 L 62.875 335.570312 C 62.875 336.152344 62.84375 336.734375 62.789062 337.316406 C 62.730469 337.894531 62.644531 338.472656 62.53125 339.042969 C 62.417969 339.617188 62.277344 340.179688 62.105469 340.738281 C 61.9375 341.296875 61.742188 341.84375 61.519531 342.382812 C 61.296875 342.921875 61.046875 343.449219 60.773438 343.960938 C 60.496094 344.476562 60.199219 344.976562 59.875 345.460938 C 59.550781 345.945312 59.203125 346.414062 58.832031 346.863281 C 58.460938 347.316406 58.070312 347.746094 57.660156 348.160156 C 57.246094 348.570312 56.816406 348.960938 56.363281 349.332031 C 55.914062 349.703125 55.445312 350.050781 54.960938 350.371094 C 54.476562 350.695312 53.976562 350.996094 53.464844 351.269531 C 52.949219 351.546875 52.421875 351.796875 51.882812 352.019531 C 51.34375 352.242188 50.796875 352.4375 50.238281 352.605469 C 49.679688 352.777344 49.117188 352.917969 48.542969 353.03125 C 47.972656 353.144531 47.394531 353.230469 46.816406 353.289062 C 46.234375 353.34375 45.652344 353.375 45.070312 353.375 Z M 45.070312 353.375 " fill-opacity="1" fill-rule="nonzero"/><path fill="#004000" d="M 124.59375 158.210938 C 123.121094 159.835938 122.429688 162.011719 122.695312 164.183594 C 122.894531 165.820312 123.628906 167.324219 124.753906 168.488281 C 124.828125 168.546875 124.898438 168.601562 124.96875 168.664062 C 125.285156 168.972656 125.613281 169.269531 125.988281 169.519531 C 128.46875 171.167969 131.691406 171.199219 134.195312 169.597656 L 153.636719 157.175781 C 160.480469 152.804688 169.464844 153.101562 176 157.90625 L 179.535156 160.511719 C 184.472656 164.144531 191.113281 164.144531 196.050781 160.511719 L 199.589844 157.90625 C 206.128906 153.097656 215.113281 152.808594 221.953125 157.175781 L 241.386719 169.597656 C 243.898438 171.199219 247.121094 171.171875 249.601562 169.519531 C 251.425781 168.300781 252.621094 166.359375 252.890625 164.1875 C 253.15625 162.011719 252.460938 159.835938 250.988281 158.210938 L 232.1875 137.546875 L 143.402344 137.546875 L 124.601562 158.210938 Z M 124.59375 158.210938 " fill-opacity="1" fill-rule="nonzero"/><g clip-path="url(#78c234d7e6)"><path fill="#004000" d="M 221.769531 105.832031 L 153.835938 105.832031 C 148.988281 105.832031 145.039062 109.78125 145.039062 114.628906 L 145.039062 131.703125 L 230.566406 131.703125 L 230.566406 114.628906 C 230.566406 109.78125 226.617188 105.832031 221.765625 105.832031 Z M 221.769531 105.832031 " fill-opacity="1" fill-rule="nonzero"/></g><g clip-path="url(#88754a6bf0)"><path fill="#004000" d="M 251.019531 175.378906 C 246.9375 177.265625 242.113281 176.988281 238.246094 174.515625 L 218.808594 162.089844 C 213.988281 159.007812 207.652344 159.210938 203.046875 162.609375 L 199.507812 165.210938 C 192.503906 170.367188 183.089844 170.371094 176.078125 165.210938 L 172.539062 162.609375 C 167.929688 159.210938 161.589844 159.011719 156.78125 162.089844 L 137.335938 174.515625 C 135.148438 175.914062 132.652344 176.613281 130.152344 176.613281 C 128.246094 176.613281 126.339844 176.199219 124.566406 175.382812 C 117.214844 200.21875 116.472656 235.433594 149.609375 269.171875 L 225.945312 269.171875 C 230.449219 264.589844 234.511719 259.78125 238.035156 254.871094 C 253.773438 232.8125 258.738281 208.34375 252.785156 182.140625 C 252.300781 179.914062 251.6875 177.648438 251.015625 175.378906 Z M 222 208.746094 C 221.21875 211.945312 218.605469 214.3125 215.34375 214.78125 L 214.4375 214.90625 C 217.203125 218.964844 218.105469 223.96875 216.800781 228.859375 C 215.203125 234.816406 210.691406 239.328125 204.730469 240.925781 L 172.058594 249.679688 C 170.757812 250.03125 169.445312 250.203125 168.144531 250.203125 C 164.277344 250.203125 160.546875 248.683594 157.707031 245.835938 C 153.90625 242.039062 152.46875 236.671875 153.863281 231.484375 L 162.617188 198.8125 C 164.214844 192.851562 168.726562 188.339844 174.6875 186.742188 C 179.570312 185.433594 184.578125 186.339844 188.640625 189.105469 L 188.765625 188.214844 C 189.226562 184.945312 191.59375 182.328125 194.789062 181.546875 C 197.984375 180.753906 201.292969 181.980469 203.21875 184.660156 L 203.886719 185.582031 C 203.886719 185.582031 204.125 185.871094 204.125 185.875 C 204.773438 186.519531 205.769531 186.683594 206.613281 186.296875 C 209.71875 184.867188 213.265625 185.5 215.664062 187.898438 C 218.082031 190.3125 218.703125 193.871094 217.246094 196.957031 C 216.804688 197.902344 217.09375 199.039062 217.941406 199.644531 L 218.898438 200.339844 C 221.558594 202.246094 222.785156 205.550781 222.003906 208.746094 Z M 222 208.746094 " fill-opacity="1" fill-rule="nonzero"/></g><path fill="#004000" d="M 214.527344 204.375 C 211.410156 202.148438 210.324219 197.980469 211.957031 194.472656 C 212.441406 193.453125 212.050781 192.539062 211.53125 192.015625 C 211.207031 191.695312 210.320312 191.003906 209.050781 191.589844 C 205.992188 193.007812 202.355469 192.363281 199.988281 189.988281 C 199.664062 189.667969 199.34375 189.292969 199.082031 188.90625 L 198.472656 188.066406 C 197.667969 186.9375 196.511719 187.121094 196.171875 187.207031 C 195.742188 187.3125 194.71875 187.699219 194.53125 189.023438 L 193.855469 193.855469 L 209.683594 209.679688 L 214.519531 209.003906 C 215.871094 208.8125 216.25 207.695312 216.332031 207.355469 C 216.433594 206.929688 216.5625 205.84375 215.480469 205.070312 L 214.523438 204.378906 Z M 214.527344 204.375 " fill-opacity="1" fill-rule="nonzero"/><path fill="#004000" d="M 187.039062 195.285156 C 184.890625 193.132812 182.074219 191.980469 179.148438 191.980469 C 178.167969 191.980469 177.175781 192.109375 176.195312 192.375 C 172.269531 193.425781 169.296875 196.394531 168.246094 200.320312 L 159.492188 232.992188 C 158.648438 236.144531 159.523438 239.402344 161.828125 241.710938 C 164.132812 244.019531 167.390625 244.886719 170.546875 244.046875 L 203.21875 235.292969 C 207.140625 234.242188 210.109375 231.269531 211.160156 227.347656 C 212.214844 223.425781 211.125 219.371094 208.253906 216.496094 Z M 187.039062 195.285156 " fill-opacity="1" fill-rule="nonzero"/></svg>