<svg xmlns="http://www.w3.org/2000/svg" xmlns:xlink="http://www.w3.org/1999/xlink" width="500" zoomAndPan="magnify" viewBox="0 0 375 374.999991" height="500" preserveAspectRatio="xMidYMid meet" version="1.0"><defs><clipPath id="e9ab35772e"><path d="M 56.25 0 L 318.75 0 L 318.75 375 L 56.25 375 Z M 56.25 0 " clip-rule="nonzero"/></clipPath><clipPath id="181bea27b5"><path d="M 97.238281 59.625 L 199 59.625 L 199 116 L 97.238281 116 Z M 97.238281 59.625 " clip-rule="nonzero"/></clipPath><clipPath id="7a517e78fd"><path d="M 157 120.175781 L 202.550781 120.175781 L 202.550781 251 L 157 251 Z M 157 120.175781 " clip-rule="nonzero"/></clipPath><clipPath id="71683e3b85"><path d="M 108 121 L 179 121 L 179 255.375 L 108 255.375 Z M 108 121 " clip-rule="nonzero"/></clipPath><clipPath id="8bffa85fe5"><path d="M 176.011719 139.472656 L 194.019531 139.472656 L 194.019531 157.484375 L 176.011719 157.484375 Z M 176.011719 139.472656 " clip-rule="nonzero"/></clipPath></defs><g clip-path="url(#e9ab35772e)"><path fill="#ffffff" d="M 131.25 37.5 L 131.25 18.75 C 131.25 18.136719 131.28125 17.523438 131.339844 16.914062 C 131.402344 16.300781 131.492188 15.695312 131.609375 15.09375 C 131.730469 14.488281 131.878906 13.894531 132.058594 13.308594 C 132.234375 12.71875 132.441406 12.140625 132.675781 11.574219 C 132.914062 11.007812 133.175781 10.453125 133.464844 9.910156 C 133.753906 9.371094 134.070312 8.84375 134.410156 8.332031 C 134.75 7.824219 135.117188 7.328125 135.507812 6.855469 C 135.894531 6.378906 136.308594 5.925781 136.742188 5.492188 C 137.175781 5.058594 137.628906 4.644531 138.105469 4.257812 C 138.578125 3.867188 139.074219 3.5 139.582031 3.160156 C 140.09375 2.820312 140.621094 2.503906 141.160156 2.214844 C 141.703125 1.925781 142.257812 1.664062 142.824219 1.425781 C 143.390625 1.191406 143.96875 0.984375 144.558594 0.808594 C 145.144531 0.628906 145.738281 0.480469 146.34375 0.359375 C 146.945312 0.242188 147.550781 0.152344 148.164062 0.0898438 C 148.773438 0.03125 149.386719 0 150 0 L 225 0 C 225.613281 0 226.226562 0.03125 226.835938 0.0898438 C 227.449219 0.152344 228.054688 0.242188 228.65625 0.359375 C 229.261719 0.480469 229.855469 0.628906 230.441406 0.808594 C 231.03125 0.984375 231.609375 1.191406 232.175781 1.425781 C 232.742188 1.664062 233.296875 1.925781 233.839844 2.214844 C 234.378906 2.503906 234.90625 2.820312 235.417969 3.160156 C 235.925781 3.5 236.421875 3.867188 236.894531 4.257812 C 237.371094 4.644531 237.824219 5.058594 238.257812 5.492188 C 238.691406 5.925781 239.105469 6.378906 239.492188 6.855469 C 239.882812 7.328125 240.25 7.824219 240.589844 8.332031 C 240.929688 8.84375 241.246094 9.371094 241.535156 9.910156 C 241.824219 10.453125 242.085938 11.007812 242.324219 11.574219 C 242.558594 12.140625 242.765625 12.71875 242.941406 13.308594 C 243.121094 13.894531 243.269531 14.488281 243.390625 15.09375 C 243.507812 15.695312 243.597656 16.300781 243.660156 16.914062 C 243.71875 17.523438 243.75 18.136719 243.75 18.75 L 243.75 37.5 L 300 37.5 C 300.613281 37.5 301.226562 37.53125 301.835938 37.589844 C 302.449219 37.652344 303.054688 37.742188 303.65625 37.859375 C 304.261719 37.980469 304.855469 38.128906 305.441406 38.308594 C 306.03125 38.484375 306.609375 38.691406 307.175781 38.925781 C 307.742188 39.164062 308.296875 39.425781 308.839844 39.714844 C 309.378906 40.003906 309.90625 40.320312 310.417969 40.660156 C 310.925781 41 311.421875 41.367188 311.894531 41.757812 C 312.371094 42.144531 312.824219 42.558594 313.257812 42.992188 C 313.691406 43.425781 314.105469 43.878906 314.492188 44.355469 C 314.882812 44.828125 315.25 45.324219 315.589844 45.832031 C 315.929688 46.34375 316.246094 46.871094 316.535156 47.410156 C 316.824219 47.953125 317.085938 48.507812 317.324219 49.074219 C 317.558594 49.640625 317.765625 50.21875 317.941406 50.808594 C 318.121094 51.394531 318.269531 51.988281 318.390625 52.59375 C 318.507812 53.195312 318.597656 53.800781 318.660156 54.414062 C 318.71875 55.023438 318.75 55.636719 318.75 56.25 L 318.75 356.25 C 318.75 356.863281 318.71875 357.476562 318.660156 358.085938 C 318.597656 358.699219 318.507812 359.304688 318.390625 359.90625 C 318.269531 360.511719 318.121094 361.105469 317.941406 361.691406 C 317.765625 362.28125 317.558594 362.859375 317.324219 363.425781 C 317.085938 363.992188 316.824219 364.546875 316.535156 365.089844 C 316.246094 365.628906 315.929688 366.15625 315.589844 366.667969 C 315.25 367.175781 314.882812 367.671875 314.492188 368.144531 C 314.105469 368.621094 313.691406 369.074219 313.257812 369.507812 C 312.824219 369.941406 312.371094 370.355469 311.894531 370.742188 C 311.421875 371.132812 310.925781 371.5 310.417969 371.839844 C 309.90625 372.179688 309.378906 372.496094 308.839844 372.785156 C 308.296875 373.074219 307.742188 373.335938 307.175781 373.574219 C 306.609375 373.808594 306.03125 374.015625 305.441406 374.191406 C 304.855469 374.371094 304.261719 374.519531 303.65625 374.640625 C 303.054688 374.757812 302.449219 374.847656 301.835938 374.910156 C 301.226562 374.96875 300.613281 375 300 375 L 75 375 C 74.386719 375 73.773438 374.96875 73.164062 374.910156 C 72.550781 374.847656 71.945312 374.757812 71.34375 374.640625 C 70.738281 374.519531 70.144531 374.371094 69.558594 374.191406 C 68.96875 374.015625 68.390625 373.808594 67.824219 373.574219 C 67.257812 373.335938 66.703125 373.074219 66.160156 372.785156 C 65.621094 372.496094 65.09375 372.179688 64.582031 371.839844 C 64.074219 371.5 63.578125 371.132812 63.105469 370.742188 C 62.628906 370.355469 62.175781 369.941406 61.742188 369.507812 C 61.308594 369.074219 60.894531 368.621094 60.507812 368.144531 C 60.117188 367.671875 59.75 367.175781 59.410156 366.667969 C 59.070312 366.15625 58.753906 365.628906 58.464844 365.089844 C 58.175781 364.546875 57.914062 363.992188 57.675781 363.425781 C 57.441406 362.859375 57.234375 362.28125 57.058594 361.691406 C 56.878906 361.105469 56.730469 360.511719 56.609375 359.90625 C 56.492188 359.304688 56.402344 358.699219 56.339844 358.085938 C 56.28125 357.476562 56.25 356.863281 56.25 356.25 L 56.25 56.25 C 56.25 55.636719 56.28125 55.023438 56.339844 54.414062 C 56.402344 53.800781 56.492188 53.195312 56.609375 52.59375 C 56.730469 51.988281 56.878906 51.394531 57.058594 50.808594 C 57.234375 50.21875 57.441406 49.640625 57.675781 49.074219 C 57.914062 48.507812 58.175781 47.953125 58.464844 47.410156 C 58.753906 46.871094 59.070312 46.34375 59.410156 45.832031 C 59.75 45.324219 60.117188 44.828125 60.507812 44.355469 C 60.894531 43.878906 61.308594 43.425781 61.742188 42.992188 C 62.175781 42.558594 62.628906 42.144531 63.105469 41.757812 C 63.578125 41.367188 64.074219 41 64.582031 40.660156 C 65.09375 40.320312 65.621094 40.003906 66.160156 39.714844 C 66.703125 39.425781 67.257812 39.164062 67.824219 38.925781 C 68.390625 38.691406 68.96875 38.484375 69.558594 38.308594 C 70.144531 38.128906 70.738281 37.980469 71.34375 37.859375 C 71.945312 37.742188 72.550781 37.652344 73.164062 37.589844 C 73.773438 37.53125 74.386719 37.5 75 37.5 Z M 206.25 187.5 L 206.25 93.75 L 112.5 225 L 168.75 225 L 168.75 318.75 L 262.5 187.5 Z M 206.25 187.5 " fill-opacity="1" fill-rule="nonzero"/></g><path fill="#004000" d="M 154.875 299.449219 C 151.945312 299.449219 149.019531 299.363281 146.097656 299.183594 C 143.175781 299.007812 140.261719 298.738281 137.355469 298.382812 C 134.445312 298.023438 131.554688 297.578125 128.675781 297.042969 C 125.796875 296.507812 122.9375 295.886719 120.097656 295.175781 C 117.253906 294.464844 114.4375 293.667969 111.648438 292.785156 C 108.855469 291.902344 106.09375 290.933594 103.359375 289.882812 C 100.628906 288.828125 97.929688 287.691406 95.265625 286.472656 C 92.605469 285.253906 89.980469 283.957031 87.398438 282.578125 C 84.816406 281.195312 82.277344 279.738281 79.785156 278.203125 C 77.289062 276.667969 74.847656 275.058594 72.453125 273.375 C 70.058594 271.6875 67.71875 269.929688 65.429688 268.101562 C 63.144531 266.273438 60.914062 264.375 58.746094 262.410156 C 56.574219 260.441406 54.464844 258.410156 52.421875 256.316406 C 50.375 254.222656 48.394531 252.066406 46.484375 249.847656 C 44.570312 247.632812 42.726562 245.359375 40.953125 243.027344 C 39.179688 240.699219 37.480469 238.316406 35.851562 235.878906 C 34.222656 233.445312 32.671875 230.964844 31.199219 228.433594 C 29.722656 225.90625 28.328125 223.332031 27.011719 220.71875 C 25.695312 218.101562 24.457031 215.449219 23.304688 212.757812 C 22.148438 210.066406 21.078125 207.339844 20.09375 204.585938 C 19.105469 201.828125 18.203125 199.042969 17.390625 196.230469 C 16.574219 193.417969 15.84375 190.582031 15.203125 187.726562 C 14.5625 184.867188 14.007812 181.996094 13.542969 179.105469 C 13.078125 176.210938 12.699219 173.308594 12.414062 170.394531 C 12.125 167.480469 11.929688 164.5625 11.820312 161.636719 C 11.714844 158.710938 11.695312 155.78125 11.765625 152.855469 C 11.839844 149.925781 12 147.003906 12.253906 144.085938 C 12.503906 141.171875 12.84375 138.261719 13.273438 135.367188 C 13.703125 132.46875 14.222656 129.589844 14.828125 126.722656 C 15.433594 123.859375 16.128906 121.015625 16.910156 118.195312 C 17.691406 115.371094 18.558594 112.578125 19.511719 109.808594 C 20.464844 107.039062 21.5 104.300781 22.621094 101.597656 C 23.742188 98.890625 24.945312 96.222656 26.230469 93.589844 C 27.515625 90.960938 28.878906 88.371094 30.324219 85.824219 C 31.765625 83.273438 33.289062 80.773438 34.886719 78.320312 C 36.484375 75.867188 38.152344 73.464844 39.898438 71.109375 C 41.644531 68.757812 43.457031 66.464844 45.34375 64.222656 C 47.230469 61.984375 49.183594 59.804688 51.203125 57.683594 C 53.222656 55.5625 55.304688 53.507812 57.453125 51.511719 C 59.597656 49.519531 61.800781 47.597656 64.066406 45.738281 C 66.332031 43.882812 68.648438 42.097656 71.023438 40.382812 C 73.398438 38.667969 75.820312 37.027344 78.296875 35.460938 C 80.769531 33.894531 83.289062 32.40625 85.855469 30.996094 C 88.421875 29.585938 91.027344 28.253906 93.675781 27.003906 C 96.324219 25.75 99.007812 24.582031 101.726562 23.496094 C 104.445312 22.410156 107.195312 21.40625 109.976562 20.492188 C 112.757812 19.574219 115.5625 18.742188 118.394531 17.996094 C 121.226562 17.25 124.078125 16.59375 126.953125 16.023438 C 129.824219 15.453125 132.710938 14.972656 135.613281 14.578125 C 138.515625 14.1875 141.425781 13.882812 144.347656 13.667969 C 147.265625 13.453125 150.191406 13.332031 153.117188 13.296875 C 156.046875 13.261719 158.972656 13.316406 161.898438 13.460938 C 164.824219 13.605469 167.742188 13.84375 170.652344 14.167969 C 173.5625 14.492188 176.457031 14.902344 179.34375 15.40625 C 182.226562 15.90625 185.09375 16.5 187.945312 17.175781 C 190.792969 17.855469 193.617188 18.621094 196.417969 19.472656 C 199.222656 20.324219 201.992188 21.257812 204.738281 22.28125 C 207.480469 23.304688 210.191406 24.410156 212.867188 25.597656 C 215.546875 26.785156 218.183594 28.054688 220.78125 29.40625 C 223.378906 30.753906 225.933594 32.183594 228.445312 33.691406 C 230.957031 35.199219 233.417969 36.78125 235.832031 38.4375 C 238.246094 40.097656 240.605469 41.828125 242.910156 43.628906 C 245.21875 45.433594 247.46875 47.304688 249.660156 49.246094 C 251.855469 51.1875 253.984375 53.195312 256.054688 55.265625 C 258.539062 57.75 260.929688 60.320312 263.226562 62.980469 C 265.523438 65.640625 267.71875 68.378906 269.8125 71.199219 C 271.90625 74.023438 273.894531 76.917969 275.777344 79.882812 C 277.65625 82.851562 279.425781 85.882812 281.085938 88.980469 C 282.742188 92.082031 284.285156 95.234375 285.707031 98.445312 C 287.132812 101.660156 288.4375 104.917969 289.625 108.226562 C 290.808594 111.535156 291.871094 114.878906 292.808594 118.265625 C 293.746094 121.652344 294.558594 125.070312 295.246094 128.515625 C 295.929688 131.960938 296.488281 135.425781 296.921875 138.914062 C 297.351562 142.402344 297.652344 145.898438 297.824219 149.410156 C 298 152.917969 298.042969 156.429688 297.957031 159.941406 C 297.871094 163.453125 297.65625 166.957031 297.3125 170.457031 C 296.96875 173.953125 296.496094 177.429688 295.894531 180.894531 C 295.292969 184.355469 294.566406 187.789062 293.710938 191.199219 C 292.859375 194.605469 291.878906 197.980469 290.777344 201.316406 C 289.675781 204.652344 288.453125 207.941406 287.105469 211.1875 C 285.761719 214.433594 284.300781 217.625 282.71875 220.765625 C 281.136719 223.902344 279.445312 226.976562 277.636719 229.992188 C 275.832031 233.003906 273.914062 235.949219 271.890625 238.820312 C 269.867188 241.691406 267.742188 244.484375 265.511719 247.199219 C 263.28125 249.914062 260.953125 252.546875 258.53125 255.089844 C 256.105469 257.632812 253.59375 260.085938 250.988281 262.441406 C 248.382812 264.800781 245.695312 267.0625 242.925781 269.222656 C 240.15625 271.382812 237.308594 273.4375 234.386719 275.386719 C 231.464844 277.339844 228.472656 279.179688 225.414062 280.910156 C 222.359375 282.640625 219.238281 284.253906 216.0625 285.753906 C 212.886719 287.253906 209.65625 288.636719 206.378906 289.898438 C 203.101562 291.160156 199.777344 292.300781 196.414062 293.320312 C 193.054688 294.335938 189.65625 295.230469 186.226562 295.996094 C 182.800781 296.765625 179.347656 297.40625 175.871094 297.917969 C 172.394531 298.429688 168.90625 298.816406 165.402344 299.070312 C 161.898438 299.328125 158.386719 299.453125 154.875 299.449219 Z M 154.875 44.8125 C 152.742188 44.804688 150.609375 44.863281 148.480469 44.980469 C 146.351562 45.097656 144.226562 45.277344 142.105469 45.515625 C 139.988281 45.753906 137.875 46.054688 135.773438 46.414062 C 133.671875 46.773438 131.582031 47.195312 129.503906 47.675781 C 127.425781 48.152344 125.363281 48.691406 123.316406 49.292969 C 121.269531 49.890625 119.238281 50.546875 117.230469 51.261719 C 115.21875 51.972656 113.234375 52.746094 111.265625 53.574219 C 109.300781 54.402344 107.363281 55.285156 105.445312 56.226562 C 103.53125 57.164062 101.644531 58.160156 99.789062 59.207031 C 97.929688 60.253906 96.105469 61.355469 94.308594 62.507812 C 92.515625 63.660156 90.753906 64.863281 89.027344 66.117188 C 87.300781 67.367188 85.613281 68.671875 83.964844 70.019531 C 82.3125 71.371094 80.699219 72.765625 79.128906 74.207031 C 77.558594 75.652344 76.03125 77.136719 74.542969 78.667969 C 73.058594 80.199219 71.617188 81.769531 70.21875 83.382812 C 68.824219 84.992188 67.476562 86.644531 66.175781 88.335938 C 64.875 90.023438 63.621094 91.75 62.417969 93.511719 C 61.214844 95.273438 60.066406 97.070312 58.964844 98.894531 C 57.867188 100.722656 56.820312 102.582031 55.828125 104.46875 C 54.835938 106.355469 53.894531 108.269531 53.011719 110.210938 C 52.128906 112.152344 51.300781 114.117188 50.53125 116.105469 C 49.761719 118.097656 49.046875 120.105469 48.390625 122.136719 C 47.738281 124.164062 47.140625 126.210938 46.601562 128.273438 C 46.0625 130.339844 45.585938 132.417969 45.164062 134.507812 C 44.746094 136.597656 44.386719 138.699219 44.089844 140.8125 C 43.789062 142.925781 43.550781 145.042969 43.375 147.167969 C 43.199219 149.292969 43.082031 151.421875 43.027344 153.554688 C 42.972656 155.6875 42.976562 157.820312 43.042969 159.949219 C 43.109375 162.082031 43.238281 164.210938 43.425781 166.335938 C 43.617188 168.460938 43.867188 170.578125 44.175781 172.6875 C 44.488281 174.796875 44.855469 176.898438 45.289062 178.984375 C 45.71875 181.074219 46.207031 183.148438 46.757812 185.210938 C 47.308594 187.273438 47.914062 189.316406 48.582031 191.339844 C 49.25 193.367188 49.972656 195.371094 50.753906 197.355469 C 51.535156 199.339844 52.375 201.300781 53.269531 203.238281 C 54.164062 205.175781 55.109375 207.082031 56.113281 208.964844 C 57.117188 210.847656 58.175781 212.699219 59.285156 214.519531 C 60.394531 216.34375 61.554688 218.132812 62.765625 219.886719 C 63.976562 221.640625 65.238281 223.359375 66.550781 225.042969 C 67.859375 226.726562 69.21875 228.371094 70.625 229.972656 C 72.027344 231.578125 73.476562 233.140625 74.972656 234.664062 C 76.464844 236.1875 78.003906 237.664062 79.582031 239.097656 C 81.160156 240.53125 82.78125 241.917969 84.4375 243.257812 C 86.097656 244.601562 87.792969 245.894531 89.527344 247.136719 C 91.257812 248.378906 93.027344 249.574219 94.828125 250.714844 C 96.628906 251.859375 98.460938 252.949219 100.324219 253.984375 C 102.1875 255.023438 104.078125 256.007812 106 256.933594 C 107.917969 257.863281 109.863281 258.738281 111.832031 259.554688 C 113.804688 260.371094 115.796875 261.132812 117.808594 261.835938 C 119.824219 262.539062 121.855469 263.183594 123.90625 263.773438 C 125.957031 264.359375 128.019531 264.886719 130.101562 265.355469 C 132.183594 265.824219 134.273438 266.230469 136.378906 266.582031 C 138.484375 266.929688 140.597656 267.21875 142.714844 267.445312 C 144.835938 267.671875 146.960938 267.839844 149.09375 267.945312 C 151.222656 268.050781 153.355469 268.09375 155.488281 268.078125 C 157.621094 268.0625 159.75 267.984375 161.878906 267.84375 C 164.007812 267.707031 166.128906 267.507812 168.246094 267.246094 C 170.363281 266.988281 172.472656 266.667969 174.570312 266.285156 C 176.667969 265.902344 178.753906 265.464844 180.828125 264.960938 C 182.902344 264.460938 184.957031 263.902344 187 263.285156 C 189.042969 262.664062 191.0625 261.988281 193.066406 261.253906 C 195.066406 260.519531 197.046875 259.726562 199.003906 258.878906 C 200.960938 258.03125 202.894531 257.128906 204.796875 256.171875 C 206.703125 255.210938 208.578125 254.199219 210.425781 253.132812 C 212.273438 252.066406 214.089844 250.949219 215.871094 249.777344 C 217.65625 248.609375 219.402344 247.386719 221.117188 246.117188 C 222.832031 244.847656 224.507812 243.527344 226.144531 242.164062 C 227.78125 240.796875 229.378906 239.382812 230.933594 237.925781 C 232.492188 236.46875 234.003906 234.964844 235.476562 233.421875 C 236.945312 231.878906 238.371094 230.292969 239.753906 228.664062 C 241.132812 227.039062 242.464844 225.375 243.75 223.671875 C 245.03125 221.96875 246.265625 220.230469 247.453125 218.457031 C 248.636719 216.683594 249.769531 214.878906 250.851562 213.039062 C 251.933594 211.199219 252.960938 209.332031 253.933594 207.433594 C 254.910156 205.539062 255.828125 203.613281 256.691406 201.664062 C 257.554688 199.714844 258.363281 197.742188 259.113281 195.742188 C 259.863281 193.746094 260.558594 191.730469 261.191406 189.695312 C 261.828125 187.660156 262.402344 185.605469 262.921875 183.539062 C 263.4375 181.46875 263.898438 179.386719 264.296875 177.289062 C 264.695312 175.195312 265.03125 173.089844 265.308594 170.976562 C 265.585938 168.859375 265.804688 166.738281 265.960938 164.613281 C 266.117188 162.484375 266.210938 160.355469 266.246094 158.222656 C 266.277344 156.089844 266.25 153.957031 266.164062 151.828125 C 266.074219 149.695312 265.925781 147.570312 265.714844 145.449219 C 265.503906 143.324219 265.234375 141.210938 264.902344 139.101562 C 264.570312 136.996094 264.179688 134.902344 263.730469 132.816406 C 263.277344 130.730469 262.765625 128.660156 262.195312 126.605469 C 261.625 124.550781 261 122.515625 260.3125 120.496094 C 259.625 118.476562 258.878906 116.476562 258.078125 114.5 C 257.277344 112.523438 256.421875 110.574219 255.507812 108.644531 C 254.59375 106.71875 253.625 104.816406 252.605469 102.945312 C 251.582031 101.074219 250.507812 99.234375 249.378906 97.421875 C 248.25 95.613281 247.074219 93.835938 245.84375 92.09375 C 244.613281 90.351562 243.335938 88.644531 242.007812 86.972656 C 240.679688 85.304688 239.308594 83.675781 237.886719 82.082031 C 236.464844 80.492188 235 78.945312 233.492188 77.4375 C 230.914062 74.859375 228.222656 72.417969 225.40625 70.105469 C 222.59375 67.792969 219.671875 65.625 216.644531 63.601562 C 213.617188 61.578125 210.496094 59.703125 207.285156 57.984375 C 204.074219 56.265625 200.789062 54.710938 197.421875 53.3125 C 194.058594 51.917969 190.636719 50.691406 187.152344 49.628906 C 183.667969 48.570312 180.140625 47.683594 176.566406 46.96875 C 172.996094 46.253906 169.398438 45.71875 165.773438 45.359375 C 162.148438 44.996094 158.515625 44.816406 154.875 44.8125 Z M 154.875 44.8125 " fill-opacity="1" fill-rule="nonzero"/><path fill="#004000" d="M 357.703125 375 C 355.621094 374.992188 353.621094 374.585938 351.703125 373.78125 C 349.78125 372.976562 348.085938 371.839844 346.621094 370.363281 L 233.804688 257.625 C 233.074219 256.894531 232.421875 256.101562 231.847656 255.242188 C 231.273438 254.382812 230.789062 253.476562 230.394531 252.523438 C 230 251.566406 229.699219 250.582031 229.5 249.570312 C 229.296875 248.558594 229.195312 247.535156 229.195312 246.5 C 229.195312 245.46875 229.296875 244.445312 229.5 243.433594 C 229.699219 242.417969 230 241.433594 230.394531 240.480469 C 230.789062 239.527344 231.273438 238.621094 231.847656 237.761719 C 232.421875 236.902344 233.074219 236.109375 233.804688 235.378906 C 234.535156 234.648438 235.332031 233.996094 236.1875 233.421875 C 237.046875 232.847656 237.953125 232.363281 238.910156 231.96875 C 239.863281 231.570312 240.847656 231.273438 241.859375 231.070312 C 242.875 230.871094 243.894531 230.769531 244.929688 230.769531 C 245.960938 230.769531 246.984375 230.871094 248 231.070312 C 249.011719 231.273438 249.996094 231.570312 250.949219 231.96875 C 251.902344 232.363281 252.8125 232.847656 253.667969 233.421875 C 254.527344 233.996094 255.324219 234.648438 256.054688 235.378906 L 368.789062 348.191406 C 369.332031 348.738281 369.832031 349.320312 370.289062 349.941406 C 370.75 350.5625 371.160156 351.214844 371.519531 351.894531 C 371.882812 352.574219 372.191406 353.277344 372.449219 354.003906 C 372.710938 354.730469 372.914062 355.472656 373.0625 356.226562 C 373.210938 356.984375 373.304688 357.746094 373.34375 358.515625 C 373.378906 359.285156 373.359375 360.054688 373.285156 360.824219 C 373.210938 361.589844 373.078125 362.347656 372.890625 363.09375 C 372.703125 363.84375 372.464844 364.574219 372.167969 365.285156 C 371.875 365.996094 371.527344 366.683594 371.132812 367.347656 C 370.738281 368.007812 370.296875 368.636719 369.808594 369.234375 C 369.320312 369.828125 368.789062 370.386719 368.21875 370.90625 C 367.648438 371.425781 367.046875 371.898438 366.40625 372.328125 C 365.765625 372.757812 365.097656 373.140625 364.402344 373.472656 C 363.707031 373.804688 362.988281 374.082031 362.253906 374.308594 C 361.515625 374.535156 360.765625 374.707031 360.003906 374.820312 C 359.242188 374.9375 358.476562 374.996094 357.703125 375 Z M 357.703125 375 " fill-opacity="1" fill-rule="nonzero"/><g clip-path="url(#181bea27b5)"><path fill="#004000" d="M 185.136719 93.128906 C 184.902344 86.503906 195.242188 94.808594 191.140625 77.972656 C 186.546875 59.109375 149.265625 54.855469 156.3125 77.972656 C 160.160156 90.601562 146.726562 89.910156 150.015625 81.542969 C 151.761719 77.109375 150.871094 65.164062 134.988281 60.558594 C 115.597656 54.9375 104.851562 76.910156 113.261719 88.371094 C 120.558594 98.320312 117.691406 106.171875 107.117188 100.238281 C 97.898438 95.066406 90.164062 110.382812 107.898438 115.542969 C 112.414062 111.835938 120.15625 109.457031 124.347656 107.804688 L 120.03125 89.945312 C 120.03125 89.945312 128.375 73.742188 144.824219 83.476562 L 147.847656 94.359375 C 147.847656 94.359375 175.527344 76.648438 193.925781 114.164062 C 208.515625 92.164062 185.292969 97.585938 185.136719 93.128906 Z M 185.136719 93.128906 " fill-opacity="1" fill-rule="nonzero"/></g><path fill="#004000" d="M 164.65625 113.769531 C 172.222656 111.460938 179.703125 112.882812 184.996094 121.054688 L 189.890625 118.214844 C 186.4375 105.382812 174.652344 96.515625 160.464844 96.515625 C 153.632812 96.515625 146.632812 99.535156 141.144531 103.757812 C 149.546875 103.046875 159.660156 104.203125 164.65625 113.769531 Z M 164.65625 113.769531 " fill-opacity="1" fill-rule="nonzero"/><g clip-path="url(#7a517e78fd)"><path fill="#004000" d="M 197.476562 121.054688 L 157.253906 144.394531 L 177.304688 159.472656 C 182.710938 163.453125 185.902344 169.765625 185.902344 176.480469 L 185.902344 250.945312 C 188.324219 250.007812 190.050781 247.667969 190.050781 244.910156 L 202.457031 123.375 C 202.457031 120.855469 199.46875 119.464844 197.476562 121.054688 Z M 197.476562 121.054688 " fill-opacity="1" fill-rule="nonzero"/></g><path fill="#004000" d="M 120.964844 118.089844 L 151.082031 140.734375 L 163.4375 133.566406 L 162.238281 124.898438 C 160.660156 113.476562 145.734375 106.855469 134.3125 108.433594 C 128.230469 109.277344 123.105469 112.683594 119.878906 117.414062 C 120.246094 117.632812 120.617188 117.835938 120.964844 118.089844 Z M 120.964844 118.089844 " fill-opacity="1" fill-rule="nonzero"/><path fill="#004000" d="M 180.136719 123.929688 C 177.316406 120.058594 172.15625 117.960938 165.867188 119.496094 L 168.042969 130.902344 Z M 180.136719 123.929688 " fill-opacity="1" fill-rule="nonzero"/><g clip-path="url(#71683e3b85)"><path fill="#004000" d="M 171.628906 164.371094 L 116.210938 122.710938 C 113.007812 120.351562 108.480469 122.636719 108.480469 126.617188 L 119.757812 244.628906 C 119.757812 250.546875 124.554688 255.34375 130.472656 255.34375 L 169.332031 255.34375 C 176.425781 255.34375 178.773438 249.78125 178.773438 246.589844 L 178.773438 178.515625 C 178.773438 172.933594 176.121094 167.683594 171.628906 164.371094 Z M 115.984375 152.78125 C 114.34375 151.414062 114.117188 148.976562 115.484375 147.332031 C 116.851562 145.6875 119.296875 145.464844 120.9375 146.835938 L 149.90625 170.949219 C 151.550781 172.320312 151.773438 174.757812 150.40625 176.402344 C 149.636719 177.320312 148.539062 177.796875 147.429688 177.796875 C 146.554688 177.796875 145.675781 177.503906 144.953125 176.898438 Z M 123.691406 177.226562 C 125.046875 175.574219 127.484375 175.335938 129.136719 176.683594 L 169.046875 209.378906 C 170.699219 210.734375 170.941406 213.171875 169.585938 214.824219 C 168.820312 215.757812 167.707031 216.242188 166.589844 216.242188 C 165.726562 216.242188 164.859375 215.957031 164.140625 215.367188 L 124.230469 182.671875 C 122.578125 181.316406 122.335938 178.882812 123.691406 177.226562 Z M 169.585938 240.222656 C 168.816406 241.15625 167.707031 241.640625 166.589844 241.640625 C 165.726562 241.640625 164.859375 241.351562 164.136719 240.761719 L 129.953125 212.703125 C 128.300781 211.347656 128.0625 208.90625 129.417969 207.257812 C 130.773438 205.605469 133.210938 205.363281 134.863281 206.71875 L 169.046875 234.777344 C 170.699219 236.132812 170.941406 238.574219 169.585938 240.222656 Z M 169.566406 192.355469 C 168.800781 193.273438 167.699219 193.746094 166.589844 193.746094 C 165.71875 193.746094 164.839844 193.453125 164.117188 192.851562 L 157.191406 187.089844 C 155.550781 185.722656 155.328125 183.285156 156.695312 181.640625 C 158.0625 179.996094 160.5 179.773438 162.144531 181.140625 L 169.070312 186.90625 C 170.710938 188.273438 170.933594 190.710938 169.566406 192.355469 Z M 169.566406 192.355469 " fill-opacity="1" fill-rule="nonzero"/></g><path fill="#004000" d="M 144.984375 98.996094 L 141.601562 87.324219 C 128.699219 81.523438 123.863281 92.808594 123.863281 92.808594 L 127.511719 107.703125 C 127.511719 107.703125 131.804688 105.285156 136.941406 105.585938 C 136.941406 105.585938 137.972656 101.113281 144.984375 98.996094 Z M 144.984375 98.996094 " fill-opacity="1" fill-rule="nonzero"/><g clip-path="url(#8bffa85fe5)"><path fill="#004000" d="M 176.011719 139.472656 L 194.027344 139.472656 L 194.027344 157.492188 L 176.011719 157.492188 Z M 176.011719 139.472656 " fill-opacity="1" fill-rule="nonzero"/></g></svg>