<svg xmlns="http://www.w3.org/2000/svg" xmlns:xlink="http://www.w3.org/1999/xlink" width="500" zoomAndPan="magnify" viewBox="0 0 375 374.999991" height="500" preserveAspectRatio="xMidYMid meet" version="1.0"><defs><clipPath id="611a41e7e0"><path d="M 0 93 L 80 93 L 80 346.59375 L 0 346.59375 Z M 0 93 " clip-rule="nonzero"/></clipPath><clipPath id="1e08a7aded"><path d="M 136.851562 161.203125 L 216.351562 161.203125 L 216.351562 240.703125 L 136.851562 240.703125 Z M 136.851562 161.203125 " clip-rule="nonzero"/></clipPath></defs><g clip-path="url(#611a41e7e0)"><path fill="#ffb300" d="M 79.292969 133.507812 L 79.292969 306.898438 C 79.292969 328.847656 61.734375 346.40625 39.789062 346.40625 C 17.839844 346.40625 0.0625 328.847656 0.0625 306.898438 L 0.0625 133.507812 C 0.0625 111.558594 17.839844 93.78125 39.789062 93.78125 C 61.734375 93.78125 79.292969 111.558594 79.292969 133.507812 Z M 79.292969 133.507812 " fill-opacity="1" fill-rule="evenodd"/></g><path fill="#ffb300" d="M 342.894531 175.867188 L 282.316406 175.867188 C 285.828125 180.914062 287.804688 187.0625 287.804688 193.863281 C 287.804688 204.179688 282.976562 213.398438 275.292969 219.324219 C 282.976562 226.128906 287.804688 235.347656 287.804688 245.664062 C 287.804688 263.222656 273.539062 277.707031 255.757812 277.707031 L 252.246094 277.707031 C 256.199219 282.757812 258.171875 289.558594 258.171875 296.582031 C 258.171875 314.140625 243.90625 328.410156 226.347656 328.410156 L 101.023438 328.410156 C 96.851562 328.410156 92.683594 328.1875 88.511719 327.3125 C 91.148438 320.945312 92.464844 314.140625 92.464844 306.898438 L 92.464844 133.507812 C 92.464844 125.386719 90.707031 117.921875 87.636719 111.121094 L 157.429688 41.105469 C 169.941406 28.59375 190.351562 28.59375 202.863281 41.105469 C 215.375 53.613281 215.375 74.027344 202.863281 86.539062 L 177.84375 111.558594 L 343.113281 111.558594 C 360.671875 111.777344 374.9375 126.042969 374.9375 143.824219 C 374.9375 161.382812 360.671875 175.867188 343.113281 175.867188 Z M 342.894531 175.867188 " fill-opacity="1" fill-rule="evenodd"/><g clip-path="url(#1e08a7aded)"><path fill="#ffb300" d="M 136.851562 161.203125 L 216.5625 161.203125 L 216.5625 240.914062 L 136.851562 240.914062 Z M 136.851562 161.203125 " fill-opacity="1" fill-rule="nonzero"/></g></svg>