<svg version="1.1" id="Layer_1" xmlns="http://www.w3.org/2000/svg" xmlns:xlink="http://www.w3.org/1999/xlink" x="0px" y="0px"
	 width="100%" viewBox="0 0 500 500" enable-background="new 0 0 500 500" xml:space="preserve">
<path fill="#004101" opacity="1.000000" stroke="none" 
	d="
M281.000000,501.000000 
	C260.979095,501.000000 240.958206,501.000000 220.271973,500.690430 
	C218.235138,499.895874 216.898773,499.230988 215.486435,498.955231 
	C206.343811,497.170258 197.007263,496.111176 188.060379,493.635559 
	C138.882141,480.028076 96.754501,454.900574 62.881760,416.349091 
	C48.511623,399.994110 36.224407,382.200775 26.593948,362.785675 
	C14.694699,338.796753 6.786455,313.393127 3.020648,286.781891 
	C2.786287,285.125763 1.693440,283.591156 1.000001,282.000000 
	C1.000000,261.312439 1.000000,240.624878 1.295308,219.332397 
	C2.334359,216.588928 3.307982,214.500061 3.782574,212.303375 
	C5.991754,202.078110 7.501046,191.667679 10.283217,181.606232 
	C20.854940,143.374619 40.231220,109.878807 66.973213,80.799591 
	C91.754059,53.852940 121.449745,33.638134 155.271927,19.553717 
	C172.067032,12.559806 189.388031,7.411715 207.365662,4.435775 
	C211.649307,3.726679 215.792313,2.167942 220.000000,1.000000 
	C240.354233,1.000000 260.708466,1.000000 281.490601,1.336068 
	C281.950317,2.122196 281.982117,2.572256 282.043884,3.269289 
	C284.554108,5.730395 297.406006,7.387639 301.443939,5.983001 
	C302.903900,6.046954 303.965851,6.090597 305.203247,6.285578 
	C305.617157,6.635746 305.863251,6.824623 306.351746,7.036588 
	C306.586517,7.069627 307.054962,7.142831 307.247375,7.265322 
	C308.306244,7.583895 309.172760,7.779978 310.366058,8.016129 
	C311.128693,8.108725 311.564545,8.161252 312.221497,8.419014 
	C313.133209,9.060699 313.823853,9.497148 314.704895,9.841753 
	C314.895355,9.749909 315.309479,9.664345 315.309479,9.664345 
	C315.309479,9.664345 315.732086,9.678417 316.011749,9.849512 
	C317.878754,10.338322 319.466095,10.656034 321.446167,11.014660 
	C326.885406,12.803318 331.931885,14.551064 337.145844,16.569122 
	C342.885040,22.958696 350.728363,23.290525 358.384949,25.072462 
	C359.645172,25.563660 360.581360,25.916626 361.474396,26.357002 
	C394.334686,42.561184 422.401489,64.840187 445.326416,93.395340 
	C454.142151,104.376137 463.327698,115.260193 468.201294,129.197479 
	C469.227814,130.321442 470.120148,131.161484 471.001587,132.003937 
	C470.990662,132.006332 471.001984,131.986984 471.020081,132.380951 
	C473.197418,138.394318 475.296265,144.038635 477.592926,149.601288 
	C477.876892,150.289047 479.214539,150.541748 480.274231,151.270721 
	C489.955750,172.661499 495.788300,194.788712 498.992645,217.665451 
	C499.249786,219.501343 500.311951,221.224472 501.000000,223.000000 
	C501.000000,242.354233 501.000000,261.708466 500.686096,281.729218 
	C499.861206,283.927643 499.215424,285.429016 498.860535,286.996246 
	C495.924927,299.961060 493.978546,313.234802 489.974152,325.857117 
	C476.587891,368.052094 453.738800,404.390076 421.041077,434.509949 
	C382.549744,469.966705 337.447815,491.268616 285.789734,498.996460 
	C284.130371,499.244659 282.593811,500.313660 281.000000,501.000000 
M393.000000,116.000000 
	C393.000000,116.000000 392.976440,116.031822 392.480591,115.764771 
	C391.970581,115.526497 391.460571,115.288231 390.496002,115.047081 
	C390.496002,115.047081 390.041779,115.064247 389.510529,115.081825 
	C388.673523,116.058578 387.836487,117.035332 386.988770,117.991013 
	C386.988770,117.991013 387.011841,117.996239 386.542725,118.326317 
	C386.022705,118.881096 385.502716,119.435875 384.698364,120.350334 
	C384.498016,120.582413 384.278198,120.794304 383.327515,121.128372 
	C381.548279,123.097054 379.769043,125.065727 377.648376,127.479263 
	C377.095093,127.979073 376.541840,128.478882 375.349243,129.151932 
	C374.270233,130.137100 373.191254,131.122253 372.042328,132.106506 
	C372.042328,132.106506 372.029938,132.037674 371.690704,132.358398 
	C371.467346,132.575241 371.249908,132.797897 371.091644,133.019302 
	C371.091644,133.019302 371.070709,133.068771 370.599152,133.456619 
	C370.062653,134.304886 369.526184,135.153152 368.989563,135.991425 
	C368.989563,135.991425 368.999573,135.988388 368.296692,136.136276 
	C364.068176,137.117569 361.695190,139.803818 360.620270,144.576111 
	C349.730164,155.376953 338.840088,166.177795 327.262115,177.140244 
	C323.649689,178.044281 321.528900,180.312729 320.686310,184.365799 
	C320.482910,184.591888 320.260986,184.798035 319.440674,185.195679 
	C318.649445,185.818085 317.858215,186.440506 317.125488,187.070267 
	C317.125488,187.070267 317.096100,187.121384 316.457214,187.358765 
	C314.965485,189.235626 313.473755,191.112488 311.994965,192.994705 
	C311.994965,192.994705 311.990051,192.982407 311.300018,193.143402 
	C309.195557,195.442581 307.091095,197.741745 304.685211,200.381027 
	C304.473541,200.599030 304.244385,200.796753 303.308167,201.142044 
	C300.864990,203.756516 298.421844,206.370972 295.995117,208.995285 
	C295.995117,208.995285 295.985901,208.979050 295.296692,209.141434 
	C293.194092,211.442520 291.091492,213.743607 288.595612,216.482498 
	C287.766144,216.990753 286.936707,217.499008 285.715576,218.316360 
	C285.463287,218.530304 285.218719,218.752701 284.378571,219.276932 
	C283.250793,220.869003 282.123016,222.461060 280.696167,224.390549 
	C280.486115,224.606796 280.258331,224.802460 279.318756,225.140533 
	C277.204468,227.429520 275.090149,229.718506 272.629364,232.451675 
	C272.077057,232.959167 271.524750,233.466660 270.472626,234.212555 
	C269.991425,234.486206 269.510193,234.759857 269.099609,235.049026 
	C269.099609,235.049026 269.105896,235.121063 268.477234,235.366486 
	C267.311523,236.915543 266.145813,238.464584 264.682922,240.361923 
	C264.474243,240.585892 264.247742,240.790070 263.311035,241.138306 
	C261.198120,243.427567 259.085175,245.716827 256.630035,248.446320 
	C256.093079,248.958710 255.556122,249.471100 254.506653,250.214844 
	C254.015640,250.486679 253.524628,250.758530 253.104736,251.052505 
	C253.104736,251.052505 253.100296,251.126862 252.475128,251.376007 
	C251.316925,252.921112 250.158707,254.466217 248.990387,255.996338 
	C248.990387,255.996338 249.007965,255.996948 248.652420,256.311249 
	C248.420898,256.527100 248.201263,256.754456 247.993134,256.996552 
	C247.993134,256.996552 247.991211,256.982849 247.301224,257.143890 
	C245.194962,259.437378 243.088699,261.730835 240.688034,264.369019 
	C240.482422,264.591461 240.260788,264.796600 239.442520,265.195892 
	C238.652222,265.820251 237.861923,266.444611 237.128937,267.072754 
	C237.128937,267.072754 237.101044,267.122986 236.474258,267.373108 
	C235.314880,268.933685 234.155502,270.494232 232.698410,272.391937 
	C232.489258,272.608063 232.262299,272.803558 231.322357,273.140442 
	C229.207077,275.429779 227.091797,277.719147 224.617325,280.492950 
	C223.737030,281.314453 222.856720,282.135925 221.299179,283.135345 
	C219.858536,284.759552 218.417877,286.383759 216.683472,288.357544 
	C216.477173,288.582550 216.253067,288.788116 215.316788,289.136627 
	C213.215866,291.424286 211.114960,293.711945 209.013321,296.013702 
	C209.013321,296.013702 208.999435,296.012817 208.422577,296.213501 
	C207.634247,296.827637 206.845917,297.441803 206.023285,298.078735 
	C206.023285,298.078735 206.021790,298.037628 205.684448,298.356049 
	C205.462555,298.571594 205.246948,298.793274 205.101196,299.031464 
	C205.101196,299.031464 205.078140,299.091614 204.502151,299.382965 
	C203.652405,300.564484 202.802643,301.746002 201.650391,303.301758 
	C201.438263,303.543427 201.208206,303.766602 200.199982,303.989319 
	C199.438583,304.013458 198.677200,304.037598 197.349014,303.712433 
	C189.407379,296.006287 181.355682,288.409790 173.545746,280.572388 
	C153.946426,260.904205 134.426590,241.156433 114.958672,221.358170 
	C112.392014,218.747955 110.541420,218.737747 107.970444,221.354553 
	C96.780449,232.744217 85.409790,243.956390 74.221878,255.348068 
	C73.092087,256.498413 72.750687,258.423065 72.197502,260.676147 
	C73.954575,265.376862 77.103683,268.612915 81.996033,270.007935 
	C81.996033,270.007935 81.996407,269.993927 82.316078,270.348480 
	C82.535851,270.579254 82.767014,270.797974 82.985374,271.006165 
	C82.985374,271.006165 82.999352,270.986115 83.156364,271.677856 
	C86.292015,277.622467 90.356209,282.613556 96.931923,285.065277 
	C96.931923,285.065277 96.940895,285.097870 97.122658,285.767426 
	C102.461029,291.135864 107.799393,296.504272 113.012177,301.945709 
	C113.012177,301.945709 113.129593,301.856873 113.351189,302.511322 
	C118.557755,307.680054 123.764328,312.848785 129.250870,318.634583 
	C134.546051,323.715118 139.841232,328.795624 145.018997,333.943146 
	C145.018997,333.943146 145.126007,333.858429 145.348862,334.512360 
	C150.603897,339.635406 155.858917,344.758484 161.032425,349.983856 
	C161.032425,349.983856 161.122360,349.880066 161.347870,350.528717 
	C166.562195,355.694183 171.776520,360.859619 177.267670,366.639648 
	C181.822449,372.177917 185.659622,378.498901 192.983780,381.004761 
	C192.983780,381.004761 192.977264,381.028198 193.216141,381.529968 
	C193.490723,382.013123 193.765320,382.496277 194.034271,382.917908 
	C194.034271,382.917908 194.095581,382.910278 194.347366,383.527649 
	C195.594620,384.334290 196.841888,385.140930 198.657623,386.081940 
	C202.076096,383.390076 205.494583,380.698242 209.294083,377.655579 
	C209.534164,377.407104 209.774246,377.158630 210.324142,376.479095 
	C210.835266,375.991913 211.346405,375.504700 212.541138,374.837494 
	C213.694870,373.549377 214.848618,372.261230 216.027969,371.015106 
	C216.027969,371.015106 215.978760,371.014587 216.341141,370.650208 
	C216.565262,370.389923 216.789398,370.129639 217.272324,369.548431 
	C217.459106,369.344788 217.667328,369.166107 218.608231,368.857513 
	C220.737091,366.558868 222.865952,364.260223 225.013535,362.011292 
	C225.013535,362.011292 224.962921,361.995148 225.656311,361.829895 
	C227.432724,359.877716 229.209137,357.925507 231.006424,356.003662 
	C231.006424,356.003662 230.973022,355.988739 231.558792,355.770844 
	C232.379272,354.896912 233.199768,354.022980 234.568054,352.750122 
	C239.024506,348.051422 243.360168,343.230438 247.965271,338.682220 
	C255.158524,331.577820 262.667450,324.790833 269.799744,317.627533 
	C279.163055,308.223480 288.157745,298.451416 297.552979,289.080292 
	C309.442932,277.220764 321.706085,265.734772 333.570801,253.850616 
	C347.395447,240.003326 360.890198,225.827286 374.661163,211.925735 
	C392.110931,194.310486 409.694733,176.828018 427.220520,159.288055 
	C428.979797,157.527390 431.213623,155.901978 429.070129,152.444092 
	C426.490753,147.131744 422.697510,143.086121 417.034271,140.964951 
	C417.034271,140.964951 417.050079,140.924393 416.868195,140.254852 
	C415.215302,138.839920 413.562439,137.425003 411.470215,135.679108 
	C410.979889,135.136642 410.489563,134.594177 409.765656,133.529739 
	C409.499146,133.025299 409.232666,132.520844 408.970001,132.089462 
	C408.970001,132.089462 408.898468,132.104843 408.673737,131.445755 
	C405.757050,128.963562 402.840393,126.481361 399.580139,123.733681 
	C399.360596,123.542786 399.165833,123.329300 398.882202,122.376457 
	C397.214996,120.625687 395.547791,118.874916 393.887482,117.042664 
	C393.887482,117.042664 393.968170,117.029495 393.642975,116.691895 
	C393.424347,116.468582 393.202087,116.248909 393.000000,116.000000 
z"/>
<path fill="#000000" opacity="1.000000" stroke="none" 
	d="
M468.067078,128.913574 
	C463.327698,115.260193 454.142151,104.376137 445.326416,93.395340 
	C422.401489,64.840187 394.334686,42.561184 361.474396,26.357002 
	C360.581360,25.916626 359.645172,25.563660 358.114197,24.850851 
	C350.658997,21.787453 343.818665,19.043131 336.978363,16.298809 
	C331.931885,14.551064 326.885406,12.803318 321.181671,10.848450 
	C318.926971,10.320356 317.329529,9.999387 315.732086,9.678417 
	C315.732086,9.678417 315.309479,9.664345 315.309479,9.664345 
	C315.309479,9.664345 314.895355,9.749909 314.512512,9.586412 
	C313.419891,9.019871 312.710144,8.616826 312.000366,8.213781 
	C311.564545,8.161252 311.128693,8.108725 310.092499,7.859703 
	C308.679749,7.489749 307.867340,7.316288 307.054962,7.142829 
	C307.054962,7.142831 306.586517,7.069627 306.192200,6.863453 
	C305.575623,6.432219 305.318909,6.257872 305.027771,6.134240 
	C303.965851,6.090597 302.903900,6.046954 301.095947,5.806435 
	C294.237915,4.747144 288.125916,3.884729 282.013916,3.022315 
	C281.982117,2.572256 281.950317,2.122196 281.959290,1.336068 
	C354.927521,1.000000 427.855072,1.000000 501.000000,1.000000 
	C501.000000,74.687416 501.000000,148.375046 501.000000,222.531342 
	C500.311951,221.224472 499.249786,219.501343 498.992645,217.665451 
	C495.788300,194.788712 489.955750,172.661499 480.171997,150.913940 
	C476.906952,144.183975 473.954468,138.085480 471.001984,131.986984 
	C471.001984,131.986984 470.990662,132.006332 470.877686,131.711456 
	C469.865509,130.582245 468.966278,129.747910 468.067078,128.913574 
z"/>
<path fill="#000000" opacity="1.000000" stroke="none" 
	d="
M281.468658,501.000000 
	C282.593811,500.313660 284.130371,499.244659 285.789734,498.996460 
	C337.447815,491.268616 382.549744,469.966705 421.041077,434.509949 
	C453.738800,404.390076 476.587891,368.052094 489.974152,325.857117 
	C493.978546,313.234802 495.924927,299.961060 498.860535,286.996246 
	C499.215424,285.429016 499.861206,283.927643 500.686096,282.197876 
	C501.000000,354.927185 501.000000,427.854401 501.000000,501.000000 
	C427.979248,501.000000 354.958282,501.000000 281.468658,501.000000 
z"/>
<path fill="#000000" opacity="1.000000" stroke="none" 
	d="
M1.000001,282.468658 
	C1.693440,283.591156 2.786287,285.125763 3.020648,286.781891 
	C6.786455,313.393127 14.694699,338.796753 26.593948,362.785675 
	C36.224407,382.200775 48.511623,399.994110 62.881760,416.349091 
	C96.754501,454.900574 138.882141,480.028076 188.060379,493.635559 
	C197.007263,496.111176 206.343811,497.170258 215.486435,498.955231 
	C216.898773,499.230988 218.235138,499.895874 219.803314,500.690430 
	C147.072968,501.000000 74.145935,501.000000 1.000000,501.000000 
	C1.000000,428.312592 1.000000,355.624939 1.000001,282.468658 
z"/>
<path fill="#000000" opacity="1.000000" stroke="none" 
	d="
M219.531342,1.000000 
	C215.792313,2.167942 211.649307,3.726679 207.365662,4.435775 
	C189.388031,7.411715 172.067032,12.559806 155.271927,19.553717 
	C121.449745,33.638134 91.754059,53.852940 66.973213,80.799591 
	C40.231220,109.878807 20.854940,143.374619 10.283217,181.606232 
	C7.501046,191.667679 5.991754,202.078110 3.782574,212.303375 
	C3.307982,214.500061 2.334359,216.588928 1.295308,218.863739 
	C1.000000,146.406128 1.000000,73.812248 1.000000,1.000000 
	C73.687416,1.000000 146.375046,1.000000 219.531342,1.000000 
z"/>
<path fill="#000000" opacity="1.000000" stroke="none" 
	d="
M72.043411,259.988373 
	C72.750687,258.423065 73.092087,256.498413 74.221878,255.348068 
	C85.409790,243.956390 96.780449,232.744217 107.970444,221.354553 
	C110.541420,218.737747 112.392014,218.747955 114.958672,221.358170 
	C134.426590,241.156433 153.946426,260.904205 173.545746,280.572388 
	C181.355682,288.409790 189.407379,296.006287 197.794281,304.050842 
	C199.146454,304.249939 200.053329,304.110626 200.960220,303.971313 
	C201.208206,303.766602 201.438263,303.543427 202.060791,302.934509 
	C203.340164,301.408722 204.209152,300.250153 205.078125,299.091614 
	C205.078140,299.091614 205.101196,299.031464 205.273026,298.905273 
	C205.698837,298.579956 205.891144,298.332794 206.021790,298.037628 
	C206.021790,298.037628 206.023285,298.078735 206.334045,297.979919 
	C207.429672,297.258331 208.214554,296.635559 208.999435,296.012817 
	C208.999435,296.012817 209.013321,296.013702 209.286972,295.824219 
	C211.710800,293.414612 213.860977,291.194458 216.011169,288.974304 
	C216.253067,288.788116 216.477173,288.582550 217.096664,287.995972 
	C218.998718,286.075378 220.487564,284.516388 221.976410,282.957428 
	C222.856720,282.135925 223.737030,281.314453 225.068237,280.059052 
	C227.685272,277.409546 229.851395,275.193970 232.017517,272.978394 
	C232.262299,272.803558 232.489258,272.608063 233.112869,272.030701 
	C234.718567,270.153961 235.909805,268.638458 237.101044,267.122986 
	C237.101044,267.122986 237.128937,267.072754 237.394897,266.980103 
	C238.448288,266.253113 239.235703,265.618744 240.023132,264.984406 
	C240.260788,264.796600 240.482422,264.591461 241.107910,264.005981 
	C243.682251,261.422913 245.836731,259.202881 247.991211,256.982849 
	C247.991211,256.982849 247.993134,256.996552 248.183060,256.850891 
	C248.614517,256.495941 248.826172,256.259827 249.007965,255.996948 
	C249.007965,255.996948 248.990387,255.996338 249.262161,255.818787 
	C250.722733,254.136444 251.911514,252.631653 253.100311,251.126862 
	C253.100296,251.126862 253.104736,251.052505 253.344193,250.970016 
	C254.062164,250.586182 254.540680,250.284836 255.019180,249.983490 
	C255.556122,249.471100 256.093079,248.958710 257.073578,248.035797 
	C259.679230,245.408356 261.841339,243.191406 264.003418,240.974457 
	C264.247742,240.790070 264.474243,240.585892 265.097656,239.998108 
	C266.710236,238.129883 267.908081,236.625473 269.105896,235.121063 
	C269.105896,235.121063 269.099609,235.049026 269.333801,234.964584 
	C270.036163,234.578156 270.504303,234.276154 270.972443,233.974152 
	C271.524750,233.466660 272.077057,232.959167 273.073792,232.037811 
	C275.683105,229.408447 277.847992,227.192978 280.012878,224.977509 
	C280.258331,224.802460 280.486115,224.606796 281.110046,224.033569 
	C282.969818,222.116714 284.415680,220.556839 285.927338,218.750610 
	C286.031158,218.338608 286.069183,218.172928 286.107239,218.007248 
	C286.936707,217.499008 287.766144,216.990753 289.063171,216.069153 
	C291.682495,213.430206 293.834198,211.204636 295.985901,208.979065 
	C295.985901,208.979050 295.995117,208.995285 296.265625,208.810135 
	C299.023315,206.074722 301.510498,203.524460 303.997711,200.974182 
	C304.244385,200.796753 304.473541,200.599030 305.107361,200.017365 
	C307.683044,197.429947 309.836548,195.206177 311.990051,192.982407 
	C311.990051,192.982407 311.994965,192.994705 312.266052,192.814880 
	C314.056824,190.797150 315.576447,188.959259 317.096100,187.121384 
	C317.096100,187.121384 317.125488,187.070267 317.392151,186.979523 
	C318.446075,186.253922 319.233307,185.619064 320.020508,184.984222 
	C320.260986,184.798035 320.482910,184.591888 321.104248,184.000504 
	C323.664825,181.416351 325.807404,179.197510 327.949982,176.978638 
	C338.840088,166.177795 349.730164,155.376953 361.090729,144.118988 
	C364.040649,141.104050 366.520111,138.546219 368.999573,135.988388 
	C368.999573,135.988388 368.989563,135.991425 369.220673,135.798004 
	C369.991425,134.759323 370.531067,133.914047 371.070709,133.068771 
	C371.070709,133.068771 371.091644,133.019302 371.271606,132.903076 
	C371.708862,132.586929 371.901642,132.337204 372.029938,132.037674 
	C372.029938,132.037674 372.042328,132.106506 372.378479,132.004669 
	C373.805939,130.928101 374.897247,129.953384 375.988556,128.978668 
	C376.541840,128.478882 377.095093,127.979073 378.092377,127.070602 
	C380.370544,124.769966 382.204712,122.877983 384.038910,120.986008 
	C384.278198,120.794304 384.498016,120.582413 385.071320,120.001022 
	C385.966797,119.099892 386.489319,118.548073 387.011841,117.996246 
	C387.011841,117.996239 386.988770,117.991013 387.249908,117.834335 
	C388.354614,116.806526 389.198212,115.935387 390.041779,115.064247 
	C390.041779,115.064247 390.496002,115.047081 390.944885,115.228989 
	C391.921326,115.617867 392.448883,115.824844 392.976440,116.031822 
	C392.976440,116.031822 393.000000,116.000000 393.106171,116.225647 
	C393.412476,116.711784 393.664398,116.904518 393.968170,117.029495 
	C393.968170,117.029495 393.887482,117.042664 393.989014,117.397697 
	C395.725677,119.532898 397.360748,121.313065 398.995850,123.093224 
	C399.165833,123.329300 399.360596,123.542786 399.954620,124.136032 
	C403.185547,127.060547 406.041992,129.582703 408.898468,132.104858 
	C408.898468,132.104843 408.970001,132.089462 409.037842,132.333038 
	C409.403503,133.068329 409.701355,133.560028 409.999268,134.051727 
	C410.489563,134.594177 410.979889,135.136642 411.881561,136.110886 
	C413.878632,138.003235 415.464355,139.463806 417.050079,140.924393 
	C417.050079,140.924393 417.034271,140.964951 417.232117,141.237549 
	C421.294373,145.342529 425.158813,149.174896 429.023254,153.007263 
	C431.213623,155.901978 428.979797,157.527390 427.220520,159.288055 
	C409.694733,176.828018 392.110931,194.310486 374.661163,211.925735 
	C360.890198,225.827286 347.395447,240.003326 333.570801,253.850616 
	C321.706085,265.734772 309.442932,277.220764 297.552979,289.080292 
	C288.157745,298.451416 279.163055,308.223480 269.799744,317.627533 
	C262.667450,324.790833 255.158524,331.577820 247.965271,338.682220 
	C243.360168,343.230438 239.024506,348.051422 234.020782,353.076538 
	C232.640015,354.264923 231.806519,355.126831 230.973022,355.988739 
	C230.973022,355.988739 231.006424,356.003662 230.717911,356.163513 
	C228.607239,358.213959 226.785095,360.104553 224.962921,361.995148 
	C224.962921,361.995148 225.013535,362.011292 224.725433,362.167236 
	C222.257202,364.552948 220.077087,366.782684 217.896973,369.012421 
	C217.667328,369.166107 217.459106,369.344788 216.946564,369.878754 
	C216.406784,370.477570 216.192764,370.746094 215.978760,371.014587 
	C215.978760,371.014587 216.027969,371.015106 215.748474,371.173035 
	C214.265152,372.559784 213.061340,373.788635 211.857529,375.017487 
	C211.346405,375.504700 210.835266,375.991913 209.967957,376.859680 
	C209.378876,377.495636 209.145966,377.751007 208.913055,378.006378 
	C205.494583,380.698242 202.076096,383.390076 198.178864,385.763245 
	C196.498581,384.599792 195.297073,383.755035 194.095581,382.910278 
	C194.095581,382.910278 194.034271,382.917908 193.957703,382.678833 
	C193.579849,381.969238 193.278549,381.498718 192.977264,381.028198 
	C192.977264,381.028198 192.983780,381.004761 192.793945,380.740295 
	C187.401886,375.323700 182.199631,370.171539 176.804504,364.747925 
	C171.448532,359.610992 166.285446,354.745544 161.122360,349.880066 
	C161.122360,349.880066 161.032425,349.983856 160.953491,349.617920 
	C155.625031,344.120789 150.375519,338.989594 145.126007,333.858429 
	C145.126007,333.858429 145.018997,333.943146 144.950562,333.597595 
	C139.932083,328.165253 134.982040,323.078491 129.826920,317.729370 
	C124.124413,312.263611 118.626999,307.060242 113.129593,301.856873 
	C113.129593,301.856873 113.012177,301.945709 112.947586,301.597504 
	C107.568970,295.865479 102.254936,290.481689 96.940903,285.097870 
	C96.940895,285.097870 96.931923,285.065277 96.742294,284.780090 
	C92.034897,279.991974 87.517128,275.489044 82.999359,270.986115 
	C82.999352,270.986115 82.985374,271.006165 82.852936,270.813477 
	C82.509354,270.376892 82.267998,270.167938 81.996407,269.993927 
	C81.996407,269.993927 81.996033,270.007935 81.812729,269.731171 
	C78.434090,266.299072 75.238754,263.143707 72.043411,259.988373 
z"/>
<path fill="#083707" opacity="1.000000" stroke="none" 
	d="
M337.145844,16.569120 
	C343.818665,19.043131 350.658997,21.787453 357.770020,24.753387 
	C350.728363,23.290525 342.885040,22.958696 337.145844,16.569120 
z"/>
<path fill="#093409" opacity="1.000000" stroke="none" 
	d="
M113.240387,302.184082 
	C118.626999,307.060242 124.124413,312.263611 129.561554,317.735718 
	C129.324493,318.008759 129.147705,318.013123 128.970901,318.017517 
	C123.764328,312.848785 118.557755,307.680054 113.240387,302.184082 
z"/>
<path fill="#093409" opacity="1.000000" stroke="none" 
	d="
M97.031784,285.432648 
	C102.254936,290.481689 107.568970,295.865479 113.010376,301.561005 
	C107.799393,296.504272 102.461029,291.135864 97.031784,285.432648 
z"/>
<path fill="#09350A" opacity="1.000000" stroke="none" 
	d="
M161.235107,350.204407 
	C166.285446,354.745544 171.448532,359.610992 176.802917,364.999268 
	C176.993088,365.689758 176.991959,365.857422 176.990829,366.025085 
	C171.776520,360.859619 166.562195,355.694183 161.235107,350.204407 
z"/>
<path fill="#09350A" opacity="1.000000" stroke="none" 
	d="
M129.110886,318.326050 
	C129.147705,318.013123 129.324493,318.008759 129.766647,317.998077 
	C134.982040,323.078491 139.932083,328.165253 145.009277,333.564087 
	C139.841232,328.795624 134.546051,323.715118 129.110886,318.326050 
z"/>
<path fill="#09350A" opacity="1.000000" stroke="none" 
	d="
M145.237427,334.185394 
	C150.375519,338.989594 155.625031,344.120789 160.994247,349.566742 
	C155.858917,344.758484 150.603897,339.635406 145.237427,334.185394 
z"/>
<path fill="#09340A" opacity="1.000000" stroke="none" 
	d="
M177.129242,366.332367 
	C176.991959,365.857422 176.993088,365.689758 176.995789,365.270752 
	C182.199631,370.171539 187.401886,375.323700 192.785889,380.755066 
	C185.659622,378.498901 181.822449,372.177917 177.129242,366.332367 
z"/>
<path fill="#09380A" opacity="1.000000" stroke="none" 
	d="
M282.043884,3.269288 
	C288.125916,3.884729 294.237915,4.747144 300.697906,5.786124 
	C297.406006,7.387639 284.554108,5.730395 282.043884,3.269288 
z"/>
<path fill="#09350A" opacity="1.000000" stroke="none" 
	d="
M83.077866,271.331970 
	C87.517128,275.489044 92.034897,279.991974 96.725632,284.777283 
	C90.356209,282.613556 86.292015,277.622467 83.077866,271.331970 
z"/>
<path fill="#0B370A" opacity="1.000000" stroke="none" 
	d="
M471.020081,132.380951 
	C473.954468,138.085480 476.906952,144.183975 479.961670,150.639267 
	C479.214539,150.541748 477.876892,150.289047 477.592926,149.601288 
	C475.296265,144.038635 473.197418,138.394318 471.020081,132.380951 
z"/>
<path fill="#09380A" opacity="1.000000" stroke="none" 
	d="
M429.046692,152.725677 
	C425.158813,149.174896 421.294373,145.342529 417.252441,141.229828 
	C422.697510,143.086121 426.490753,147.131744 429.046692,152.725677 
z"/>
<path fill="#09350A" opacity="1.000000" stroke="none" 
	d="
M72.120453,260.332275 
	C75.238754,263.143707 78.434090,266.299072 81.819168,269.727844 
	C77.103683,268.612915 73.954575,265.376862 72.120453,260.332275 
z"/>
<path fill="#0B370A" opacity="1.000000" stroke="none" 
	d="
M408.786102,131.775299 
	C406.041992,129.582703 403.185547,127.060547 400.126404,124.268784 
	C402.840393,126.481361 405.757050,128.963562 408.786102,131.775299 
z"/>
<path fill="#093409" opacity="1.000000" stroke="none" 
	d="
M368.648132,136.062332 
	C366.520111,138.546219 364.040649,141.104050 361.291962,143.857239 
	C361.695190,139.803818 364.068176,137.117569 368.648132,136.062332 
z"/>
<path fill="#093409" opacity="1.000000" stroke="none" 
	d="
M303.652954,201.058105 
	C301.510498,203.524460 299.023315,206.074722 296.257416,208.805206 
	C298.421844,206.370972 300.864990,203.756516 303.652954,201.058105 
z"/>
<path fill="#093409" opacity="1.000000" stroke="none" 
	d="
M327.606049,177.059448 
	C325.807404,179.197510 323.664825,181.416351 321.248444,183.824646 
	C321.528900,180.312729 323.649689,178.044281 327.606049,177.059448 
z"/>
<path fill="#09340A" opacity="1.000000" stroke="none" 
	d="
M247.646210,257.063354 
	C245.836731,259.202881 243.682251,261.422913 241.255096,263.833618 
	C243.088699,261.730835 245.194962,259.437378 247.646210,257.063354 
z"/>
<path fill="#09340A" opacity="1.000000" stroke="none" 
	d="
M263.657227,241.056381 
	C261.841339,243.191406 259.679230,245.408356 257.244690,247.815704 
	C259.085175,245.716827 261.198120,243.427567 263.657227,241.056381 
z"/>
<path fill="#09340A" opacity="1.000000" stroke="none" 
	d="
M231.669937,273.059418 
	C229.851395,275.193970 227.685272,277.409546 225.247818,279.816833 
	C227.091797,277.719147 229.207077,275.429779 231.669937,273.059418 
z"/>
<path fill="#09340A" opacity="1.000000" stroke="none" 
	d="
M279.665833,225.059021 
	C277.847992,227.192978 275.683105,229.408447 273.247040,231.815704 
	C275.090149,229.718506 277.204468,227.429520 279.665833,225.059021 
z"/>
<path fill="#09340A" opacity="1.000000" stroke="none" 
	d="
M215.663971,289.055481 
	C213.860977,291.194458 211.710800,293.414612 209.287323,295.817139 
	C211.114960,293.711945 213.215866,291.424286 215.663971,289.055481 
z"/>
<path fill="#093409" opacity="1.000000" stroke="none" 
	d="
M295.641296,209.060242 
	C293.834198,211.204636 291.682495,213.430206 289.259827,215.850235 
	C291.091492,213.743607 293.194092,211.442520 295.641296,209.060242 
z"/>
<path fill="#0C3A10" opacity="1.000000" stroke="none" 
	d="
M218.252594,368.934967 
	C220.077087,366.782684 222.257202,364.552948 224.716064,362.142395 
	C222.865952,364.260223 220.737091,366.558868 218.252594,368.934967 
z"/>
<path fill="#093409" opacity="1.000000" stroke="none" 
	d="
M311.645020,193.062897 
	C309.836548,195.206177 307.683044,197.429947 305.258087,199.847321 
	C307.091095,197.741745 309.195557,195.442581 311.645020,193.062897 
z"/>
<path fill="#093409" opacity="1.000000" stroke="none" 
	d="
M383.683228,121.057190 
	C382.204712,122.877983 380.370544,124.769966 378.263062,126.848175 
	C379.769043,125.065727 381.548279,123.097054 383.683228,121.057190 
z"/>
<path fill="#0C3A10" opacity="1.000000" stroke="none" 
	d="
M225.309631,361.912537 
	C226.785095,360.104553 228.607239,358.213959 230.707489,356.148346 
	C229.209137,357.925507 227.432724,359.877716 225.309631,361.912537 
z"/>
<path fill="#0B370A" opacity="1.000000" stroke="none" 
	d="
M398.939026,122.734840 
	C397.360748,121.313065 395.725677,119.532898 393.985596,117.438438 
	C395.547791,118.874916 397.214996,120.625687 398.939026,122.734840 
z"/>
<path fill="#093409" opacity="1.000000" stroke="none" 
	d="
M316.776672,187.240082 
	C315.576447,188.959259 314.056824,190.797150 312.259583,192.812195 
	C313.473755,191.112488 314.965485,189.235626 316.776672,187.240082 
z"/>
<path fill="#09340A" opacity="1.000000" stroke="none" 
	d="
M285.861542,218.996948 
	C284.415680,220.556839 282.969818,222.116714 281.259583,223.864868 
	C282.123016,222.461060 283.250793,220.869003 284.900269,219.134079 
	C285.421936,218.991226 285.861542,218.996948 285.861542,218.996948 
z"/>
<path fill="#09380A" opacity="1.000000" stroke="none" 
	d="
M416.959137,140.589630 
	C415.464355,139.463806 413.878632,138.003235 412.101227,136.276367 
	C413.562439,137.425003 415.215302,138.839920 416.959137,140.589630 
z"/>
<path fill="#09340A" opacity="1.000000" stroke="none" 
	d="
M221.637787,283.046387 
	C220.487564,284.516388 218.998718,286.075378 217.243546,287.821167 
	C218.417877,286.383759 219.858536,284.759552 221.637787,283.046387 
z"/>
<path fill="#09340A" opacity="1.000000" stroke="none" 
	d="
M268.791565,235.243774 
	C267.908081,236.625473 266.710236,238.129883 265.246246,239.823975 
	C266.145813,238.464584 267.311523,236.915543 268.791565,235.243774 
z"/>
<path fill="#09340A" opacity="1.000000" stroke="none" 
	d="
M252.787720,251.251434 
	C251.911514,252.631653 250.722733,254.136444 249.267212,255.826279 
	C250.158707,254.466217 251.316925,252.921112 252.787720,251.251434 
z"/>
<path fill="#09340A" opacity="1.000000" stroke="none" 
	d="
M236.787643,267.248047 
	C235.909805,268.638458 234.718567,270.153961 233.261734,271.862122 
	C234.155502,270.494232 235.314880,268.933685 236.787643,267.248047 
z"/>
<path fill="#0C3A10" opacity="1.000000" stroke="none" 
	d="
M212.199326,374.927490 
	C213.061340,373.788635 214.265152,372.559784 215.735657,371.152039 
	C214.848618,372.261230 213.694870,373.549377 212.199326,374.927490 
z"/>
<path fill="#09340A" opacity="1.000000" stroke="none" 
	d="
M194.221466,383.218964 
	C195.297073,383.755035 196.498581,384.599792 197.894623,385.696045 
	C196.841888,385.140930 195.594620,384.334290 194.221466,383.218964 
z"/>
<path fill="#09380A" opacity="1.000000" stroke="none" 
	d="
M316.011749,9.849512 
	C317.329529,9.999387 318.926971,10.320356 320.788940,10.807537 
	C319.466095,10.656034 317.878754,10.338322 316.011749,9.849512 
z"/>
<path fill="#09340A" opacity="1.000000" stroke="none" 
	d="
M204.790131,299.237305 
	C204.209152,300.250153 203.340164,301.408722 202.212036,302.747437 
	C202.802643,301.746002 203.652405,300.564484 204.790131,299.237305 
z"/>
<path fill="#093409" opacity="1.000000" stroke="none" 
	d="
M375.668884,129.065308 
	C374.897247,129.953384 373.805939,130.928101 372.413452,132.005112 
	C373.191254,131.122253 374.270233,130.137100 375.668884,129.065308 
z"/>
<path fill="#0B370A" opacity="1.000000" stroke="none" 
	d="
M468.201294,129.197479 
	C468.966278,129.747910 469.865509,130.582245 470.888611,131.709045 
	C470.120148,131.161484 469.227814,130.321442 468.201294,129.197479 
z"/>
<path fill="#093409" opacity="1.000000" stroke="none" 
	d="
M389.776154,115.073036 
	C389.198212,115.935387 388.354614,116.806526 387.255249,117.844879 
	C387.836487,117.035332 388.673523,116.058578 389.776154,115.073036 
z"/>
<path fill="#0C3A10" opacity="1.000000" stroke="none" 
	d="
M231.265915,355.879791 
	C231.806519,355.126831 232.640015,354.264923 233.746887,353.276001 
	C233.199768,354.022980 232.379272,354.896912 231.265915,355.879791 
z"/>
<path fill="#093409" opacity="1.000000" stroke="none" 
	d="
M319.730591,185.089951 
	C319.233307,185.619064 318.446075,186.253922 317.362915,186.975845 
	C317.858215,186.440506 318.649445,185.818085 319.730591,185.089951 
z"/>
<path fill="#093409" opacity="1.000000" stroke="none" 
	d="
M370.834930,133.262695 
	C370.531067,133.914047 369.991425,134.759323 369.220734,135.803009 
	C369.526184,135.153152 370.062653,134.304886 370.834930,133.262695 
z"/>
<path fill="#09340A" opacity="1.000000" stroke="none" 
	d="
M208.710999,296.113159 
	C208.214554,296.635559 207.429672,297.258331 206.351196,297.968506 
	C206.845917,297.441803 207.634247,296.827637 208.710999,296.113159 
z"/>
<path fill="#09340A" opacity="1.000000" stroke="none" 
	d="
M239.732819,265.090149 
	C239.235703,265.618744 238.448288,266.253113 237.366241,266.978210 
	C237.861923,266.444611 238.652222,265.820251 239.732819,265.090149 
z"/>
<path fill="#09340A" opacity="1.000000" stroke="none" 
	d="
M200.580109,303.980316 
	C200.053329,304.110626 199.146454,304.249939 198.077682,304.225494 
	C198.677200,304.037598 199.438583,304.013458 200.580109,303.980316 
z"/>
<path fill="#09380A" opacity="1.000000" stroke="none" 
	d="
M312.221497,8.419015 
	C312.710144,8.616826 313.419891,9.019871 314.322083,9.678256 
	C313.823853,9.497148 313.133209,9.060699 312.221497,8.419015 
z"/>
<path fill="#09380A" opacity="1.000000" stroke="none" 
	d="
M307.247375,7.265321 
	C307.867340,7.316288 308.679749,7.489749 309.765686,7.819634 
	C309.172760,7.779978 308.306244,7.583895 307.247375,7.265321 
z"/>
<path fill="#093409" opacity="1.000000" stroke="none" 
	d="
M386.777283,118.161285 
	C386.489319,118.548073 385.966797,119.099892 385.213501,119.821182 
	C385.502716,119.435875 386.022705,118.881096 386.777283,118.161285 
z"/>
<path fill="#0B370A" opacity="1.000000" stroke="none" 
	d="
M409.882446,133.790741 
	C409.701355,133.560028 409.403503,133.068329 409.035919,132.296509 
	C409.232666,132.520844 409.499146,133.025299 409.882446,133.790741 
z"/>
<path fill="#09340A" opacity="1.000000" stroke="none" 
	d="
M193.096710,381.279083 
	C193.278549,381.498718 193.579849,381.969238 193.960526,382.709595 
	C193.765320,382.496277 193.490723,382.013123 193.096710,381.279083 
z"/>
<path fill="#09340A" opacity="1.000000" stroke="none" 
	d="
M254.762909,250.099167 
	C254.540680,250.284836 254.062164,250.586182 253.308624,250.958954 
	C253.524628,250.758530 254.015640,250.486679 254.762909,250.099167 
z"/>
<path fill="#0B370A" opacity="1.000000" stroke="none" 
	d="
M392.728516,115.898300 
	C392.448883,115.824844 391.921326,115.617867 391.172180,115.230423 
	C391.460571,115.288231 391.970581,115.526497 392.728516,115.898300 
z"/>
<path fill="#09340A" opacity="1.000000" stroke="none" 
	d="
M270.722534,234.093353 
	C270.504303,234.276154 270.036163,234.578156 269.298523,234.956818 
	C269.510193,234.759857 269.991425,234.486206 270.722534,234.093353 
z"/>
<path fill="#09350A" opacity="1.000000" stroke="none" 
	d="
M82.156242,270.171204 
	C82.267998,270.167938 82.509354,270.376892 82.865036,270.812714 
	C82.767014,270.797974 82.535851,270.579254 82.156242,270.171204 
z"/>
<path fill="#09340A" opacity="1.000000" stroke="none" 
	d="
M248.830200,256.154114 
	C248.826172,256.259827 248.614517,256.495941 248.183258,256.849243 
	C248.201263,256.754456 248.420898,256.527100 248.830200,256.154114 
z"/>
<path fill="#0C3A10" opacity="1.000000" stroke="none" 
	d="
M209.103561,377.830994 
	C209.145966,377.751007 209.378876,377.495636 209.813049,377.075226 
	C209.774246,377.158630 209.534164,377.407104 209.103561,377.830994 
z"/>
<path fill="#093409" opacity="1.000000" stroke="none" 
	d="
M285.927338,218.750610 
	C285.861542,218.996948 285.421936,218.991226 285.201904,218.987396 
	C285.218719,218.752701 285.463287,218.530304 285.911407,218.161804 
	C286.069183,218.172928 286.031158,218.338608 285.927338,218.750610 
z"/>
<path fill="#0C3A10" opacity="1.000000" stroke="none" 
	d="
M216.159943,370.832397 
	C216.192764,370.746094 216.406784,370.477570 216.817154,370.039185 
	C216.789398,370.129639 216.565262,370.389923 216.159943,370.832397 
z"/>
<path fill="#09380A" opacity="1.000000" stroke="none" 
	d="
M305.203247,6.285578 
	C305.318909,6.257872 305.575623,6.432219 305.957458,6.830414 
	C305.863251,6.824623 305.617157,6.635746 305.203247,6.285578 
z"/>
<path fill="#093409" opacity="1.000000" stroke="none" 
	d="
M371.860321,132.198029 
	C371.901642,132.337204 371.708862,132.586929 371.244995,132.906601 
	C371.249908,132.797897 371.467346,132.575241 371.860321,132.198029 
z"/>
<path fill="#09340A" opacity="1.000000" stroke="none" 
	d="
M205.853119,298.196838 
	C205.891144,298.332794 205.698837,298.579956 205.241241,298.900085 
	C205.246948,298.793274 205.462555,298.571594 205.853119,298.196838 
z"/>
<path fill="#0B370A" opacity="1.000000" stroke="none" 
	d="
M393.805573,116.860695 
	C393.664398,116.904518 393.412476,116.711784 393.094299,116.242081 
	C393.202087,116.248909 393.424347,116.468582 393.805573,116.860695 
z"/>
</svg>